<svg width="255" height="256" viewBox="0 0 255 256" fill="none" xmlns="http://www.w3.org/2000/svg">
<g clip-path="url(#clip0)">
<path d="M125.543 253.797C194.838 254.636 251.696 198.917 252.538 129.345C253.38 59.7733 197.888 2.69442 128.592 1.85567C59.2967 1.01692 2.43893 56.7359 1.59684 126.308C0.754745 195.879 56.2473 252.958 125.543 253.797Z" fill="#EBC46D"/>
<path d="M148.93 166.23C152.442 168.006 155.615 171.27 157.541 174.68C158.525 176.385 159.064 178.246 159.322 180.185C159.581 182.042 160.841 184.073 162.984 182.85C163.712 182.455 164.204 181.615 164.173 180.808C164.142 176.776 162.265 172.56 159.652 169.545C156.919 166.408 153.444 164.874 149.433 164.503C148.51 164.411 148.132 165.817 148.93 166.23Z" fill="#F27552"/>
<path d="M112.844 168.333C108.368 169.892 105.302 174.33 103.404 178.5C101.465 182.79 99.9949 188.135 101.545 192.79C102.01 194.166 104.255 194.476 104.596 192.827C105.45 188.684 105.701 184.535 107.395 180.564C109.089 176.634 111.937 173.604 114.109 169.961C114.56 169.201 113.811 168.023 112.844 168.333Z" fill="#F27552"/>
<path d="M110.88 181.292C107.592 184.235 106.138 191.515 108.501 195.333C109.013 196.186 110.499 196.164 110.753 195.078C111.221 192.907 110.926 190.726 111.114 188.511C111.342 186.256 112.09 184.128 112.278 181.913C112.408 181.109 111.408 180.814 110.88 181.292Z" fill="#F27552"/>
<path d="M115.153 183.238C114.64 185.812 114.248 188.347 113.895 190.964C113.586 193.298 112.95 196.032 114.048 198.223C114.519 199.156 115.685 198.968 116.216 198.249C117.603 196.451 117.477 193.587 117.584 191.412C117.736 188.833 117.767 186.253 117.758 183.633C117.776 182.181 115.453 181.71 115.153 183.238Z" fill="#F27552"/>
<path d="M119.391 184.781C119.286 186.796 119.222 188.811 119.117 190.866C119.055 192.639 118.711 194.489 119.575 196.112C120.046 197.005 121.451 197.022 121.944 196.141C122.847 194.539 122.548 192.681 122.529 190.907C122.473 188.891 122.458 186.874 122.402 184.818C122.346 182.841 119.455 182.806 119.391 184.781Z" fill="#F27552"/>
<path d="M125.206 185.376C124.927 188.557 124.034 192.699 125.04 195.775C125.467 197.03 127.113 197.05 127.53 195.806C128.651 192.755 127.818 188.592 127.616 185.405C127.594 183.832 125.346 183.805 125.206 185.376Z" fill="#F27552"/>
<path d="M130.144 185.476C130.119 187.572 130.495 189.713 130.831 191.774C131.13 193.672 131.146 195.607 132.819 196.716C133.417 197.127 134.263 196.855 134.672 196.255C135.737 194.574 134.877 192.629 134.417 190.809C133.919 188.787 133.382 186.725 132.522 184.819C132.014 183.644 130.159 184.267 130.144 185.476Z" fill="#F27552"/>
<path d="M135.695 184.777C136.192 186.799 136.891 188.742 137.551 190.686C138.132 192.386 138.553 194.125 140.066 195.232C140.782 195.764 142.073 195.256 142.244 194.371C142.628 192.521 141.724 190.938 140.981 189.276C140.12 187.411 139.3 185.506 138.277 183.72C137.491 182.339 135.312 183.24 135.695 184.777Z" fill="#F27552"/>
<path d="M140.423 182.294C141.284 184.159 142.548 185.908 143.732 187.575C144.838 189.121 145.821 190.826 147.455 191.854C148.491 192.511 149.829 191.439 149.562 190.267C149.064 188.325 147.637 186.776 146.491 185.23C145.306 183.643 144.081 182.016 142.652 180.628C141.42 179.565 139.757 180.875 140.423 182.294Z" fill="#F27552"/>
<path d="M144.544 176.901C145.039 179.125 146.219 181.195 147.239 183.183C148.141 184.968 148.992 187.599 150.868 188.549C151.866 189.045 152.917 188.453 153.011 187.365C153.237 185.272 151.415 183.153 150.352 181.447C149.17 179.538 148.071 177.428 146.444 175.876C145.61 175.06 144.316 175.81 144.544 176.901Z" fill="#F27552"/>
<path d="M147.705 174.521C149.573 176.116 151.198 177.909 152.579 179.901C153.921 181.853 154.898 184.042 156.28 185.994C157.07 187.052 159.32 186.958 159.18 185.263C158.645 179.693 154.083 175.082 149.703 172.005C148.191 170.898 146.274 173.334 147.705 174.521Z" fill="#F27552"/>
<path d="M165.167 171.749C165.562 172.237 165.754 173.006 166.109 173.534C166.502 174.184 166.896 174.834 167.289 175.524C167.996 176.822 168.374 178.762 169.976 179.144C170.657 179.314 171.422 179.081 171.792 178.441C172.776 176.719 171.272 174.927 170.245 173.544C169.731 172.852 169.176 172.241 168.541 171.669C167.825 171.055 167.065 170.804 166.268 170.311C165.352 169.735 164.574 170.975 165.167 171.749Z" fill="#F27552"/>
<path d="M171.133 169.805C171.114 171.417 171.858 172.918 172.443 174.417C172.989 175.754 173.449 177.534 174.847 178.196C175.565 178.527 176.452 178.296 176.662 177.492C177.122 176.006 176.176 174.502 175.509 173.204C174.804 171.785 174.141 170.164 172.908 169.141C172.274 168.488 171.145 168.797 171.133 169.805Z" fill="#F27552"/>
<path d="M174.892 171.1C175.683 172.158 176.392 173.296 177.385 174.154C178.577 175.177 180.319 173.948 179.574 172.487C178.986 171.311 178.074 170.333 177.243 169.315C176.768 168.744 175.844 168.774 175.277 169.17C174.75 169.567 174.418 170.49 174.892 171.1Z" fill="#F27552"/>
<path d="M95.4808 186.185C94.4502 188.39 93.0984 190.591 92.7078 193.005C92.49 194.414 94.3634 195.565 95.2246 194.084C96.4555 191.922 96.8074 189.386 97.3185 186.973C97.5721 185.928 96.016 185.103 95.4808 186.185Z" fill="#F27552"/>
<path d="M91.8766 185.375C90.7372 186.611 90.0361 188.135 88.8576 189.29C87.6791 190.445 85.9046 191.068 85.0038 192.509C84.308 193.589 85.2188 194.648 86.2613 194.782C88.2659 195.048 90.2978 193.057 91.4391 191.66C92.7023 190.143 93.9302 188.222 93.7544 186.164C93.6442 185.316 92.5684 184.618 91.8766 185.375Z" fill="#F27552"/>
<path d="M125.345 203.762C128.188 204.441 130.753 204.875 133.686 204.709C136.54 204.542 139.438 203.973 142.218 203.2C147.779 201.614 153.109 199.139 157.176 194.955C158.64 193.441 156.822 190.959 154.963 191.985C150.436 194.43 145.908 196.955 140.99 198.508C136.153 200.022 130.762 200.804 125.697 201.266C124.37 201.371 123.824 203.421 125.345 203.762Z" fill="#F27552"/>
<path d="M136.406 142.574C138.16 140.338 140.351 138.469 143.053 137.494C144.263 137.065 145.472 136.757 146.757 136.692C148.164 136.629 149.682 137.292 151.013 136.784C152.344 136.276 152.803 134.83 151.853 133.69C149.676 131.083 143.836 132.585 141.251 133.763C137.981 135.256 135.216 138.085 134.37 141.622C134.032 142.989 135.632 143.532 136.406 142.574Z" fill="#F27552"/>
<path d="M143.484 138.427C143.487 138.144 143.491 137.862 143.494 137.62C143.411 137.821 143.408 138.023 143.446 138.225C143.445 138.346 143.484 138.386 143.483 138.507C143.484 138.386 143.446 138.225 143.448 138.104C143.447 138.144 143.447 138.144 143.447 138.184C143.448 138.063 143.49 137.903 143.492 137.782C143.491 137.822 143.491 137.822 143.45 137.862C143.492 137.741 143.574 137.621 143.615 137.501C143.615 137.541 143.575 137.541 143.574 137.581C143.656 137.461 143.737 137.381 143.819 137.262C143.778 137.301 143.778 137.342 143.738 137.341C143.859 137.262 143.941 137.182 144.062 137.103C143.778 137.301 143.657 137.421 143.452 137.701C143.452 137.741 143.412 137.74 143.411 137.781C143.493 137.701 143.574 137.581 143.656 137.501L143.615 137.541C143.696 137.462 143.818 137.382 143.899 137.303C143.778 137.382 143.696 137.462 143.575 137.541C143.494 137.62 143.412 137.74 143.371 137.821C143.248 137.98 143.206 138.141 143.204 138.343C143.16 138.624 143.196 138.988 143.354 139.231C143.512 139.435 143.67 139.638 143.909 139.762C144.029 139.844 144.188 139.927 144.349 139.929C144.589 140.012 144.79 140.015 145.031 139.977C145.232 139.94 145.434 139.902 145.636 139.783C145.757 139.704 145.879 139.584 146.001 139.505C146.244 139.266 146.408 138.986 146.533 138.665C146.533 138.625 146.533 138.625 146.574 138.585C146.616 138.465 146.618 138.263 146.619 138.142C146.62 138.061 146.621 137.981 146.583 137.859C146.584 137.779 146.585 137.698 146.546 137.577C146.43 137.172 146.193 136.847 145.834 136.641C145.516 136.435 145.035 136.349 144.632 136.465C144.269 136.582 143.905 136.819 143.7 137.179C143.453 137.62 143.328 138.062 143.484 138.427Z" fill="#F27552"/>
<path d="M106.66 148.423C104.533 144.97 100.129 143.869 96.3109 144.145C92.171 144.458 88.2545 146.225 85.446 149.335C83.1664 151.888 86.8942 155.763 89.1743 153.17C91.1289 150.936 93.7553 149.597 96.6911 149.23C99.627 148.862 102.347 149.701 105.191 150.3C106.232 150.554 107.289 149.479 106.66 148.423Z" fill="#F27552"/>
<path d="M97.1745 152.42C97.2553 152.381 97.3356 152.382 97.4164 152.343C97.6984 152.265 97.9413 152.107 98.1445 151.908C98.3477 151.709 98.5112 151.469 98.5949 151.188C98.7624 150.625 98.6096 149.978 98.1733 149.53C98.2467 150.095 98.3202 150.66 98.3535 151.225C98.4353 151.105 98.4774 150.944 98.519 150.824C98.5205 150.703 98.5621 150.583 98.5636 150.462C98.565 150.341 98.5263 150.219 98.5278 150.098C98.4509 149.815 98.2932 149.571 98.0548 149.367C97.9754 149.285 97.856 149.203 97.7355 149.202C97.616 149.12 97.4956 149.118 97.3751 149.117C97.2552 149.075 97.1347 149.074 97.0138 149.112C96.813 149.11 96.6515 149.189 96.4899 149.267C96.4497 149.267 96.4492 149.307 96.4091 149.307C96.8909 149.313 97.3326 149.318 97.8144 149.324L97.7747 149.283C97.5357 149.119 97.2155 149.034 96.9345 149.031C96.6936 149.028 96.4923 149.066 96.2901 149.184C96.0884 149.263 95.8862 149.381 95.7637 149.541C95.5606 149.74 95.397 149.98 95.3133 150.261C95.2722 150.341 95.2707 150.462 95.2697 150.543C95.186 150.824 95.1831 151.066 95.26 151.349C95.3374 151.592 95.4549 151.835 95.6532 152.039C96.0909 152.367 96.6511 152.535 97.1745 152.42Z" fill="#F27552"/>
<path d="M101.906 136.432C93.3578 129.353 80.4848 134.56 76.1147 143.941C75.0836 146.186 77.1412 148.711 79.5257 147.449C85.789 144.219 92.3237 141.799 99.2085 140.31C102.55 139.584 101.207 134.407 97.8652 135.173C90.5769 136.819 83.5575 139.475 77.0489 143.065C78.1991 144.248 79.3493 145.431 80.4599 146.574C81.9874 143.125 84.5114 140.293 87.9834 138.763C91.9401 136.996 96.5927 137.456 100.676 138.513C101.757 138.768 102.9 137.25 101.906 136.432Z" fill="#F27552"/>
<path d="M134.318 126.019C139.881 117.62 151.708 115.868 158.847 123.252C159.549 121.608 160.252 119.963 160.955 118.278C152.274 118.818 143.632 119.52 134.95 120.221C133.222 120.362 131.681 121.552 131.658 123.447C131.639 125.059 133.102 126.891 134.871 126.752C143.555 125.929 152.238 125.107 160.884 124.164C163.176 123.909 165.057 121.11 162.992 119.19C158.227 114.738 151.587 112.601 145.184 114.096C139.304 115.476 134.556 119.571 132.241 125.107C131.703 126.35 133.622 127.059 134.318 126.019Z" fill="#F27552"/>
<path d="M85.3429 84.868C87.2664 78.5616 93.4152 74.8463 99.7276 74.197C107.246 73.4413 114.304 77.5181 119.952 82.0616C132.081 91.844 142.22 106.803 159.323 107.091C167.473 107.23 175.305 103.857 178.492 95.9536C179.568 93.3058 175.581 90.9998 173.748 93.1144C169.675 97.8224 163.346 99.8826 157.248 99.4056C149.746 98.7907 143.221 93.7931 137.655 89.1297C126.166 79.5565 113.126 65.4089 96.5266 69.925C89.637 71.8171 83.3898 77.0229 82.6973 84.4731C82.5985 86.0039 84.9248 86.2337 85.3429 84.868Z" fill="#F27552"/>
<path d="M81.8791 72.4489C83.4499 72.0647 84.9486 70.9943 86.3632 70.2454C87.9393 69.4179 89.5948 68.6719 91.2884 68.0876C94.7168 66.839 98.3401 66.0765 101.956 65.9187C109.268 65.6041 116.152 67.5016 122.7 70.6852C125.095 71.8431 126.858 68.8004 124.79 67.203C118.384 62.2472 109.65 60.6497 101.73 61.3602C97.7906 61.7157 93.9244 62.6365 90.2521 64.1241C87.024 65.4155 82.3 67.5354 80.6138 70.8209C80.2026 71.6223 80.8724 72.6786 81.8791 72.4489Z" fill="#F27552"/>
<path d="M65.4687 81.2812C66.0726 74.5153 68.9877 69.2288 73.9823 64.6529C78.6925 60.3557 84.4755 56.9988 90.4064 54.6919C102.509 50.081 115.644 49.7562 128.135 52.8908C130.858 53.5689 131.949 49.631 129.35 48.7126C118.714 44.9554 107.068 45.016 96.2314 47.8683C85.6768 50.6433 74.8873 56.2377 67.996 64.9029C64.367 69.4551 61.3212 75.5866 62.8951 81.5725C63.2781 83.1092 65.3306 82.7309 65.4687 81.2812Z" fill="#F27552"/>
<path d="M177.002 129.479C178.953 134.22 179.611 139.59 179.228 144.665C179.085 146.477 182.011 146.956 182.394 145.147C183.632 139.114 182.497 133.376 179.145 128.255C178.279 126.874 176.377 128.02 177.002 129.479Z" fill="#F27552"/>
<path d="M183.301 126.612C185.084 131.955 185.338 137.482 185.07 143.083C185.017 144.13 186.62 144.351 186.874 143.346C188.469 137.6 187.699 131.544 185.758 125.997C185.175 124.458 182.758 125.073 183.301 126.612Z" fill="#F27552"/>
<path d="M58.9524 88.8221C54.0003 93.197 50.2778 98.8365 48.9139 105.351C48.5727 107 50.8139 107.632 51.395 106.067C53.6314 100.449 56.6273 95.1236 60.8562 90.7803C62.1165 89.5054 60.292 87.6288 58.9524 88.8221Z" fill="#F27552"/>
<path d="M59.438 98.4636C54.9556 103.852 51.7752 111.151 53.0544 118.262C53.241 119.434 54.8122 119.009 54.9444 118.043C55.7476 111.401 57.0665 105.289 61.1875 99.8959C61.9631 98.857 60.2532 97.4656 59.438 98.4636Z" fill="#F27552"/>
<path d="M60.5805 113.556C57.3203 120.814 56.0951 129.144 58.4516 136.833C58.8384 138.047 60.8474 137.951 60.7842 136.539C60.353 129.035 60.6817 121.782 62.8574 114.551C63.2348 113.225 61.1984 112.273 60.5805 113.556Z" fill="#F27552"/>
<path d="M63.4678 133.789C63.2932 138.262 63.1587 142.736 63.1849 147.211C63.204 148.945 65.8535 149.018 65.9151 147.244C66.0094 142.77 66.0234 138.295 65.9571 133.819C65.8959 132.246 63.5676 132.178 63.4678 133.789Z" fill="#F27552"/>
<path d="M134.289 227.939C144.682 228.549 154.597 225.484 162.314 218.32C163.898 216.847 161.597 214.481 159.974 215.913C153.033 222.038 143.629 225.956 134.315 225.762C132.91 225.745 132.884 227.882 134.289 227.939Z" fill="#F27552"/>
<path d="M118.966 166.835C114.341 164.038 108.018 168.88 109 174.012C109.528 176.84 111.799 178.319 114.485 178.715C115.888 178.933 117.333 178.951 118.65 179.652C120.006 180.394 121.118 181.456 122.433 182.238C128.335 185.656 135.325 182.112 140.386 178.706C145.083 175.537 149.088 169.78 146.307 163.941C143.683 158.466 134.889 158.4 133.008 164.546C131.963 167.96 137.325 169.476 138.29 166.061C138.584 165.057 140.11 164.995 140.907 165.528C142.341 166.473 142.113 168.768 141.574 170.133C140.745 172.259 138.719 173.767 136.858 174.954C134.754 176.259 132.529 177.603 130.15 178.38C127.53 179.235 125.568 178.768 123.337 177.249C121.425 175.977 119.589 175.027 117.304 174.757C115.499 174.574 112.203 174.817 112.96 172.004C113.673 169.472 116.721 169.832 118.655 169.291C119.743 168.981 119.962 167.452 118.966 166.835Z" fill="#F27552"/>
<path d="M124.83 143.523C127.699 148.678 129.839 154.348 130.973 160.167C131.275 161.743 133.969 161.453 133.788 159.838C133.024 153.257 130.766 147.384 126.734 142.135C125.864 140.995 124.161 142.345 124.83 143.523Z" fill="#F27552"/>
<path d="M161.442 131.105C162.736 130.395 164.069 129.685 165.364 128.895C166.133 128.42 165.464 127.283 164.656 127.677C163.322 128.386 162.028 129.136 160.734 129.846C159.926 130.32 160.633 131.579 161.442 131.105Z" fill="#F27552"/>
<path d="M161.826 135.907C164.321 135.413 166.738 134.797 169.119 133.859C170.37 133.35 169.95 131.53 168.582 131.796C166.086 132.29 163.707 133.108 161.326 134.047C160.196 134.476 160.578 136.134 161.826 135.907Z" fill="#F27552"/>
<path d="M160.215 63.2373C166.626 67.7497 171.284 74.3777 173.764 81.8259C174.307 83.4452 176.764 82.8298 176.302 81.1713C174.114 72.7993 168.698 65.7993 161.445 61.1961C160.131 60.2932 158.982 62.3354 160.215 63.2373Z" fill="#F27552"/>
<path d="M175.153 109.742C175.752 113.378 176.673 116.896 177.714 120.416C178.178 121.954 180.474 121.337 180.131 119.801C179.331 116.203 178.41 112.684 177.167 109.242C176.66 107.986 174.928 108.409 175.153 109.742Z" fill="#F27552"/>
<path d="M180.236 107.828C180.705 112.228 181.134 116.587 181.803 120.99C181.99 122.121 183.921 121.903 183.854 120.733C183.466 116.333 182.876 111.972 182.287 107.57C182.1 106.439 180.089 106.657 180.236 107.828Z" fill="#F27552"/>
<path d="M71.6534 150.902C68.86 152.763 68.1591 157.593 68.2018 160.697C68.2353 164.568 69.3978 168.05 71.7301 171.101C72.6791 172.322 74.5852 170.773 73.8375 169.514C72.2245 166.753 71.2583 163.637 71.217 160.411C71.1949 158.919 71.3736 157.43 71.7525 155.983C72.1309 154.577 72.8707 153.174 72.9691 151.684C73.017 151.039 72.2203 150.506 71.6534 150.902Z" fill="#F27552"/>
<path d="M66.7283 86.6988C73.0961 88.1063 79.6747 82.0578 78.228 75.509C77.9606 74.3769 76.0348 74.2327 75.819 75.4799C75.0377 80.3084 71.697 84.2593 66.7086 85.0053C65.864 85.116 65.887 86.5273 66.7283 86.6988Z" fill="#F27552"/>
</g>
<defs>
<clipPath id="clip0">
<rect x="3.12158" y="0.336975" width="251" height="252" transform="rotate(0.693472 3.12158 0.336975)" fill="white"/>
</clipPath>
</defs>
</svg>
