<svg width="193" height="15" viewBox="0 0 193 15" fill="none" xmlns="http://www.w3.org/2000/svg">
<path d="M2.78769 12.2492V2.10206L0.86499 0.606689H4.17631C4.17631 0.606689 6.31264 0.606689 8.23534 0.606689C10.5853 0.606689 11.9739 1.99525 11.9739 3.70424C11.9739 5.0928 11.333 6.26774 8.98306 6.90861C11.0126 7.12223 12.7216 8.08354 12.7216 10.3266C12.7216 12.0356 11.333 13.7446 8.44898 13.7446H0.971805L2.78769 12.2492ZM5.35129 1.568V6.58817C7.27399 6.58817 9.30351 6.48136 9.30351 4.13149C9.30351 3.17018 8.87624 2.20887 8.23534 1.88844C7.48762 1.568 6.63309 1.568 5.56492 1.568H5.35129ZM5.35129 7.44267V12.6765H6.95354C8.44898 12.6765 9.94441 11.9288 9.94441 10.113C9.94441 8.40398 8.5558 7.33586 6.20583 7.33586H5.35129V7.44267Z" fill="#EBC46D"/>
<path d="M22.1216 2.20899V12.1425L24.1511 13.6379H17.7421L19.6648 12.1425V2.10218L17.6353 0.713623H24.0443L22.1216 2.20899Z" fill="#EBC46D"/>
<path d="M37.076 1.67481H33.1238V6.48136H35.4737L37.1828 3.91787V10.113L35.4737 7.54948H33.1238V12.5697H37.8237L40.7077 8.40398L39.96 13.6378H28.6375L30.5601 12.1424V2.10206L28.6375 0.606689H39.7464L40.0668 5.52005L37.076 1.67481Z" fill="#EBC46D"/>
<path d="M57.3711 2.10218V13.9583L48.078 4.45205V12.2493L49.8939 13.6379H44.9804L46.7962 12.2493V2.42262L44.8735 0.713623H48.078L55.9825 8.83135V2.10218L54.1666 0.713623H59.0802L57.3711 2.10218Z" fill="#EBC46D"/>
<path d="M75.9572 2.31568L71.4709 12.8901L71.364 13.3173L70.83 14.5991L65.0618 2.10206L63.1392 0.606689H69.5482L67.9459 1.88844L71.4709 10.2198L74.889 1.88844L73.2868 0.606689H78.2003L75.9572 2.31568Z" fill="#EBC46D"/>
<path d="M90.6978 1.67481H86.7456V6.48136H89.0956L90.8046 3.91787V10.113L89.0956 7.54948H86.7456V12.5697H91.4455L94.3296 8.40398L93.5819 13.6378H82.2593L84.182 12.1424V2.10206L82.2593 0.606689H93.3682L93.6887 5.52005L90.6978 1.67481Z" fill="#EBC46D"/>
<path d="M110.993 2.10218V13.9583L101.7 4.45205V12.2493L103.516 13.6379H98.6024L100.418 12.2493V2.42262L98.4956 0.713623H101.7L109.605 8.83135V2.10218L107.789 0.713623H112.702L110.993 2.10218Z" fill="#EBC46D"/>
<path d="M129.472 1.99525V8.08354C129.472 11.0743 128.404 14.1718 124.238 14.1718C119.966 14.1718 118.791 11.822 118.791 8.51079V2.10206L116.975 0.713502H123.384L121.568 2.10206V8.93804C121.568 11.0743 122.209 12.7833 124.772 12.7833C126.802 12.7833 128.084 11.5015 128.084 7.86992V1.99525L126.375 0.606689H131.288L129.472 1.99525Z" fill="#EBC46D"/>
<path d="M143.893 1.67481H139.94V6.48136H142.29L143.999 3.91787V10.113L142.29 7.54948H139.94V12.5697H144.64L147.524 8.40398L146.777 13.6378H135.454L137.377 12.1424V2.10206L135.454 0.606689H146.563L146.883 5.52005L143.893 1.67481Z" fill="#EBC46D"/>
<path d="M161.838 12.2493L166.751 0.5H167.713L172.52 12.5698L173.908 13.7447H167.82L169.529 12.3562L168.674 9.89947H164.188L163.12 12.463L164.722 13.6379H160.449L161.838 12.2493ZM164.508 8.83135H168.247L166.431 4.13161L164.508 8.83135Z" fill="#EBC46D"/>
<path d="M190.572 1.99525V8.08354C190.572 11.0743 189.504 14.1718 185.338 14.1718C181.065 14.1718 179.89 11.822 179.89 8.51079V2.10206L177.967 0.606689H184.376L182.56 1.99525V8.83123C182.56 10.9675 183.201 12.6765 185.765 12.6765C187.794 12.6765 189.076 11.3947 189.076 7.76311V1.88844L187.474 0.713502H192.388L190.572 1.99525Z" fill="#EBC46D"/>
</svg>
