<svg width="352" height="283" viewBox="0 0 352 283" fill="none" xmlns="http://www.w3.org/2000/svg">
<path d="M145.878 263.701C162.221 256.011 178.67 248.747 195.334 241.591C211.997 234.541 228.661 227.705 245.431 221.19L270.64 211.363C274.912 209.761 279.078 208.159 283.351 206.663C287.624 205.168 291.896 203.779 296.169 202.391L309.094 198.439C313.473 197.157 317.746 195.875 322.125 194.7C326.505 193.525 330.884 192.35 335.264 191.282C339.643 190.214 344.023 189.146 348.509 188.292C348.723 188.292 348.83 188.398 348.936 188.505C348.936 188.612 348.936 188.826 348.723 188.826C344.557 190.641 340.391 192.35 336.225 193.953C332.059 195.662 327.787 197.264 323.621 198.866C315.182 202.07 306.744 205.275 298.305 208.372C294.033 209.868 289.867 211.47 285.594 212.858C281.321 214.354 277.049 215.742 272.776 217.238L259.958 221.51L247.247 225.89C230.263 231.871 213.386 238.066 196.509 244.475C179.632 250.777 162.861 257.399 146.198 264.128C145.984 264.235 145.878 264.128 145.771 263.915C145.664 263.915 145.771 263.701 145.878 263.701Z" fill="#EBC46D"/>
<path d="M147.373 282.18C213.493 253.447 281.215 228.239 350.005 206.77Z" fill="#0F288C"/>
<path d="M147.266 281.859C163.609 274.169 180.059 266.905 196.723 259.749C213.386 252.699 230.049 245.863 246.82 239.348L272.028 229.521C276.301 227.919 280.467 226.317 284.74 224.821C289.012 223.326 293.285 221.937 297.558 220.549L310.482 216.597C314.862 215.315 319.135 214.033 323.514 212.858C327.894 211.684 332.273 210.509 336.653 209.44C341.032 208.372 345.412 207.304 349.898 206.45C350.111 206.45 350.218 206.557 350.325 206.663C350.325 206.77 350.325 206.984 350.111 206.984C345.946 208.8 341.78 210.509 337.614 212.111C333.448 213.82 329.175 215.422 325.009 217.024C316.571 220.228 308.132 223.433 299.694 226.53C295.421 228.026 291.255 229.628 286.983 231.017C282.71 232.512 278.437 233.9 274.165 235.396L261.347 239.668L248.635 244.048C231.652 250.029 214.775 256.224 197.898 262.633C181.02 268.935 164.25 275.557 147.587 282.286C147.373 282.393 147.266 282.286 147.16 282.073C147.053 282.073 147.053 281.966 147.266 281.859Z" fill="#0F288C"/>
<path d="M285.274 84.4702C282.603 84.4702 280.467 82.334 280.467 79.7705C280.36 68.7688 280.253 55.7378 280.04 42.5999C279.933 29.462 279.826 16.4309 279.612 5.42923C279.612 2.75892 281.749 0.622681 284.312 0.515869C286.983 0.515869 289.119 2.65211 289.226 5.2156C289.333 16.2173 289.439 29.2483 289.653 42.3862C289.76 55.5241 289.867 68.5552 290.08 79.5569C290.187 82.2272 288.051 84.3634 285.274 84.4702C285.274 84.4702 285.38 84.4702 285.274 84.4702Z" fill="#0F288C"/>
<path d="M255.685 86.6064C253.015 86.6064 250.879 84.4702 250.879 81.9067L250.131 16.1104C250.131 13.4401 252.267 11.3038 254.831 11.197C254.831 11.197 254.831 11.197 254.938 11.197C257.608 11.197 259.744 13.3333 259.744 15.8968L260.492 81.6931C260.599 84.4702 258.463 86.6064 255.685 86.6064C255.685 86.6064 255.792 86.6064 255.685 86.6064Z" fill="#0F288C"/>
<path d="M255.472 56.4854C253.549 56.4854 251.626 55.3105 250.985 53.2811C250.131 50.8244 251.413 48.0473 253.869 47.086L282.176 36.9388C284.633 36.0843 287.41 37.3661 288.371 39.8227C289.226 42.2794 287.944 45.0565 285.487 46.0178L257.181 56.165C256.647 56.3786 256.006 56.4854 255.472 56.4854Z" fill="#0F288C"/>
<path d="M304.287 90.5585C303.86 90.5585 303.539 90.5586 303.112 90.4517C300.548 89.8109 298.946 87.1406 299.587 84.5771L315.716 20.383C316.251 18.3535 317.96 16.8582 320.096 16.7513C322.125 16.6445 324.155 17.8195 324.903 19.7421C332.487 39.0751 341.246 58.0877 350.966 76.4593C352.248 78.8092 351.286 81.6931 348.936 82.9749C346.587 84.2566 343.702 83.2953 342.421 80.9455C334.837 66.6326 327.787 51.8926 321.485 36.832L308.88 86.8201C308.346 89.17 306.423 90.5585 304.287 90.5585Z" fill="#0F288C"/>
<path d="M312.512 66.419C310.376 66.419 308.453 64.9236 307.812 62.7873C307.171 60.2238 308.666 57.5535 311.337 56.9127L333.021 51.4652C335.584 50.8244 338.255 52.3197 338.896 54.99C339.536 57.6604 338.041 60.2238 335.371 60.8647L313.687 66.3121C313.26 66.3121 312.939 66.419 312.512 66.419Z" fill="#0F288C"/>
<path d="M211.356 94.0832C210.288 94.0832 209.113 93.9764 208.045 93.8696C197.684 92.481 188.284 84.7905 183.691 74.0025C180.059 65.6711 179.098 55.524 180.914 43.8815C181.448 40.5703 182.195 36.2978 184.225 32.2389C189.459 21.2373 202.17 14.7217 214.347 16.7512C226.204 18.7806 236.138 28.5005 238.381 40.5703C238.915 43.1338 237.099 45.6973 234.536 46.2313C231.865 46.7654 229.408 44.9496 228.874 42.3861C227.379 34.3752 220.543 27.646 212.745 26.3643C204.84 25.0825 196.295 29.355 192.877 36.5114C191.488 39.3953 190.848 42.8133 190.42 45.3768C188.925 55.2035 189.673 63.5349 192.557 70.2641C195.868 77.9545 202.491 83.5088 209.434 84.3633C217.659 85.4314 226.417 79.6635 228.554 71.6526C229.195 69.0891 231.865 67.5938 234.429 68.2346C236.992 68.8755 238.488 71.5458 237.847 74.1093C234.642 85.645 223.213 94.0832 211.356 94.0832Z" fill="#0F288C"/>
<path d="M103.151 98.0354C100.481 98.0354 98.3443 95.8992 98.3443 93.3357C98.2375 82.334 98.1306 69.1961 97.917 56.0582C97.8102 43.0272 97.7034 29.9961 97.4897 18.9944C97.4897 16.3241 99.6261 14.1879 102.19 14.0811C104.86 13.9742 106.996 16.2173 107.103 18.7808C107.21 29.6756 107.317 42.8135 107.531 55.8446C107.637 68.9825 107.744 82.1204 107.958 93.1221C108.065 95.8992 105.928 98.0354 103.151 98.0354C103.151 98.0354 103.258 98.0354 103.151 98.0354Z" fill="#0F288C"/>
<path d="M73.5628 100.279C70.8924 100.279 68.756 98.1423 68.756 95.5788L68.0083 29.7825C68.0083 27.1122 70.1446 24.976 72.7082 24.8691C72.7082 24.8691 72.7082 24.8691 72.8151 24.8691C75.4855 24.8691 77.6218 27.0054 77.6218 29.5689L78.3695 95.3652C78.4764 98.0355 76.34 100.279 73.5628 100.279C73.5628 100.279 73.6696 100.279 73.5628 100.279Z" fill="#0F288C"/>
<path d="M73.3491 70.0506C71.4264 70.0506 69.5037 68.8757 68.8628 66.8463C68.0082 64.3896 69.29 61.6125 71.7468 60.6511L100.053 50.504C102.51 49.6495 105.287 50.9312 106.249 53.3879C107.21 55.8446 105.821 58.6217 103.365 59.583L75.0581 69.7302C74.5241 69.9438 73.8832 70.0506 73.3491 70.0506Z" fill="#0F288C"/>
<path d="M31.9042 105.192C30.836 105.192 29.661 105.085 28.5929 104.978C18.2316 103.59 8.83175 95.8992 4.23863 85.1111C0.606855 76.7798 -0.354497 66.6326 1.46139 54.9901C1.99547 51.6789 2.74319 47.4064 4.77271 43.3476C10.0067 32.3459 22.7179 25.8304 34.895 27.8598C46.7517 29.8892 56.6857 39.6091 58.9288 51.6789C59.4629 54.2424 57.647 56.8059 55.0834 57.2332C52.5198 57.7672 49.9562 55.9514 49.4221 53.3879C47.9267 45.377 41.0904 38.6478 33.2928 37.3661C25.3884 36.0843 16.843 40.3568 13.4249 47.5132C12.0363 50.3972 11.3954 53.8152 10.9681 56.3787C9.47265 66.2054 10.2204 74.5367 13.1044 81.2659C16.4157 88.9564 23.0384 94.5106 29.9815 95.3651C38.2064 96.54 46.9653 90.6654 49.1017 82.6544C49.7426 80.091 52.413 78.5956 54.9766 79.2365C57.5402 79.8773 59.0356 82.5476 58.3947 85.1111C55.1902 96.7536 43.7608 105.192 31.9042 105.192Z" fill="#0F288C"/>
<path d="M210.929 121C197.043 121 183.691 115.873 174.505 106.687C169.591 101.774 166.066 96.1128 162.862 90.6654C154.423 75.9253 147.694 60.2239 142.78 43.9884C137.867 60.4375 133.38 76.9934 129.428 93.6561C128.787 96.2196 126.224 97.8218 123.66 97.1809C121.096 96.54 119.494 93.9765 120.135 91.413C125.476 69.0893 131.671 46.7656 138.614 24.9759C139.255 22.9464 141.285 21.5579 143.421 21.6647C145.557 21.7715 147.48 23.2669 147.907 25.4031C152.607 46.6587 160.405 67.0599 171.193 85.8588C173.971 90.7722 177.175 95.7923 181.234 99.8512C189.566 108.183 202.277 112.348 215.202 111.173C226.952 110.105 239.129 104.551 249.276 95.5787C251.306 93.8697 254.297 93.9765 256.113 96.006C257.822 98.0354 257.715 101.026 255.685 102.842C244.042 113.203 229.943 119.611 216.163 120.893C214.347 120.893 212.638 121 210.929 121Z" fill="#0F288C"/>
<path d="M133.06 73.5754C130.389 73.5754 128.253 71.4391 128.253 68.8757C128.253 66.2053 130.389 64.0691 132.953 63.9623C140.11 63.8555 147.266 63.1078 154.316 61.7192C156.88 61.1852 159.443 62.8942 159.978 65.5645C160.512 68.128 158.803 70.6915 156.132 71.2255C148.655 72.6141 140.857 73.4686 133.06 73.5754Z" fill="#0F288C"/>
<path d="M153.034 192.564C147.907 193.632 143.848 198.118 142.673 203.245C142.353 204.527 142.246 205.809 142.353 207.091C142.353 207.731 142.46 208.372 142.566 209.013C142.673 209.334 142.78 209.654 142.78 209.975C142.887 210.295 142.994 210.615 143.101 210.829C144.062 213.179 145.771 215.208 147.907 216.704C152.18 219.588 157.734 220.549 162.755 219.481C165.212 218.947 167.668 217.879 169.912 216.49C172.155 215.102 174.184 213.393 175.893 211.577C179.525 207.731 182.409 203.245 184.759 198.546C187.216 193.846 189.139 188.826 190.634 183.806C192.129 178.679 193.091 173.552 193.625 168.211C193.838 165.541 194.052 162.977 193.945 160.307C193.945 159.025 193.838 157.637 193.838 156.355L193.732 154.432C193.732 153.791 193.625 153.044 193.518 152.51C193.198 150.16 192.236 147.703 190.848 146.208C190.527 145.78 190.1 145.567 189.779 145.353C189.459 145.246 189.139 145.033 188.711 145.14C187.964 145.14 187.216 145.567 186.682 146.208C186.041 146.955 185.614 148.023 185.293 149.198C184.973 150.373 184.759 151.655 184.545 152.937C184.332 154.219 184.118 155.5 183.905 156.782C183.798 158.064 183.584 159.346 183.477 160.734C183.05 165.968 183.157 171.202 183.905 176.436C184.545 181.669 185.72 186.796 187.429 191.71C188.284 194.166 189.245 196.623 190.314 198.973C191.382 201.216 192.663 203.459 194.159 205.168C195.761 206.877 197.577 207.945 199.5 208.052C201.422 208.159 203.345 207.411 205.161 205.916C206.977 204.527 208.579 202.604 210.075 200.575C211.57 198.546 212.959 196.303 214.134 194.06C216.484 189.573 218.193 184.66 219.154 179.64C219.475 178.145 220.97 177.076 222.465 177.397C223.854 177.717 224.815 178.892 224.815 180.281C224.709 182.631 224.709 184.874 224.922 186.903C225.136 188.933 225.67 190.748 226.738 192.137C227.699 193.525 229.195 194.594 230.583 194.807C231.865 195.021 233.147 194.594 234.536 193.419C235.924 192.244 237.206 190.535 238.488 188.612C239.77 186.796 240.945 184.874 242.12 182.951C244.363 178.999 246.072 174.94 247.46 170.668C247.995 168.959 249.917 167.891 251.626 168.531C253.229 169.065 254.19 170.668 253.87 172.27V172.377C253.549 174.299 253.335 176.222 253.442 178.145C253.442 180.067 253.763 181.883 254.297 183.378C254.831 184.874 255.579 185.942 256.54 186.262C256.647 186.262 256.754 186.369 256.86 186.476C256.967 186.476 257.181 186.583 257.288 186.583C257.394 186.583 257.608 186.689 257.715 186.689C257.822 186.689 257.929 186.689 258.142 186.689C258.676 186.689 259.21 186.583 259.851 186.262C261.133 185.728 262.522 184.66 263.697 183.271C264.978 181.99 266.153 180.281 267.435 178.679C269.785 175.367 271.922 171.843 273.631 168.104C277.156 160.734 279.506 152.723 280.36 144.605C280.787 140.547 281.001 136.488 280.787 132.429L280.574 129.331C280.467 128.37 280.36 127.729 280.253 127.516C280.253 127.409 280.253 127.409 280.253 127.516C280.253 127.516 280.36 127.516 280.253 127.516C280.146 127.516 279.719 127.409 279.292 127.622C279.078 127.729 278.865 127.729 278.758 127.836C278.651 127.943 278.437 128.156 278.224 128.37C277.903 128.797 277.476 129.438 277.156 130.186C276.515 131.681 276.087 133.817 275.66 135.847C274.806 139.906 274.272 143.965 274.058 148.13C273.631 156.355 274.272 164.793 276.194 172.911C276.621 174.94 277.262 176.97 277.903 178.892C278.544 180.922 279.185 182.737 280.04 184.019C281.001 185.301 282.069 186.155 283.565 186.369C285.06 186.583 286.769 186.262 288.371 185.515C289.974 184.767 291.362 183.485 292.43 182.097C292.858 181.456 293.392 180.494 293.712 179.64C294.033 178.785 294.353 177.824 294.567 176.863C295.421 173.018 295.101 168.745 294.78 164.473V164.366C294.674 163.618 295.314 162.87 296.062 162.764C300.976 161.909 305.782 159.773 309.735 156.568C313.687 153.364 316.998 149.198 319.028 144.392C319.135 144.178 319.348 144.071 319.562 144.178C319.775 144.285 319.882 144.499 319.775 144.605C318.173 149.732 315.076 154.432 311.123 158.064C307.171 161.802 302.151 164.579 296.703 165.861L297.985 164.152C298.626 168.425 299.16 172.911 298.519 177.61C298.198 179.96 297.451 182.203 296.169 184.446C294.78 186.583 292.964 188.398 290.721 189.68C288.478 190.962 285.915 191.71 283.03 191.389C280.253 191.176 277.476 189.36 275.874 187.224C274.272 185.087 273.417 182.737 272.669 180.708C271.922 178.572 271.281 176.542 270.64 174.299C268.29 165.754 267.115 156.782 267.435 147.81C267.542 143.324 267.969 138.838 268.824 134.458C269.251 132.215 269.572 130.079 270.533 127.622C270.96 126.341 271.601 125.059 272.669 123.777C273.203 123.136 273.737 122.602 274.485 121.961C275.233 121.427 275.981 121 276.728 120.68C278.331 120.039 280.146 119.825 282.176 120.252C283.137 120.466 284.205 121 285.06 121.641C285.915 122.389 286.662 123.243 287.09 124.098C287.944 125.807 288.158 127.302 288.265 128.477L288.585 131.895C288.905 136.381 288.799 140.974 288.265 145.46C287.73 149.946 286.876 154.432 285.594 158.812C284.312 163.191 282.603 167.356 280.681 171.415C278.651 175.474 276.301 179.426 273.631 183.058C272.242 184.874 270.96 186.689 269.251 188.398C267.542 190.107 265.513 191.816 262.735 192.991C261.347 193.525 259.744 193.846 258.142 193.846C257.715 193.846 257.288 193.846 256.967 193.739C256.54 193.739 256.219 193.632 255.792 193.525L254.617 193.205C254.19 193.098 253.87 192.885 253.549 192.671C252.801 192.351 252.16 191.816 251.52 191.282C251.199 190.962 250.985 190.748 250.665 190.428C250.345 190.107 250.131 189.894 249.917 189.573L249.276 188.612C249.063 188.292 248.956 187.971 248.742 187.651C248.422 187.01 248.208 186.369 247.888 185.728C247.033 183.165 246.82 180.708 246.82 178.251C246.82 175.795 247.14 173.552 247.567 171.202L254.083 172.911C252.481 177.61 250.451 182.097 247.888 186.369C246.606 188.505 245.324 190.535 243.829 192.564C242.333 194.487 240.838 196.623 238.595 198.439C237.42 199.293 236.138 200.148 234.536 200.682C232.933 201.216 231.118 201.323 229.515 201.002C226.204 200.255 223.747 198.225 222.038 195.769C221.184 194.594 220.543 193.098 220.115 191.816C219.688 190.428 219.475 189.146 219.261 187.758C218.94 185.087 219.154 182.631 219.261 180.281L224.922 180.922C223.747 186.476 221.824 191.816 219.047 196.837C217.659 199.293 216.163 201.643 214.454 203.993C212.745 206.236 210.822 208.479 208.366 210.295C207.084 211.256 205.695 212.004 204.2 212.645C202.597 213.179 200.888 213.499 199.179 213.286C197.47 213.179 195.761 212.538 194.373 211.684C192.984 210.829 191.702 209.761 190.741 208.586C188.711 206.236 187.323 203.673 186.148 201.109C185.08 198.546 184.011 195.982 183.264 193.312C181.555 188.078 180.486 182.631 179.845 177.076C179.205 171.629 179.205 166.075 179.739 160.52C179.845 159.132 180.059 157.743 180.166 156.355C180.38 154.966 180.593 153.578 180.914 152.296C181.448 149.732 181.875 146.635 184.011 143.858C184.545 143.217 185.293 142.576 186.148 142.149C187.002 141.722 187.964 141.508 188.925 141.401C189.886 141.294 190.954 141.615 191.809 142.042C192.663 142.469 193.304 143.11 193.945 143.644C195.12 144.926 195.761 146.314 196.295 147.703C196.829 149.092 197.15 150.587 197.363 152.082C197.47 152.83 197.47 153.471 197.47 154.219L197.577 156.248C197.577 157.637 197.684 159.025 197.577 160.414C197.577 163.191 197.363 165.861 197.043 168.638C196.402 174.086 195.227 179.426 193.625 184.66C191.916 189.894 189.886 194.914 187.216 199.721C184.652 204.527 181.555 209.12 177.602 213.072C175.68 214.995 173.436 216.811 171.086 218.199C168.737 219.588 166.066 220.763 163.289 221.19C157.734 222.258 151.859 221.083 147.266 217.772C145.023 216.17 143.207 213.82 142.139 211.149C142.032 210.829 141.926 210.509 141.819 210.188C141.712 209.868 141.605 209.547 141.498 209.12C141.391 208.372 141.285 207.731 141.285 206.984C141.178 205.595 141.391 204.207 141.712 202.818C142.46 200.148 143.848 197.584 145.771 195.662C147.694 193.632 150.257 192.244 152.928 191.71C153.141 191.71 153.355 191.816 153.355 192.03C153.355 192.351 153.248 192.457 153.034 192.564Z" fill="#0F288C"/>
</svg>
