<svg width="1440" height="900" viewBox="0 0 1440 900" fill="none" xmlns="http://www.w3.org/2000/svg">
<g clip-path="url(#clip0)">
<path d="M852.976 115.998L829.704 126.546L834.038 105.802L827.245 95.7948L808.023 91.5599L824.329 73.3816C824.329 73.3816 840.529 53.2675 861.082 65.2575C861.082 65.2575 865.062 53.6342 859.494 44.9565C853.926 36.2788 842.366 16.7014 855.655 18.9528C868.88 21.1471 880.958 45.7932 880.958 45.7932C880.958 45.7932 878.613 29.4166 875.851 23.2563C873.09 17.0959 877.227 8.37654 885.902 16.1574C894.576 23.9383 904.667 44.3843 907.627 47.5001C916.827 57.1334 925.204 50.4895 926.494 45.2013C927.784 39.9131 922.04 32.4585 915.688 27.2212C909.336 21.9839 899.262 7.42264 902.668 3.11167C906.075 -1.1993 917.075 -4.22371 952.831 27.3885C952.831 27.3885 953.255 21.7832 933.493 3.13664C913.732 -15.5099 932.76 -23.7638 936.992 -21.8093C941.225 -19.8548 978.297 -8.70126 994.862 18.1282C994.862 18.1282 986.322 -8.40896 965.127 -23.2765C943.933 -38.144 926.374 -34.096 920.859 -41.8057C915.343 -49.5155 919.045 -56.2089 931.729 -53.9245C944.413 -51.6402 970.188 -47.3971 992.471 -21.4242C1014.82 4.60582 1024.91 29.5418 1023.53 44.4215C1022.16 59.3012 1020.49 68.7362 1000.52 93.302C976.631 122.632 952.863 130.779 931.44 135.158C910.118 139.168 878.651 136.265 852.976 115.998Z" fill="#0F288C"/>
<path d="M1196.71 75.0886L1178.14 51.753L1202.85 50.7493L1212.24 40.2103L1211.56 17.2489L1236.78 30.525C1236.78 30.525 1264.16 43.1306 1256.44 69.8079C1256.44 69.8079 1270.73 71.0015 1278.97 62.2276C1287.2 53.4537 1306.07 34.7929 1307.3 50.4747C1308.59 66.068 1284.14 86.7589 1284.14 86.7589C1284.14 86.7589 1302 79.439 1308.19 74.5586C1314.37 69.6781 1325.42 71.8774 1319.09 83.9117C1312.75 95.9461 1292.48 113.191 1289.8 117.429C1281.52 130.585 1291.42 138.173 1297.78 138.127C1304.13 138.081 1310.93 129.456 1315.05 120.775C1319.17 112.094 1332.78 96.544 1338.63 99.1714C1344.48 101.799 1351.03 113.387 1325.44 162.861C1325.44 162.861 1331.9 161.744 1347.38 134.066C1362.85 106.388 1377.62 125.573 1376.61 130.92C1375.6 136.267 1373.54 181.402 1347.89 207.794C1347.89 207.794 1375.5 190.568 1386.29 162.345C1397.07 134.122 1387.49 115.402 1394.65 106.964C1401.8 98.5251 1410.43 100.808 1411.46 115.815C1412.49 130.821 1415.03 161.202 1391.98 193.821C1368.88 226.528 1343.54 245.053 1326.3 247.734C1309.07 250.415 1297.92 251.211 1264.43 235.614C1224.42 216.93 1208.43 192.351 1197.37 169.351C1186.76 146.361 1181.08 109.92 1196.71 75.0886Z" fill="#0F288C"/>
<path d="M64.5627 222.307L52.9488 212.645L65.103 209.601L68.6749 203.406L65.9705 192.088L79.8472 196.074C79.8472 196.074 94.7268 199.506 93.6487 213.533C93.6487 213.533 100.859 212.652 104.04 207.452C107.221 202.252 114.655 191.052 116.884 198.703C119.128 206.305 109.131 219.087 109.131 219.087C109.131 219.087 117.238 213.616 119.804 210.558C122.369 207.499 128.075 207.452 126.173 214.074C124.27 220.696 115.995 231.338 115.101 233.716C112.348 241.095 118.044 243.838 121.19 243.161C124.336 242.483 126.821 237.505 127.969 232.774C129.117 228.044 134.266 218.929 137.438 219.629C140.61 220.33 145.056 225.402 137.459 252.579C137.459 252.579 140.551 251.358 145.375 236.036C150.198 220.713 159.497 228.708 159.549 231.463C159.601 234.219 163.228 256.819 153.227 272.552C153.227 272.552 165.142 261.164 167.586 246.053C170.029 230.943 163.347 222.645 166.027 217.722C168.706 212.8 173.222 213.043 175.278 220.38C177.334 227.718 181.724 242.525 173.653 261.079C165.568 279.682 154.904 291.482 146.633 294.587C138.361 297.693 132.91 299.237 114.692 294.952C92.9256 289.805 82.4612 279.262 74.6058 268.993C66.9732 258.683 60.4018 241.194 64.5627 222.307Z" fill="#0F288C"/>
<path d="M876.586 662.438L864.093 645.413L881.607 645.385L888.542 638.188L888.694 621.922L906.172 632.012C906.172 632.012 925.197 641.689 919.001 660.352C919.001 660.352 929.079 661.591 935.148 655.61C941.218 649.63 955.081 636.947 955.524 648.077C956.001 659.146 938.127 673.111 938.127 673.111C938.127 673.111 950.971 668.425 955.483 665.143C959.995 661.861 967.751 663.722 962.935 672.062C958.12 680.403 943.304 692.045 941.288 694.969C935.064 704.05 941.864 709.693 946.36 709.836C950.856 709.979 955.907 704.064 959.061 698.035C962.214 692.006 972.274 681.379 976.341 683.4C980.407 685.42 984.727 693.801 965.251 728.101C965.251 728.101 969.856 727.489 981.57 708.332C993.285 689.176 1003.2 703.159 1002.34 706.914C1001.48 710.67 998.774 742.55 979.897 760.515C979.897 760.515 999.904 749.089 1008.32 729.417C1016.73 709.745 1010.47 696.235 1015.76 690.461C1021.06 684.688 1027.1 686.542 1027.42 697.189C1027.73 707.835 1028.69 729.403 1011.48 751.846C994.232 774.351 975.784 786.759 963.516 788.18C951.249 789.601 943.334 789.856 920.067 777.894C892.279 763.568 881.643 745.735 874.453 729.155C867.579 712.594 864.568 686.652 876.586 662.438Z" fill="#0F288C"/>
<path d="M572.377 647.412L575.431 668.307L559.948 660.12L550.447 663.226L542.687 677.523L531.98 660.416C531.98 660.416 519.712 642.949 533.935 629.369C533.935 629.369 525.614 623.55 517.449 625.987C509.284 628.424 491.092 633.127 495.92 623.088C500.687 613.087 523.023 609.132 523.023 609.132C523.023 609.132 509.481 607.249 503.957 608.033C498.433 608.817 492.455 603.537 500.618 598.428C508.782 593.318 527.327 589.981 530.479 588.343C540.233 583.24 536.873 575.068 532.968 572.834C529.064 570.599 521.83 573.456 516.218 577.303C510.605 581.15 496.737 585.82 494.093 582.128C491.448 578.437 491.562 569.009 524.846 547.844C524.846 547.844 520.491 546.225 501.163 557.654C481.834 569.083 479.632 552.083 482.152 549.169C484.672 546.255 502.009 519.365 527.105 512.346C527.105 512.346 504.077 513.058 487.422 526.49C470.767 539.921 469.966 554.791 462.581 557.408C455.197 560.025 450.728 555.554 455.443 546.003C460.159 536.453 469.424 516.953 495.147 505.198C520.931 493.404 543.043 491.093 554.545 495.59C566.047 500.086 573.157 503.572 588.101 525.045C605.929 550.727 606.963 571.466 605.54 589.482C603.848 607.332 594.345 631.658 572.377 647.412Z" fill="#0F288C"/>
<path d="M1326.74 362.094L1330.53 347.472L1338.46 357.173L1345.59 357.766L1354.68 350.5L1356.98 364.753C1356.98 364.753 1360.21 379.677 1347.06 384.675C1347.06 384.675 1350.93 390.824 1356.99 391.488C1363.05 392.151 1376.35 394.109 1370.37 399.384C1364.45 404.651 1348.63 401.048 1348.63 401.048C1348.63 401.048 1357.03 406.055 1360.89 407.073C1364.75 408.092 1367.22 413.235 1360.42 414.333C1353.62 415.432 1340.47 412.476 1337.93 412.68C1330.08 413.331 1330.03 419.652 1331.98 422.211C1333.93 424.769 1339.5 424.897 1344.26 423.922C1349.03 422.946 1359.47 423.723 1360.19 426.892C1360.91 430.06 1358.21 436.243 1330.39 440.942C1330.39 440.942 1332.81 443.219 1348.73 441.059C1364.64 438.899 1361.37 450.717 1358.9 451.937C1356.43 453.158 1337.52 466.063 1319.03 463.713C1319.03 463.713 1334.41 469.645 1349.12 465.422C1363.83 461.199 1368.49 451.619 1374.09 451.947C1379.68 452.275 1381.39 456.465 1375.62 461.45C1369.86 466.434 1358.33 476.712 1338.11 477.31C1317.83 477.916 1302.61 473.292 1296.28 467.13C1289.95 460.968 1286.23 456.694 1282.35 438.385C1277.74 416.499 1282.82 402.541 1288.77 391.061C1294.85 379.765 1307.88 366.372 1326.74 362.094Z" fill="#0F288C"/>
<path d="M1354.48 745.245L1345.87 721.098L1366.25 727.158L1376.82 721.198L1382.65 702.331L1399.47 720.147C1399.47 720.147 1418.24 738.018 1404.54 757.571C1404.54 757.571 1415.83 762.518 1424.97 757.672C1434.11 752.827 1454.64 742.897 1451.29 755.997C1447.99 769.038 1422.35 779.064 1422.35 779.064C1422.35 779.064 1438.92 778.081 1445.31 775.832C1451.69 773.584 1460.07 778.446 1451.57 786.472C1443.07 794.498 1421.78 802.886 1418.42 805.587C1408.02 813.984 1413.97 822.912 1419.15 824.642C1424.33 826.373 1432.26 821.249 1438.03 815.334C1443.79 809.418 1459.19 800.557 1463.22 804.321C1467.24 808.086 1469.35 819.336 1434.77 852.458C1434.77 852.458 1440.34 853.348 1460.63 835.14C1480.91 816.932 1487.58 836.645 1485.28 840.714C1482.97 844.783 1468.74 880.922 1440.53 895.253C1440.53 895.253 1467.78 888.922 1484.4 868.967C1501.03 849.012 1498.45 831.12 1506.61 826.246C1514.78 821.373 1521.17 825.631 1517.83 838.123C1514.49 850.616 1508.1 876.034 1480.28 896.153C1452.39 916.332 1426.62 924.347 1411.86 921.733C1397.09 919.119 1387.8 916.663 1364.9 894.658C1337.56 868.331 1331.39 843.889 1328.79 822.104C1326.56 800.451 1332.08 769.23 1354.48 745.245Z" fill="#0F288C"/>
<path d="M72.903 791.638L58.5966 770.365L79.8422 771.203L88.6135 762.818L89.607 743.095L110.305 756.205C110.305 756.205 132.901 768.889 124.456 791.219C124.456 791.219 136.618 793.224 144.278 786.272C151.938 779.319 169.386 764.625 169.369 778.148C169.397 791.599 147.02 807.648 147.02 807.648C147.02 807.648 162.833 802.604 168.469 798.847C174.105 795.09 183.421 797.734 177.165 807.611C170.909 817.488 152.357 830.872 149.766 834.319C141.765 845.024 149.732 852.207 155.179 852.604C160.626 853.002 167.046 846.078 171.172 838.922C175.297 831.766 188.029 819.377 192.861 822.03C197.693 824.684 202.515 835.065 177.183 875.701C177.183 875.701 182.8 875.188 197.963 852.534C213.126 829.88 224.457 847.335 223.227 851.847C221.997 856.36 217.127 894.895 193.336 915.748C193.336 915.748 218.173 902.884 229.358 879.441C240.544 855.998 233.618 839.298 240.329 832.559C247.04 825.819 254.279 828.369 254.128 841.299C253.977 854.229 254.066 880.437 232.073 906.804C210.035 933.244 187.04 947.376 172.089 948.489C157.138 949.602 147.524 949.517 119.898 933.85C86.9045 915.089 74.8907 892.928 66.9947 872.459C59.4812 852.029 57.1199 820.412 72.903 791.638Z" fill="#0F288C"/>
</g>
<defs>
<clipPath id="clip0">
<rect width="1440" height="900" fill="white"/>
</clipPath>
</defs>
</svg>
