<svg width="1440" height="900" viewBox="0 0 1440 900" fill="none" xmlns="http://www.w3.org/2000/svg">
<g clip-path="url(#clip0)">
<path d="M365.76 121.709L373.399 104.331L381.293 117.954L390.014 120.118L402.745 112.925V131.067C402.745 131.067 403.764 150.228 386.449 153.793C386.449 153.793 390.014 162.196 397.398 164.233C404.782 166.27 420.888 171.363 412.421 176.71C404.019 182.057 385.112 174.418 385.112 174.418C385.112 174.418 394.534 182.312 399.117 184.349C403.7 186.386 405.737 193.261 397.08 193.261C388.422 193.261 372.699 186.959 369.516 186.704C359.649 185.94 358.312 193.77 360.222 197.335C362.132 200.9 369.007 202.173 375.118 201.918C381.229 201.664 394.024 204.719 394.279 208.793C394.534 212.868 389.95 219.997 354.493 220.252C354.493 220.252 357.039 223.562 377.219 224.071C397.398 224.581 390.969 238.585 387.658 239.604C384.348 240.622 358.312 252.845 335.841 246.224C335.841 246.224 353.729 256.664 372.826 254.372C391.924 252.081 399.626 241.132 406.501 242.659C413.376 244.187 414.649 249.725 406.501 254.754C398.353 259.783 381.993 270.223 356.784 266.913C331.512 263.603 313.561 254.818 306.94 245.906C300.32 236.994 296.564 230.946 295.418 207.457C294.081 179.383 303.184 163.087 312.86 150.037C322.664 137.242 341.507 123.237 365.76 121.709Z" fill="#0F288C"/>
<path d="M1243.55 734.626L1242.71 764.435L1223.16 749.275L1209.19 751.28L1194.91 769.276L1184.19 742.871C1184.19 742.871 1171.38 715.586 1194.47 700.161C1194.47 700.161 1184.32 690.039 1172.37 691.44C1160.41 692.84 1133.96 694.949 1143.12 682.162C1152.19 669.412 1184.23 669.353 1184.23 669.353C1184.23 669.353 1165.85 663.434 1157.97 663.179C1150.1 662.923 1143.07 654.121 1155.67 649.004C1168.27 643.886 1194.88 643.763 1199.66 642.252C1214.47 637.531 1211.79 625.345 1206.9 621.285C1202.02 617.226 1191.26 619.437 1182.52 623.42C1173.77 627.404 1153.34 630.52 1150.56 624.741C1147.78 618.962 1150.24 605.876 1201.7 584.545C1201.7 584.545 1196.03 581.232 1166.36 592.42C1136.69 603.608 1137.77 579.425 1141.99 575.986C1146.2 572.546 1176.87 539.366 1213.49 535.718C1213.49 535.718 1181.28 531.098 1154.84 545.723C1128.4 560.348 1123.66 580.837 1112.75 582.677C1101.85 584.518 1096.72 577.21 1105.6 565.074C1114.49 552.938 1132.13 528.072 1170.78 517.988C1209.51 507.866 1240.83 510.039 1255.74 519.096C1270.64 528.153 1279.68 534.735 1295.24 568.245C1313.78 608.313 1310.16 637.412 1303.8 662.125C1297.09 686.543 1277.95 718.065 1243.55 734.626Z" fill="#0F288C"/>
<path d="M1175.26 280.909L1195.42 296.605L1175.04 302.417L1169.34 313.084L1174.53 332.07L1150.85 326.09C1150.85 326.09 1125.51 321.104 1126.57 297.333C1126.57 297.333 1114.43 299.215 1109.33 308.181C1104.24 317.146 1092.29 336.485 1088.1 323.674C1083.89 310.946 1100.09 288.79 1100.09 288.79C1100.09 288.79 1086.69 298.484 1082.52 303.793C1078.35 309.103 1068.7 309.496 1071.56 298.198C1074.41 286.9 1087.82 268.457 1089.2 264.388C1093.45 251.763 1083.67 247.438 1078.39 248.755C1073.11 250.072 1069.18 258.625 1067.5 266.684C1065.82 274.743 1057.61 290.433 1052.21 289.423C1046.81 288.412 1039.02 280.081 1050.37 233.725C1050.37 233.725 1045.21 235.957 1037.9 262.123C1030.58 288.29 1014.42 275.284 1014.19 270.628C1013.95 265.973 1006.58 227.967 1022.62 200.824C1022.62 200.824 1003.1 220.726 999.801 246.404C996.497 272.082 1008.25 285.742 1003.99 294.211C999.727 302.679 992.08 302.515 988.203 290.224C984.326 277.933 976.094 253.142 988.723 221.336C1001.37 189.447 1018.75 168.915 1032.57 163.213C1046.38 157.511 1055.51 154.602 1086.54 160.849C1123.62 168.358 1141.88 185.609 1155.72 202.537C1169.19 219.548 1181.26 248.754 1175.26 280.909Z" fill="#0F288C"/>
<path d="M852.976 115.998L829.704 126.546L834.038 105.802L827.245 95.7948L808.023 91.5599L824.329 73.3816C824.329 73.3816 840.529 53.2675 861.082 65.2575C861.082 65.2575 865.062 53.6342 859.494 44.9565C853.926 36.2788 842.366 16.7014 855.655 18.9528C868.88 21.1471 880.958 45.7932 880.958 45.7932C880.958 45.7932 878.613 29.4166 875.851 23.2563C873.09 17.0959 877.227 8.37654 885.902 16.1574C894.576 23.9383 904.667 44.3843 907.627 47.5001C916.827 57.1334 925.204 50.4895 926.494 45.2013C927.784 39.9131 922.04 32.4585 915.688 27.2212C909.336 21.9839 899.262 7.42264 902.668 3.11167C906.075 -1.1993 917.075 -4.22371 952.831 27.3885C952.831 27.3885 953.255 21.7832 933.493 3.13664C913.732 -15.5099 932.76 -23.7638 936.992 -21.8093C941.225 -19.8548 978.297 -8.70126 994.862 18.1282C994.862 18.1282 986.322 -8.40896 965.127 -23.2765C943.933 -38.144 926.374 -34.096 920.859 -41.8057C915.343 -49.5155 919.045 -56.2089 931.729 -53.9245C944.413 -51.6402 970.188 -47.3971 992.471 -21.4242C1014.82 4.60582 1024.91 29.5418 1023.53 44.4215C1022.16 59.3012 1020.49 68.7362 1000.52 93.302C976.631 122.632 952.863 130.779 931.44 135.158C910.118 139.168 878.651 136.265 852.976 115.998Z" fill="#0F288C"/>
<path d="M1196.71 75.0886L1178.14 51.753L1202.85 50.7493L1212.24 40.2103L1211.56 17.2489L1236.78 30.525C1236.78 30.525 1264.16 43.1306 1256.44 69.8079C1256.44 69.8079 1270.73 71.0015 1278.97 62.2276C1287.2 53.4537 1306.07 34.7929 1307.3 50.4747C1308.59 66.068 1284.14 86.7589 1284.14 86.7589C1284.14 86.7589 1302 79.439 1308.19 74.5586C1314.37 69.6781 1325.42 71.8774 1319.09 83.9117C1312.75 95.9461 1292.48 113.191 1289.8 117.429C1281.52 130.585 1291.42 138.173 1297.78 138.127C1304.13 138.081 1310.93 129.456 1315.05 120.775C1319.17 112.094 1332.78 96.544 1338.63 99.1714C1344.48 101.799 1351.03 113.387 1325.44 162.861C1325.44 162.861 1331.9 161.744 1347.38 134.066C1362.85 106.388 1377.62 125.573 1376.61 130.92C1375.6 136.267 1373.54 181.402 1347.89 207.794C1347.89 207.794 1375.5 190.568 1386.29 162.345C1397.07 134.122 1387.49 115.402 1394.65 106.964C1401.8 98.5251 1410.43 100.808 1411.46 115.815C1412.49 130.821 1415.03 161.202 1391.98 193.821C1368.88 226.528 1343.54 245.053 1326.3 247.734C1309.07 250.415 1297.92 251.211 1264.43 235.614C1224.42 216.93 1208.43 192.351 1197.37 169.351C1186.76 146.361 1181.08 109.92 1196.71 75.0886Z" fill="#0F288C"/>
<path d="M657.919 -2.59205L653.127 -16.919L665.064 -13.1123L671.362 -16.5008L675.018 -27.5489L684.72 -16.8571C684.72 -16.8571 695.568 -6.10974 687.27 5.25119C687.27 5.25119 693.865 8.2967 699.306 5.54803C704.747 2.79937 716.962 -2.81266 714.832 4.86652C712.74 12.5117 697.513 18.121 697.513 18.121C697.513 18.121 707.287 17.7343 711.077 16.4836C714.868 15.2329 719.745 18.1951 714.643 22.8252C709.541 27.4552 696.904 32.1502 694.892 33.7023C688.669 38.529 692.068 43.8583 695.1 44.9379C698.132 46.0174 702.865 43.0909 706.33 39.6726C709.795 36.2543 718.97 31.212 721.299 33.4768C723.628 35.7416 724.74 42.3945 703.98 61.5073C703.98 61.5073 707.251 62.0963 719.416 51.6044C731.58 41.1124 735.281 52.8043 733.875 55.1748C732.469 57.5454 723.662 78.6724 706.878 86.7885C706.878 86.7885 723.003 83.3745 733.032 71.8107C743.061 60.2468 741.745 49.6748 746.613 46.8984C751.482 44.122 755.194 46.7049 753.082 54.0263C750.969 61.3477 746.911 76.2496 730.285 87.7804C713.621 99.3452 698.344 103.769 689.676 102.057C681.008 100.346 675.561 98.7903 662.323 85.56C646.522 69.7307 643.171 55.2585 641.894 42.3931C640.828 29.6097 644.443 11.2792 657.919 -2.59205Z" fill="#0F288C"/>
<path d="M572.938 224.248L577.095 247.308L559.622 238.801L549.2 242.596L541.122 258.738L528.616 240.161C528.616 240.161 514.364 221.243 529.637 205.657C529.637 205.657 520.194 199.51 511.229 202.514C502.263 205.519 482.261 211.406 487.245 200.094C492.163 188.827 516.788 183.616 516.788 183.616C516.788 183.616 501.7 182.028 495.602 183.101C489.505 184.175 482.68 178.539 491.545 172.571C500.41 166.603 520.854 162.218 524.289 160.284C534.919 154.265 530.89 145.326 526.477 142.992C522.064 140.658 514.147 144.094 508.065 148.567C501.983 153.041 486.775 158.732 483.706 154.736C480.636 150.74 480.415 140.28 516.546 115.577C516.546 115.577 511.657 113.943 490.643 127.332C469.629 140.721 466.559 121.948 469.246 118.623C471.933 115.299 490.168 84.8359 517.741 76.1247C517.741 76.1247 492.228 77.7654 474.253 93.2765C456.278 108.788 455.938 125.309 447.845 128.484C439.752 131.658 434.631 126.865 439.508 116.099C444.385 105.332 453.94 83.3648 482.035 69.3772C510.194 55.3458 534.632 51.9665 547.554 56.5284C560.477 61.0904 568.491 64.6938 585.857 87.9566C606.577 115.781 608.49 138.743 607.578 158.775C606.36 178.635 596.719 205.964 572.938 224.248Z" fill="#0F288C"/>
<path d="M179.862 153.948L169.462 164.905L167.219 152.577L161.271 148.608L149.8 150.566L154.685 136.98C154.685 136.98 159.083 122.357 173.009 124.35C173.009 124.35 172.602 117.097 167.621 113.583C162.64 110.069 151.951 101.918 159.731 100.194C167.463 98.4526 179.565 109.265 179.565 109.265C179.565 109.265 174.635 100.816 171.751 98.0564C168.867 95.2967 169.193 89.5996 175.677 91.931C182.16 94.2625 192.238 103.216 194.553 104.264C201.736 107.493 204.845 101.99 204.375 98.8058C203.905 95.6219 199.1 92.8171 194.455 91.362C189.81 89.907 181.051 84.1731 181.957 81.0536C182.863 77.934 188.216 73.8292 214.837 83.187C214.837 83.187 213.822 80.0224 198.847 74.2068C183.873 68.3911 192.459 59.6349 195.212 59.7636C197.965 59.8923 220.754 57.7509 235.799 68.7601C235.799 68.7601 225.215 56.1249 210.296 52.6982C195.378 49.2715 186.661 55.3967 181.924 52.4011C177.187 49.4056 177.725 44.9153 185.181 43.3436C192.637 41.7719 207.7 38.3595 225.687 47.627C243.721 56.9116 254.798 68.3245 257.356 76.7813C259.914 85.2381 261.098 90.7783 255.63 108.677C249.071 130.06 237.866 139.813 227.106 146.98C216.318 153.922 198.436 159.335 179.862 153.948Z" fill="#0F288C"/>
<path d="M862.065 286.985L851.665 297.942L849.422 285.614L843.474 281.645L832.003 283.603L836.888 270.017C836.888 270.017 841.286 255.394 855.212 257.387C855.212 257.387 854.806 250.134 849.824 246.62C844.843 243.106 834.154 234.956 841.934 233.231C849.666 231.49 861.768 242.302 861.768 242.302C861.768 242.302 856.838 233.853 853.954 231.094C851.071 228.334 851.396 222.637 857.88 224.968C864.363 227.3 874.441 236.253 876.756 237.301C883.939 240.53 887.049 235.027 886.578 231.843C886.108 228.659 881.303 225.854 876.658 224.399C872.013 222.944 863.254 217.21 864.16 214.091C865.067 210.971 870.419 206.866 897.04 216.224C897.04 216.224 896.025 213.06 881.05 207.244C866.076 201.428 874.662 192.672 877.415 192.801C880.168 192.929 902.957 190.788 918.002 201.797C918.002 201.797 907.418 189.162 892.5 185.735C877.581 182.309 868.864 188.434 864.127 185.438C859.39 182.443 859.928 177.952 867.384 176.381C874.841 174.809 889.903 171.397 907.89 180.664C925.924 189.949 937.001 201.362 939.559 209.818C942.117 218.275 943.301 223.815 937.833 241.715C931.274 263.098 920.069 272.85 909.309 280.017C898.522 286.959 880.64 292.372 862.065 286.985Z" fill="#0F288C"/>
<path d="M279.446 678.935L293.574 684.287L283.074 691.124L281.714 698.145L287.958 707.965L273.539 708.716C273.539 708.716 258.354 710.318 254.804 696.705C254.804 696.705 248.273 699.885 246.96 705.838C245.647 711.791 242.266 724.801 237.666 718.294C233.068 711.837 238.357 696.496 238.357 696.496C238.357 696.496 232.474 704.31 231.044 708.037C229.615 711.763 224.236 713.667 223.877 706.786C223.519 699.906 227.877 687.149 227.948 684.609C228.147 676.736 221.869 675.997 219.115 677.663C216.36 679.328 215.633 684.844 216.088 689.691C216.543 694.537 214.644 704.832 211.417 705.203C208.19 705.574 202.334 702.226 200.665 674.057C200.665 674.057 198.139 676.218 198.569 692.277C199 708.335 187.604 703.805 186.657 701.216C185.711 698.628 174.92 678.441 179.252 660.309C179.252 660.309 171.695 674.957 174.306 690.039C176.918 705.122 185.938 710.791 185.008 716.318C184.079 721.845 179.73 723.086 175.396 716.818C171.062 710.55 162.088 697.98 163.676 677.809C165.261 657.588 171.5 642.957 178.309 637.327C185.118 631.697 189.769 628.462 208.389 626.579C230.645 624.356 243.973 630.916 254.744 638.066C265.319 645.327 277.228 659.723 279.446 678.935Z" fill="#0F288C"/>
<path d="M64.5627 222.307L52.9488 212.645L65.103 209.601L68.6749 203.406L65.9705 192.088L79.8472 196.074C79.8472 196.074 94.7268 199.506 93.6487 213.533C93.6487 213.533 100.859 212.652 104.04 207.452C107.221 202.252 114.655 191.052 116.884 198.703C119.128 206.305 109.131 219.087 109.131 219.087C109.131 219.087 117.238 213.616 119.804 210.558C122.369 207.499 128.075 207.452 126.173 214.074C124.27 220.696 115.995 231.338 115.101 233.716C112.348 241.095 118.044 243.838 121.19 243.161C124.336 242.483 126.821 237.505 127.969 232.774C129.117 228.044 134.266 218.929 137.438 219.629C140.61 220.33 145.056 225.402 137.459 252.579C137.459 252.579 140.551 251.358 145.375 236.036C150.198 220.713 159.497 228.708 159.549 231.463C159.601 234.219 163.228 256.819 153.227 272.552C153.227 272.552 165.142 261.164 167.586 246.053C170.029 230.943 163.347 222.645 166.027 217.722C168.706 212.8 173.222 213.043 175.278 220.38C177.334 227.718 181.724 242.525 173.653 261.079C165.568 279.682 154.904 291.482 146.633 294.587C138.361 297.693 132.91 299.237 114.692 294.952C92.9256 289.805 82.4612 279.262 74.6058 268.993C66.9732 258.683 60.4018 241.194 64.5627 222.307Z" fill="#0F288C"/>
<path d="M800.31 818.076L811.023 828.729L798.647 830.684L794.54 836.539L796.232 848.052L782.763 842.853C782.763 842.853 768.245 838.117 770.561 824.241C770.561 824.241 763.301 824.479 759.672 829.377C756.044 834.276 747.647 844.773 746.104 836.955C744.542 829.184 755.632 817.337 755.632 817.337C755.632 817.337 747.072 822.069 744.246 824.888C741.42 827.707 735.732 827.249 738.213 820.821C740.694 814.394 749.88 804.527 750.981 802.237C754.376 795.13 748.946 791.894 745.752 792.29C742.558 792.686 739.643 797.425 738.08 802.035C736.518 806.645 730.582 815.269 727.484 814.29C724.387 813.312 720.407 807.865 730.38 781.468C730.38 781.468 727.193 782.41 721.031 797.246C714.87 812.081 706.315 803.294 706.508 800.545C706.7 797.795 705.088 774.963 716.444 760.177C716.444 760.177 703.566 770.465 699.794 785.3C696.022 800.135 701.943 808.992 698.839 813.658C695.734 818.324 691.258 817.682 689.859 810.191C688.461 802.701 685.399 787.563 695.082 769.796C704.782 751.983 716.449 741.173 724.963 738.812C733.477 736.452 739.043 735.396 756.811 741.278C778.036 748.332 787.525 759.76 794.441 770.684C801.13 781.629 806.127 799.632 800.31 818.076Z" fill="#0F288C"/>
<path d="M876.586 662.438L864.093 645.413L881.607 645.385L888.543 638.188L888.694 621.922L906.172 632.012C906.172 632.012 925.197 641.689 919.001 660.352C919.001 660.352 929.079 661.591 935.148 655.61C941.218 649.63 955.082 636.947 955.524 648.077C956.002 659.146 938.127 673.111 938.127 673.111C938.127 673.111 950.971 668.425 955.483 665.143C959.995 661.861 967.751 663.722 962.936 672.062C958.12 680.403 943.304 692.045 941.288 694.969C935.064 704.05 941.864 709.693 946.36 709.836C950.857 709.979 955.907 704.064 959.061 698.035C962.214 692.006 972.275 681.379 976.341 683.4C980.408 685.42 984.727 693.801 965.251 728.101C965.251 728.101 969.856 727.489 981.57 708.332C993.285 689.176 1003.2 703.159 1002.34 706.914C1001.48 710.67 998.774 742.55 979.898 760.515C979.898 760.515 999.904 749.089 1008.32 729.417C1016.73 709.745 1010.47 696.235 1015.76 690.461C1021.06 684.688 1027.1 686.542 1027.42 697.189C1027.73 707.835 1028.69 729.403 1011.48 751.846C994.232 774.351 975.784 786.759 963.517 788.18C951.249 789.601 943.334 789.856 920.067 777.894C892.279 763.568 881.643 745.735 874.453 729.155C867.579 712.594 864.568 686.652 876.586 662.438Z" fill="#0F288C"/>
<path d="M572.377 647.412L575.431 668.307L559.948 660.12L550.447 663.226L542.687 677.523L531.98 660.416C531.98 660.416 519.712 642.949 533.935 629.369C533.935 629.369 525.614 623.55 517.449 625.987C509.284 628.424 491.092 633.127 495.92 623.088C500.687 613.087 523.023 609.132 523.023 609.132C523.023 609.132 509.481 607.249 503.957 608.033C498.433 608.817 492.455 603.537 500.618 598.428C508.782 593.318 527.327 589.981 530.479 588.343C540.233 583.24 536.873 575.068 532.968 572.834C529.064 570.599 521.83 573.456 516.218 577.303C510.605 581.15 496.737 585.82 494.093 582.128C491.448 578.437 491.562 569.009 524.846 547.844C524.846 547.844 520.491 546.225 501.163 557.654C481.834 569.083 479.632 552.083 482.152 549.169C484.672 546.255 502.009 519.365 527.105 512.346C527.105 512.346 504.077 513.058 487.422 526.49C470.767 539.921 469.966 554.791 462.581 557.408C455.197 560.025 450.728 555.554 455.443 546.003C460.159 536.453 469.424 516.953 495.147 505.198C520.931 493.404 543.043 491.093 554.545 495.59C566.047 500.086 573.157 503.572 588.101 525.045C605.929 550.727 606.963 571.466 605.54 589.482C603.848 607.332 594.345 631.658 572.377 647.412Z" fill="#0F288C"/>
<path d="M1326.74 362.094L1330.53 347.472L1338.46 357.173L1345.59 357.766L1354.68 350.5L1356.98 364.753C1356.98 364.753 1360.21 379.677 1347.06 384.675C1347.06 384.675 1350.93 390.824 1356.99 391.488C1363.05 392.151 1376.35 394.109 1370.37 399.384C1364.45 404.651 1348.63 401.048 1348.63 401.048C1348.63 401.048 1357.03 406.055 1360.89 407.073C1364.75 408.092 1367.22 413.235 1360.42 414.333C1353.62 415.432 1340.47 412.476 1337.93 412.68C1330.08 413.331 1330.03 419.652 1331.98 422.211C1333.93 424.769 1339.5 424.897 1344.26 423.922C1349.03 422.946 1359.47 423.723 1360.19 426.892C1360.91 430.06 1358.21 436.243 1330.39 440.942C1330.39 440.942 1332.81 443.219 1348.73 441.059C1364.64 438.899 1361.37 450.717 1358.9 451.937C1356.43 453.158 1337.52 466.063 1319.03 463.713C1319.03 463.713 1334.41 469.645 1349.12 465.422C1363.83 461.199 1368.49 451.619 1374.09 451.947C1379.68 452.275 1381.39 456.465 1375.62 461.45C1369.86 466.434 1358.33 476.712 1338.11 477.31C1317.83 477.916 1302.61 473.292 1296.28 467.13C1289.95 460.968 1286.23 456.694 1282.35 438.385C1277.74 416.499 1282.82 402.541 1288.77 391.061C1294.85 379.765 1307.88 366.372 1326.74 362.094Z" fill="#0F288C"/>
<path d="M1026.42 554.421L1021.84 579.645L1007.19 564.23L995.06 564.125L980.596 577.569L974.901 553.74C974.901 553.74 967.548 528.892 989.172 518.775C989.172 518.775 981.851 508.857 971.513 508.499C961.175 508.142 938.422 506.509 947.864 496.828C957.222 487.166 984.453 491.265 984.453 491.265C984.453 491.265 969.6 483.854 962.941 482.618C956.281 481.381 951.447 472.99 962.819 470.272C974.19 467.555 996.82 470.896 1001.08 470.232C1014.28 468.138 1013.58 457.434 1009.95 453.351C1006.32 449.268 996.894 449.754 988.947 452.007C981 454.26 963.235 454.263 961.622 448.992C960.008 443.721 963.79 432.917 1010.28 421.452C1010.28 421.452 1005.9 417.904 979.234 423.569C952.569 429.235 956.617 408.822 960.646 406.445C964.674 404.068 995.034 379.842 1026.63 381.483C1026.63 381.483 999.855 373.386 975.491 382.391C951.127 391.396 944.447 408.195 934.937 408.347C925.427 408.498 922.017 401.624 931.14 392.461C940.264 383.297 958.475 364.449 992.625 360.884C1026.86 357.298 1053.19 363.201 1064.69 372.829C1076.18 382.456 1083.01 389.221 1091.89 419.714C1102.46 456.167 1095.62 480.429 1087.01 500.607C1078.15 520.491 1057.79 544.8 1026.42 554.421Z" fill="#0F288C"/>
<path d="M1354.48 745.245L1345.87 721.098L1366.25 727.158L1376.82 721.198L1382.65 702.331L1399.47 720.147C1399.47 720.147 1418.24 738.018 1404.54 757.571C1404.54 757.571 1415.83 762.518 1424.97 757.672C1434.11 752.827 1454.64 742.897 1451.29 755.997C1447.99 769.038 1422.35 779.064 1422.35 779.064C1422.35 779.064 1438.92 778.081 1445.31 775.832C1451.69 773.584 1460.07 778.446 1451.57 786.472C1443.07 794.498 1421.78 802.886 1418.42 805.587C1408.02 813.984 1413.97 822.912 1419.15 824.642C1424.33 826.373 1432.26 821.249 1438.03 815.334C1443.79 809.418 1459.19 800.557 1463.22 804.321C1467.24 808.086 1469.35 819.336 1434.77 852.458C1434.77 852.458 1440.34 853.348 1460.63 835.14C1480.91 816.932 1487.58 836.645 1485.28 840.714C1482.97 844.783 1468.74 880.922 1440.53 895.253C1440.53 895.253 1467.78 888.922 1484.4 868.967C1501.03 849.012 1498.45 831.12 1506.61 826.246C1514.78 821.373 1521.17 825.631 1517.83 838.123C1514.49 850.616 1508.1 876.034 1480.28 896.153C1452.39 916.332 1426.62 924.347 1411.86 921.733C1397.09 919.119 1387.8 916.663 1364.9 894.658C1337.56 868.331 1331.39 843.889 1328.79 822.104C1326.56 800.451 1332.08 769.23 1354.48 745.245Z" fill="#0F288C"/>
<path d="M1162.1 813.268L1186.98 807.089L1178.93 826.77L1183.82 837.878L1202.01 845.55L1182.62 860.524C1182.62 860.524 1162.98 877.427 1144.88 861.862C1144.88 861.862 1138.84 872.607 1142.76 882.182C1146.67 891.756 1154.52 913.174 1141.82 908.538C1129.17 903.97 1121.73 877.456 1121.73 877.456C1121.73 877.456 1121.07 894.041 1122.67 900.622C1124.28 907.202 1118.61 915.054 1111.47 905.8C1104.32 896.546 1098.08 874.538 1095.73 870.926C1088.4 859.749 1078.93 864.782 1076.69 869.766C1074.46 874.749 1078.77 883.149 1084.09 889.471C1089.4 895.793 1096.7 911.991 1092.55 915.626C1088.41 919.261 1077 920.246 1047.47 882.556C1047.47 882.556 1046.03 888.01 1062.14 910C1078.25 931.99 1057.98 936.677 1054.16 933.979C1050.33 931.281 1015.78 913.54 1004.31 884.056C1004.31 884.056 1007.92 911.793 1026.13 930.314C1044.34 948.836 1062.4 948.032 1066.44 956.642C1070.48 965.251 1065.61 971.183 1053.51 966.624C1041.41 962.066 1016.75 953.195 999.483 923.518C982.163 893.773 976.736 867.334 980.798 852.902C984.86 838.47 988.224 829.464 1012.39 808.852C1041.29 784.253 1066.22 780.533 1088.16 780.104C1109.92 780.022 1140.45 788.604 1162.1 813.268Z" fill="#0F288C"/>
<path d="M326.609 588.559L317.878 612.662L306.017 595.016L294.071 592.884L277.563 603.721L275.932 579.275C275.932 579.275 272.837 553.548 295.847 547.188C295.847 547.188 290.288 536.186 280.155 534.105C270.022 532.024 247.863 526.61 258.79 518.643C269.632 510.683 295.794 519.276 295.794 519.276C295.794 519.276 282.389 509.487 276.03 507.154C269.671 504.821 266.308 495.741 277.974 494.962C289.64 494.184 311.393 501.262 315.705 501.319C329.069 501.461 330.166 490.79 327.272 486.159C324.378 481.527 315 480.429 306.788 481.322C298.577 482.215 281.061 479.248 280.352 473.781C279.642 468.314 285.177 458.295 332.932 454.764C332.932 454.764 329.203 450.533 301.966 451.661C274.729 452.789 282.133 433.34 286.502 431.67C290.871 430 324.855 411.19 355.729 418.09C355.729 418.09 330.687 405.631 305.16 410.436C279.633 415.241 270.239 430.687 260.838 429.247C251.437 427.806 249.223 420.458 259.75 412.949C270.277 405.44 291.383 389.902 325.648 392.096C359.999 394.284 384.978 404.507 394.7 415.921C404.422 427.334 410.026 435.145 413.682 466.694C418.008 504.401 407.207 527.178 395.342 545.632C383.283 563.755 359.152 584.319 326.609 588.559Z" fill="#0F288C"/>
<path d="M72.9028 791.638L58.5963 770.365L79.842 771.203L88.6132 762.818L89.6067 743.095L110.305 756.205C110.305 756.205 132.901 768.889 124.455 791.219C124.455 791.219 136.618 793.224 144.278 786.272C151.938 779.319 169.386 764.625 169.368 778.148C169.397 791.599 147.02 807.648 147.02 807.648C147.02 807.648 162.833 802.604 168.469 798.847C174.105 795.09 183.421 797.734 177.165 807.611C170.909 817.488 152.357 830.872 149.766 834.319C141.765 845.024 149.732 852.207 155.178 852.604C160.625 853.002 167.046 846.078 171.171 838.922C175.297 831.766 188.029 819.377 192.861 822.03C197.693 824.684 202.515 835.065 177.183 875.701C177.183 875.701 182.8 875.188 197.963 852.534C213.126 829.88 224.457 847.335 223.227 851.847C221.997 856.36 217.127 894.895 193.336 915.748C193.336 915.748 218.172 902.884 229.358 879.441C240.544 855.998 233.618 839.298 240.329 832.559C247.04 825.819 254.279 828.369 254.128 841.299C253.977 854.229 254.065 880.437 232.073 906.804C210.034 933.244 187.04 947.376 172.089 948.489C157.137 949.602 147.524 949.517 119.898 933.85C86.9042 915.089 74.8904 892.928 66.9944 872.459C59.481 852.029 57.1197 820.412 72.9028 791.638Z" fill="#0F288C"/>
<path d="M816.334 157.35L830.26 151.495L827.361 163.685L831.214 169.709L842.505 172.525L832.573 183.003C832.573 183.003 822.671 194.628 810.719 187.207C810.719 187.207 808.177 194.012 811.327 199.232C814.477 204.451 820.991 216.21 813.173 214.663C805.393 213.151 798.655 198.388 798.655 198.388C798.655 198.388 799.775 208.105 801.307 211.791C802.839 215.477 800.252 220.563 795.251 215.823C790.251 211.084 784.62 198.836 782.921 196.946C777.64 191.103 772.581 194.893 771.732 197.998C770.884 201.102 774.158 205.602 777.827 208.8C781.496 211.999 787.213 220.769 785.13 223.261C783.047 225.754 776.496 227.362 755.877 208.098C755.877 208.098 755.536 211.403 766.912 222.745C778.288 234.087 766.908 238.656 764.438 237.432C761.969 236.208 740.24 229.013 730.885 212.887C730.885 212.887 735.501 228.71 747.786 237.842C760.071 246.973 770.514 244.866 773.649 249.513C776.783 254.159 774.486 258.055 767.027 256.498C759.568 254.942 744.403 252.015 731.655 236.303C718.871 220.555 713.312 205.653 714.367 196.881C715.422 188.109 716.564 182.56 728.762 168.366C743.359 151.42 757.539 146.991 770.272 144.751C782.939 142.728 801.489 144.955 816.334 157.35Z" fill="#0F288C"/>
<path d="M476.011 385.683L480.074 400.234L468.344 395.829L461.883 398.895L457.674 409.744L448.524 398.576C448.524 398.576 438.233 387.294 447.094 376.367C447.094 376.367 440.662 372.992 435.089 375.463C429.516 377.933 417.033 382.92 419.548 375.359C422.024 367.829 437.515 362.996 437.515 362.996C437.515 362.996 427.734 362.889 423.885 363.946C420.036 365.004 415.315 361.799 420.644 357.433C425.974 353.066 438.832 349.016 440.919 347.567C447.379 343.061 444.253 337.567 441.279 336.335C438.306 335.104 433.431 337.788 429.798 341.027C426.164 344.266 416.746 348.838 414.535 346.458C412.323 344.079 411.549 337.378 433.248 319.339C433.248 319.339 430.011 318.585 417.332 328.449C404.653 338.313 401.547 326.449 403.071 324.153C404.595 321.856 414.459 301.201 431.631 293.943C431.631 293.943 415.354 296.538 404.754 307.581C394.153 318.623 394.934 329.248 389.931 331.775C384.928 334.302 381.351 331.535 383.831 324.329C386.31 317.124 391.116 302.446 408.304 291.77C425.531 281.062 441.012 277.416 449.582 279.563C458.153 281.71 463.515 283.539 476.067 297.421C491.049 314.029 493.664 328.652 494.289 341.565C494.707 354.386 490.171 372.51 476.011 385.683Z" fill="#0F288C"/>
<path d="M432.894 750.58L422.663 716.618L450.407 726.398L465.425 718.892L474.788 693.225L496.8 719.003C496.8 719.003 521.494 744.994 501.217 771.066C501.217 771.066 516.477 778.681 529.441 772.616C542.405 766.552 571.468 754.248 565.925 772.118C560.473 789.91 524.341 801.995 524.341 801.995C524.341 801.995 547.305 801.78 556.289 799.114C565.273 796.447 576.509 803.745 564.207 814.249C551.906 824.752 521.918 834.874 517.086 838.374C502.139 849.26 509.74 862.008 516.778 864.756C523.817 867.504 535.131 860.972 543.505 853.196C551.879 845.419 573.768 834.237 579.072 839.717C584.377 845.197 586.515 860.888 536.442 904.27C536.442 904.27 544.076 905.884 573.367 882.124C602.658 858.365 610.514 886.065 607.047 891.528C603.579 896.991 581.413 945.947 541.451 963.804C541.451 963.804 579.534 956.935 603.89 930.508C628.245 904.082 625.905 879.179 637.528 873.009C649.15 866.838 657.678 873.163 652.202 890.194C646.726 907.226 636.146 941.909 596.311 967.79C556.385 993.749 520.22 1003.05 500 998.416C479.78 993.785 467.106 989.749 436.979 957.762C401.019 919.495 394.182 885.295 392.097 855.012C390.503 824.938 400.285 782.177 432.894 750.58Z" fill="#0F288C"/>
<path d="M-110.265 480.344L-150.239 471.772L-124.928 449.209L-124.148 429.873L-144.847 406.139L-106.577 398.265C-106.577 398.265 -66.6005 387.801 -51.5661 422.778C-51.5661 422.778 -35.3882 411.612 -34.296 395.151C-33.2038 378.69 -29.451 342.507 -14.497 358.046C0.429393 373.45 -7.479 416.647 -7.479 416.647C-7.479 416.647 5.08299 393.348 7.39081 382.795C9.69864 372.243 23.3169 364.962 27.0742 383.224C30.8315 401.487 24.3617 437.389 25.2059 444.214C27.8768 465.359 44.9735 464.78 51.6644 459.205C58.3553 453.629 58.0572 438.574 54.8678 425.794C51.6785 413.014 52.5709 384.697 61.0543 382.392C69.5378 380.086 86.5664 386.66 102.492 461.344C102.492 461.344 108.369 454.536 100.686 411.748C93.0022 368.96 125.334 376.445 128.92 382.985C132.505 389.526 169.586 439.142 165.373 489.417C165.373 489.417 179.632 447.153 166.51 407.863C153.388 368.573 126.948 357.077 127.187 341.912C127.426 326.747 138.556 321.657 152.701 336.663C166.845 351.668 195.967 381.648 199.925 436.259C203.911 491.005 193.171 532.685 177.245 550.518C161.319 568.351 150.192 578.898 101.14 591.51C42.502 606.514 4.17542 594.384 -27.5515 579.637C-58.7966 564.511 -96.5161 530.842 -110.265 480.344Z" fill="#0F288C"/>
</g>
<defs>
<clipPath id="clip0">
<rect width="1440" height="900" fill="white"/>
</clipPath>
</defs>
</svg>
