<svg width="1440" height="900" viewBox="0 0 1440 900" fill="none" xmlns="http://www.w3.org/2000/svg">
<g clip-path="url(#clip0)">
<path d="M689.878 592.701C706.221 585.011 722.67 577.747 739.334 570.591C755.997 563.541 772.661 556.705 789.431 550.19L814.64 540.363C818.912 538.761 823.078 537.159 827.351 535.663C831.624 534.168 835.896 532.779 840.169 531.391L853.094 527.439C857.473 526.157 861.746 524.875 866.125 523.7C870.505 522.525 874.884 521.35 879.264 520.282C883.643 519.214 888.023 518.146 892.509 517.292C892.723 517.292 892.83 517.398 892.936 517.505C892.936 517.612 892.936 517.826 892.723 517.826C888.557 519.641 884.391 521.35 880.225 522.953C876.059 524.662 871.787 526.264 867.621 527.866C859.182 531.07 850.744 534.275 842.305 537.372C838.033 538.868 833.867 540.47 829.594 541.858C825.321 543.354 821.049 544.742 816.776 546.238L803.958 550.51L791.247 554.89C774.263 560.871 757.386 567.066 740.509 573.475C723.632 579.777 706.861 586.399 690.198 593.128C689.984 593.235 689.878 593.128 689.771 592.915C689.664 592.915 689.771 592.701 689.878 592.701Z" fill="#EBC46D"/>
<path d="M691.373 611.18C757.493 582.447 825.215 557.239 894.005 535.77Z" fill="#0F288C"/>
<path d="M691.266 610.859C707.609 603.169 724.059 595.905 740.723 588.749C757.386 581.699 774.049 574.863 790.82 568.348L816.028 558.521C820.301 556.919 824.467 555.317 828.74 553.821C833.012 552.326 837.285 550.937 841.558 549.549L854.482 545.597C858.862 544.315 863.135 543.033 867.514 541.858C871.894 540.684 876.273 539.509 880.653 538.44C885.032 537.372 889.412 536.304 893.898 535.45C894.111 535.45 894.218 535.557 894.325 535.663C894.325 535.77 894.325 535.984 894.111 535.984C889.946 537.8 885.78 539.509 881.614 541.111C877.448 542.82 873.175 544.422 869.009 546.024C860.571 549.228 852.132 552.433 843.694 555.53C839.421 557.026 835.255 558.628 830.983 560.017C826.71 561.512 822.437 562.9 818.165 564.396L805.347 568.668L792.635 573.048C775.652 579.029 758.775 585.224 741.898 591.633C725.02 597.935 708.25 604.557 691.587 611.286C691.373 611.393 691.266 611.286 691.16 611.073C691.053 611.073 691.053 610.966 691.266 610.859Z" fill="#0F288C"/>
<path d="M829.274 413.47C826.603 413.47 824.467 411.334 824.467 408.77C824.36 397.769 824.253 384.738 824.04 371.6C823.933 358.462 823.826 345.431 823.612 334.429C823.612 331.759 825.749 329.623 828.312 329.516C830.983 329.516 833.119 331.652 833.226 334.216C833.333 345.217 833.439 358.248 833.653 371.386C833.76 384.524 833.867 397.555 834.08 408.557C834.187 411.227 832.051 413.363 829.274 413.47C829.274 413.47 829.38 413.47 829.274 413.47Z" fill="#0F288C"/>
<path d="M799.685 415.606C797.015 415.606 794.879 413.47 794.879 410.907L794.131 345.11C794.131 342.44 796.267 340.304 798.831 340.197C798.831 340.197 798.831 340.197 798.938 340.197C801.608 340.197 803.744 342.333 803.744 344.897L804.492 410.693C804.599 413.47 802.463 415.606 799.685 415.606C799.685 415.606 799.792 415.606 799.685 415.606Z" fill="#0F288C"/>
<path d="M799.472 385.485C797.549 385.485 795.626 384.311 794.985 382.281C794.131 379.824 795.413 377.047 797.869 376.086L826.176 365.939C828.633 365.084 831.41 366.366 832.371 368.823C833.226 371.279 831.944 374.057 829.487 375.018L801.181 385.165C800.647 385.379 800.006 385.485 799.472 385.485Z" fill="#0F288C"/>
<path d="M848.287 419.559C847.86 419.559 847.539 419.559 847.112 419.452C844.548 418.811 842.946 416.141 843.587 413.577L859.716 349.383C860.251 347.354 861.96 345.858 864.096 345.751C866.125 345.645 868.155 346.819 868.903 348.742C876.487 368.075 885.246 387.088 894.966 405.459C896.248 407.809 895.286 410.693 892.936 411.975C890.587 413.257 887.702 412.295 886.421 409.945C878.837 395.633 871.787 380.893 865.485 365.832L852.88 415.82C852.346 418.17 850.423 419.559 848.287 419.559Z" fill="#0F288C"/>
<path d="M856.512 395.419C854.376 395.419 852.453 393.924 851.812 391.787C851.171 389.224 852.666 386.554 855.337 385.913L877.021 380.465C879.584 379.824 882.255 381.32 882.896 383.99C883.536 386.66 882.041 389.224 879.371 389.865L857.687 395.312C857.26 395.312 856.939 395.419 856.512 395.419Z" fill="#0F288C"/>
<path d="M755.356 423.083C754.288 423.083 753.113 422.976 752.045 422.87C741.684 421.481 732.284 413.791 727.691 403.002C724.059 394.671 723.098 384.524 724.914 372.881C725.448 369.57 726.195 365.298 728.225 361.239C733.459 350.237 746.17 343.722 758.347 345.751C770.204 347.781 780.138 357.501 782.381 369.57C782.915 372.134 781.099 374.697 778.536 375.231C775.865 375.765 773.408 373.95 772.874 371.386C771.379 363.375 764.543 356.646 756.745 355.364C748.84 354.083 740.295 358.355 736.877 365.511C735.488 368.395 734.848 371.813 734.42 374.377C732.925 384.204 733.673 392.535 736.557 399.264C739.868 406.955 746.491 412.509 753.434 413.363C761.659 414.431 770.417 408.664 772.554 400.653C773.195 398.089 775.865 396.594 778.429 397.235C780.992 397.876 782.488 400.546 781.847 403.109C778.642 414.645 767.213 423.083 755.356 423.083Z" fill="#0F288C"/>
<path d="M647.151 427.035C644.481 427.035 642.344 424.899 642.344 422.336C642.237 411.334 642.131 398.196 641.917 385.058C641.81 372.027 641.703 358.996 641.49 347.994C641.49 345.324 643.626 343.188 646.19 343.081C648.86 342.974 650.996 345.217 651.103 347.781C651.21 358.676 651.317 371.814 651.531 384.845C651.637 397.983 651.744 411.12 651.958 422.122C652.065 424.899 649.928 427.035 647.151 427.035C647.151 427.035 647.258 427.035 647.151 427.035Z" fill="#0F288C"/>
<path d="M617.563 429.279C614.892 429.279 612.756 427.142 612.756 424.579L612.008 358.783C612.008 356.112 614.145 353.976 616.708 353.869C616.708 353.869 616.708 353.869 616.815 353.869C619.485 353.869 621.622 356.005 621.622 358.569L622.37 424.365C622.476 427.035 620.34 429.279 617.563 429.279C617.563 429.279 617.67 429.279 617.563 429.279Z" fill="#0F288C"/>
<path d="M617.349 399.051C615.426 399.051 613.504 397.876 612.863 395.846C612.008 393.39 613.29 390.612 615.747 389.651L644.053 379.504C646.51 378.649 649.287 379.931 650.249 382.388C651.21 384.845 649.821 387.622 647.365 388.583L619.058 398.73C618.524 398.944 617.883 399.051 617.349 399.051Z" fill="#0F288C"/>
<path d="M575.904 434.192C574.836 434.192 573.661 434.085 572.593 433.978C562.232 432.59 552.832 424.899 548.239 414.111C544.607 405.78 543.646 395.633 545.461 383.99C545.995 380.679 546.743 376.406 548.773 372.348C554.007 361.346 566.718 354.83 578.895 356.86C590.752 358.889 600.686 368.609 602.929 380.679C603.463 383.242 601.647 385.806 599.083 386.233C596.52 386.767 593.956 384.951 593.422 382.388C591.927 374.377 585.09 367.648 577.293 366.366C569.388 365.084 560.843 369.357 557.425 376.513C556.036 379.397 555.395 382.815 554.968 385.379C553.473 395.205 554.22 403.537 557.104 410.266C560.416 417.956 567.038 423.511 573.981 424.365C582.206 425.54 590.965 419.665 593.102 411.654C593.743 409.091 596.413 407.596 598.977 408.236C601.54 408.877 603.036 411.548 602.395 414.111C599.19 425.754 587.761 434.192 575.904 434.192Z" fill="#0F288C"/>
<path d="M754.929 450C741.043 450 727.691 444.873 718.505 435.687C713.591 430.774 710.066 425.113 706.862 419.665C698.423 404.925 691.694 389.224 686.78 372.988C681.867 389.438 677.38 405.993 673.428 422.656C672.787 425.22 670.224 426.822 667.66 426.181C665.096 425.54 663.494 422.977 664.135 420.413C669.476 398.089 675.671 375.766 682.614 353.976C683.255 351.946 685.285 350.558 687.421 350.665C689.557 350.772 691.48 352.267 691.907 354.403C696.607 375.659 704.405 396.06 715.193 414.859C717.971 419.772 721.175 424.792 725.234 428.851C733.566 437.183 746.277 441.348 759.202 440.173C770.952 439.105 783.129 433.551 793.276 424.579C795.306 422.87 798.297 422.977 800.113 425.006C801.822 427.035 801.715 430.026 799.685 431.842C788.042 442.203 773.943 448.611 760.163 449.893C758.347 449.893 756.638 450 754.929 450Z" fill="#0F288C"/>
<path d="M677.06 402.575C674.389 402.575 672.253 400.439 672.253 397.876C672.253 395.205 674.389 393.069 676.953 392.962C684.11 392.855 691.266 392.108 698.316 390.719C700.88 390.185 703.443 391.894 703.978 394.564C704.512 397.128 702.803 399.691 700.132 400.226C692.655 401.614 684.857 402.469 677.06 402.575Z" fill="#0F288C"/>
<path d="M697.034 521.564C691.907 522.632 687.848 527.118 686.673 532.245C686.353 533.527 686.246 534.809 686.353 536.091C686.353 536.731 686.46 537.372 686.566 538.013C686.673 538.334 686.78 538.654 686.78 538.975C686.887 539.295 686.994 539.615 687.101 539.829C688.062 542.179 689.771 544.208 691.907 545.704C696.18 548.588 701.734 549.549 706.755 548.481C709.212 547.947 711.668 546.879 713.912 545.49C716.155 544.102 718.184 542.393 719.893 540.577C723.525 536.731 726.409 532.245 728.759 527.546C731.216 522.846 733.139 517.826 734.634 512.806C736.129 507.679 737.091 502.552 737.625 497.211C737.838 494.541 738.052 491.977 737.945 489.307C737.945 488.025 737.838 486.637 737.838 485.355L737.732 483.432C737.732 482.791 737.625 482.044 737.518 481.51C737.198 479.16 736.236 476.703 734.848 475.208C734.527 474.78 734.1 474.567 733.779 474.353C733.459 474.246 733.139 474.033 732.711 474.14C731.964 474.14 731.216 474.567 730.682 475.208C730.041 475.955 729.614 477.023 729.293 478.198C728.973 479.373 728.759 480.655 728.545 481.937C728.332 483.219 728.118 484.5 727.905 485.782C727.798 487.064 727.584 488.346 727.477 489.734C727.05 494.968 727.157 500.202 727.905 505.436C728.545 510.669 729.72 515.796 731.429 520.71C732.284 523.166 733.245 525.623 734.314 527.973C735.382 530.216 736.663 532.459 738.159 534.168C739.761 535.877 741.577 536.945 743.5 537.052C745.422 537.159 747.345 536.411 749.161 534.916C750.977 533.527 752.579 531.604 754.075 529.575C755.57 527.546 756.959 525.303 758.134 523.06C760.484 518.573 762.193 513.66 763.154 508.64C763.475 507.145 764.97 506.076 766.465 506.397C767.854 506.717 768.815 507.892 768.815 509.281C768.709 511.631 768.709 513.874 768.922 515.903C769.136 517.933 769.67 519.748 770.738 521.137C771.699 522.525 773.195 523.594 774.583 523.807C775.865 524.021 777.147 523.594 778.536 522.419C779.924 521.244 781.206 519.535 782.488 517.612C783.77 515.796 784.945 513.874 786.12 511.951C788.363 507.999 790.072 503.94 791.46 499.668C791.995 497.959 793.917 496.891 795.626 497.531C797.229 498.065 798.19 499.668 797.87 501.27V501.377C797.549 503.299 797.335 505.222 797.442 507.145C797.442 509.067 797.763 510.883 798.297 512.378C798.831 513.874 799.579 514.942 800.54 515.262C800.647 515.262 800.754 515.369 800.86 515.476C800.967 515.476 801.181 515.583 801.288 515.583C801.394 515.583 801.608 515.689 801.715 515.689C801.822 515.689 801.929 515.689 802.142 515.689C802.676 515.689 803.21 515.583 803.851 515.262C805.133 514.728 806.522 513.66 807.697 512.271C808.978 510.99 810.153 509.281 811.435 507.679C813.785 504.367 815.922 500.843 817.631 497.104C821.156 489.734 823.506 481.723 824.36 473.605C824.787 469.547 825.001 465.488 824.787 461.429L824.574 458.331C824.467 457.37 824.36 456.729 824.253 456.516C824.253 456.409 824.253 456.409 824.253 456.516C824.253 456.516 824.36 456.516 824.253 456.516C824.146 456.516 823.719 456.409 823.292 456.622C823.078 456.729 822.865 456.729 822.758 456.836C822.651 456.943 822.437 457.156 822.224 457.37C821.903 457.797 821.476 458.438 821.156 459.186C820.515 460.681 820.087 462.817 819.66 464.847C818.806 468.906 818.272 472.965 818.058 477.13C817.631 485.355 818.272 493.793 820.194 501.911C820.621 503.94 821.262 505.97 821.903 507.892C822.544 509.922 823.185 511.737 824.04 513.019C825.001 514.301 826.069 515.155 827.565 515.369C829.06 515.583 830.769 515.262 832.371 514.515C833.974 513.767 835.362 512.485 836.43 511.097C836.858 510.456 837.392 509.494 837.712 508.64C838.033 507.785 838.353 506.824 838.567 505.863C839.421 502.018 839.101 497.745 838.78 493.473V493.366C838.674 492.618 839.314 491.87 840.062 491.764C844.976 490.909 849.782 488.773 853.735 485.568C857.687 482.364 860.998 478.198 863.028 473.392C863.135 473.178 863.348 473.071 863.562 473.178C863.775 473.285 863.882 473.499 863.775 473.605C862.173 478.732 859.076 483.432 855.123 487.064C851.171 490.802 846.151 493.579 840.703 494.861L841.985 493.152C842.626 497.425 843.16 501.911 842.519 506.61C842.198 508.96 841.451 511.203 840.169 513.446C838.78 515.583 836.964 517.398 834.721 518.68C832.478 519.962 829.915 520.71 827.03 520.389C824.253 520.176 821.476 518.36 819.874 516.224C818.272 514.087 817.417 511.737 816.669 509.708C815.922 507.572 815.281 505.542 814.64 503.299C812.29 494.754 811.115 485.782 811.435 476.81C811.542 472.324 811.969 467.838 812.824 463.458C813.251 461.215 813.572 459.079 814.533 456.622C814.96 455.341 815.601 454.059 816.669 452.777C817.203 452.136 817.737 451.602 818.485 450.961C819.233 450.427 819.981 450 820.728 449.68C822.331 449.039 824.146 448.825 826.176 449.252C827.137 449.466 828.205 450 829.06 450.641C829.915 451.389 830.662 452.243 831.09 453.098C831.944 454.807 832.158 456.302 832.265 457.477L832.585 460.895C832.905 465.381 832.799 469.974 832.265 474.46C831.73 478.946 830.876 483.432 829.594 487.812C828.312 492.191 826.603 496.356 824.681 500.415C822.651 504.474 820.301 508.426 817.631 512.058C816.242 513.874 814.96 515.689 813.251 517.398C811.542 519.107 809.513 520.816 806.735 521.991C805.347 522.525 803.744 522.846 802.142 522.846C801.715 522.846 801.288 522.846 800.967 522.739C800.54 522.739 800.219 522.632 799.792 522.525L798.617 522.205C798.19 522.098 797.87 521.885 797.549 521.671C796.801 521.351 796.16 520.816 795.52 520.282C795.199 519.962 794.985 519.748 794.665 519.428C794.345 519.107 794.131 518.894 793.917 518.573L793.276 517.612C793.063 517.292 792.956 516.971 792.742 516.651C792.422 516.01 792.208 515.369 791.888 514.728C791.033 512.165 790.82 509.708 790.82 507.251C790.82 504.795 791.14 502.552 791.567 500.202L798.083 501.911C796.481 506.61 794.451 511.097 791.888 515.369C790.606 517.505 789.324 519.535 787.829 521.564C786.333 523.487 784.838 525.623 782.595 527.439C781.42 528.293 780.138 529.148 778.536 529.682C776.933 530.216 775.118 530.323 773.515 530.002C770.204 529.255 767.747 527.225 766.038 524.769C765.184 523.594 764.543 522.098 764.115 520.816C763.688 519.428 763.475 518.146 763.261 516.758C762.94 514.087 763.154 511.631 763.261 509.281L768.922 509.922C767.747 515.476 765.824 520.816 763.047 525.837C761.659 528.293 760.163 530.643 758.454 532.993C756.745 535.236 754.822 537.479 752.366 539.295C751.084 540.256 749.695 541.004 748.2 541.645C746.597 542.179 744.888 542.499 743.179 542.286C741.47 542.179 739.761 541.538 738.373 540.684C736.984 539.829 735.702 538.761 734.741 537.586C732.711 535.236 731.323 532.673 730.148 530.109C729.08 527.546 728.011 524.982 727.264 522.312C725.555 517.078 724.486 511.631 723.845 506.076C723.205 500.629 723.205 495.075 723.739 489.52C723.845 488.132 724.059 486.743 724.166 485.355C724.38 483.966 724.593 482.578 724.914 481.296C725.448 478.732 725.875 475.635 728.011 472.858C728.545 472.217 729.293 471.576 730.148 471.149C731.002 470.722 731.964 470.508 732.925 470.401C733.886 470.294 734.954 470.615 735.809 471.042C736.663 471.469 737.304 472.11 737.945 472.644C739.12 473.926 739.761 475.314 740.295 476.703C740.829 478.092 741.15 479.587 741.363 481.082C741.47 481.83 741.47 482.471 741.47 483.219L741.577 485.248C741.577 486.637 741.684 488.025 741.577 489.414C741.577 492.191 741.363 494.861 741.043 497.638C740.402 503.086 739.227 508.426 737.625 513.66C735.916 518.894 733.886 523.914 731.216 528.721C728.652 533.527 725.555 538.12 721.602 542.072C719.68 543.995 717.436 545.811 715.086 547.199C712.737 548.588 710.066 549.763 707.289 550.19C701.734 551.258 695.859 550.083 691.266 546.772C689.023 545.17 687.207 542.82 686.139 540.149C686.032 539.829 685.926 539.509 685.819 539.188C685.712 538.868 685.605 538.547 685.498 538.12C685.391 537.372 685.285 536.731 685.285 535.984C685.178 534.595 685.391 533.207 685.712 531.818C686.46 529.148 687.848 526.584 689.771 524.662C691.694 522.632 694.257 521.244 696.928 520.71C697.141 520.71 697.355 520.816 697.355 521.03C697.355 521.351 697.248 521.457 697.034 521.564Z" fill="#0F288C"/>
<path d="M625.788 300.249V290.102L623.865 288.607H627.176C627.176 288.607 629.313 288.607 631.235 288.607C633.585 288.607 634.974 289.995 634.974 291.704C634.974 293.093 634.333 294.268 631.983 294.909C634.013 295.122 635.722 296.084 635.722 298.327C635.722 300.036 634.333 301.745 631.449 301.745H623.972L625.788 300.249ZM628.351 289.568V294.588C630.274 294.588 632.304 294.481 632.304 292.131C632.304 291.17 631.876 290.209 631.235 289.888C630.488 289.568 629.633 289.568 628.565 289.568H628.351ZM628.351 295.443V300.676H629.954C631.449 300.676 632.944 299.929 632.944 298.113C632.944 296.404 631.556 295.336 629.206 295.336H628.351V295.443Z" fill="#EBC46D"/>
<path d="M645.122 290.209V300.143L647.151 301.638H640.742L642.665 300.143V290.102L640.635 288.714H647.044L645.122 290.209Z" fill="#EBC46D"/>
<path d="M660.076 289.675H656.124V294.481H658.474L660.183 291.918V298.113L658.474 295.549H656.124V300.57H660.824L663.708 296.404L662.96 301.638H651.637L653.56 300.142V290.102L651.637 288.607H662.746L663.067 293.52L660.076 289.675Z" fill="#EBC46D"/>
<path d="M680.371 290.102V301.958L671.078 292.452V300.249L672.894 301.638H667.98L669.796 300.249V290.423L667.874 288.714H671.078L678.982 296.831V290.102L677.167 288.714H682.08L680.371 290.102Z" fill="#EBC46D"/>
<path d="M698.957 290.316L694.471 300.89L694.364 301.317L693.83 302.599L688.062 290.102L686.139 288.607H692.548L690.946 289.888L694.471 298.22L697.889 289.888L696.287 288.607H701.2L698.957 290.316Z" fill="#EBC46D"/>
<path d="M713.698 289.675H709.746V294.481H712.096L713.805 291.918V298.113L712.096 295.549H709.746V300.57H714.446L717.33 296.404L716.582 301.638H705.259L707.182 300.142V290.102L705.259 288.607H716.368L716.689 293.52L713.698 289.675Z" fill="#EBC46D"/>
<path d="M733.993 290.102V301.958L724.7 292.452V300.249L726.516 301.638H721.602L723.418 300.249V290.423L721.496 288.714H724.7L732.605 296.831V290.102L730.789 288.714H735.702L733.993 290.102Z" fill="#EBC46D"/>
<path d="M752.472 289.995V296.084C752.472 299.074 751.404 302.172 747.238 302.172C742.966 302.172 741.791 299.822 741.791 296.511V290.102L739.975 288.714H746.384L744.568 290.102V296.938C744.568 299.074 745.209 300.783 747.772 300.783C749.802 300.783 751.084 299.502 751.084 295.87V289.995L749.375 288.607H754.288L752.472 289.995Z" fill="#EBC46D"/>
<path d="M766.893 289.675H762.94V294.481H765.29L766.999 291.918V298.113L765.29 295.549H762.94V300.57H767.64L770.524 296.404L769.777 301.638H758.454L760.377 300.142V290.102L758.454 288.607H769.563L769.883 293.52L766.893 289.675Z" fill="#EBC46D"/>
<path d="M784.838 300.249L789.751 288.5H790.713L795.52 300.57L796.908 301.745H790.82L792.529 300.356L791.674 297.899H787.188L786.12 300.463L787.722 301.638H783.449L784.838 300.249ZM787.508 296.831H791.247L789.431 292.132L787.508 296.831Z" fill="#EBC46D"/>
<path d="M813.572 289.995V296.084C813.572 299.074 812.504 302.172 808.338 302.172C804.065 302.172 802.89 299.822 802.89 296.511V290.102L800.967 288.607H807.376L805.56 289.995V296.831C805.56 298.967 806.201 300.676 808.765 300.676C810.794 300.676 812.076 299.395 812.076 295.763V289.888L810.474 288.714H815.388L813.572 289.995Z" fill="#EBC46D"/>
</g>
<defs>
<clipPath id="clip0">
<rect x="544.5" y="288.5" width="351" height="323" fill="white"/>
</clipPath>
</defs>
</svg>
