<svg width="255" height="256" viewBox="0 0 255 256" fill="none" xmlns="http://www.w3.org/2000/svg">
<path d="M125.926 253.994C195.221 254.833 252.079 199.114 252.921 129.542C253.763 59.9703 198.271 2.89141 128.975 2.05266C59.6795 1.21391 2.82168 56.9329 1.97959 126.505C1.1375 196.076 56.63 253.155 125.926 253.994Z" fill="#EBC46D"/>
<g clip-path="url(#clip0)">
<path d="M101.188 123.116C101.78 125.79 101.745 128.604 102.268 131.312C102.756 133.95 103.453 136.588 104.428 139.086C106.415 144.256 109.377 149.286 112.966 153.472C113.872 154.527 114.813 155.547 115.789 156.497C116.73 157.411 117.845 158.678 119.064 159.17C120.458 159.733 121.086 158.326 121.783 157.271C122.514 156.11 123.142 154.879 123.734 153.613C125.79 149.11 126.661 143.94 126.417 139.015C126.278 136.236 125.79 133.458 124.954 130.82C124.083 128.041 122.305 125.649 121.504 122.87C121.051 121.252 122.967 119.564 124.466 120.584C127.045 122.378 128.439 125.614 129.588 128.463C130.738 131.347 131.435 134.372 131.714 137.468C132.272 143.658 131.122 149.884 128.299 155.406C127.01 157.904 125.163 161.105 122.654 162.547C119.378 164.411 116.939 161.703 114.743 159.592C110.109 155.195 106.31 149.849 103.836 143.904C102.442 140.563 101.362 137.081 100.665 133.493C100.038 130.187 99.3406 126.423 100.107 123.116C100.177 122.519 101.048 122.519 101.188 123.116Z" fill="#F27552"/>
<path d="M110.701 117.629C110.771 120.936 110.562 124.172 110.98 127.478C111.398 130.714 112.234 133.95 113.315 137.045C113.489 137.573 112.652 137.925 112.409 137.432C109.69 131.558 108.053 123.925 109.656 117.489C109.795 116.891 110.666 117.031 110.701 117.629Z" fill="#F27552"/>
<path d="M111.502 102.927C116.416 99.8664 123.142 100.605 126.278 105.916C129.031 110.559 126.766 117.137 121.26 118.192C117.984 118.825 115.475 116.011 112.269 116.644C109.446 117.207 107.181 119.282 104.289 119.599C99.3406 120.127 94.7755 115.378 95.7861 110.419C96.3088 107.745 98.2603 105.389 100.769 104.369C102.477 103.665 104.184 103.771 105.997 103.947C107.913 104.122 109.969 104.228 111.189 102.434C111.851 101.484 113.698 102.047 113.175 103.278C111.189 108.273 105.439 105.002 101.745 106.268C96.6225 108.027 96.5179 114.921 101.118 117.348C105.648 119.705 109.586 114.851 114.081 115.026C116.486 115.097 118.995 116.644 121.364 115.871C123.664 115.132 125.337 112.81 125.267 110.383C125.128 103.454 117.008 102.012 111.781 103.56C111.398 103.63 111.189 103.138 111.502 102.927Z" fill="#F27552"/>
<path d="M120.842 111.474C119.483 111.298 118.089 111.087 116.904 110.348C116.242 109.926 116.486 108.801 117.322 108.836C118.786 108.871 120.11 109.539 121.399 110.137C122.201 110.524 121.574 111.579 120.842 111.474Z" fill="#F27552"/>
<path d="M104.184 112.494C103 113.057 101.85 113.619 100.63 114.042C99.8285 114.323 99.3057 113.057 100.038 112.67C101.188 112.037 102.372 111.579 103.592 111.087C104.394 110.77 104.986 112.142 104.184 112.494Z" fill="#F27552"/>
<path d="M90.6286 97.1228C89.4786 92.726 85.8893 88.8217 81.2197 88.5403C81.6379 88.2237 82.0212 87.9071 82.4394 87.6257C81.8818 90.2638 82.6136 93.0426 84.5303 94.942C85.4712 95.8565 86.656 96.5248 87.9105 96.8414C89.0605 97.1579 90.2801 96.9821 91.4301 97.3338C92.371 97.6504 92.5452 98.9167 91.7089 99.4443C88.8862 101.273 84.3212 99.0222 82.2652 96.8766C79.7561 94.2385 79.0243 90.4397 80.0001 86.9574C80.1395 86.465 80.6622 85.9726 81.2197 86.0429C86.8302 86.5353 91.9877 91.0376 91.7786 96.9821C91.7437 97.6152 90.8029 97.7559 90.6286 97.1228Z" fill="#F27552"/>
<path d="M129.728 86.9574C127.323 78.9377 135.966 72.1843 143.214 72.6767C143.841 72.7119 144.468 73.0988 144.608 73.7671C145.793 78.7267 146.037 84.3545 142.587 88.5051C139.834 91.7763 133.701 93.4647 130.738 89.5252C130.007 88.5403 131.226 86.8871 132.376 87.3795C133.84 87.9775 135.129 88.681 136.767 88.3996C138.475 88.1182 139.869 86.9574 140.809 85.5153C142.9 82.2441 142.482 78.1639 141.785 74.541C142.238 74.8927 142.726 75.2796 143.179 75.6314C139.973 75.2444 136.767 76.1238 134.397 78.4453C132.028 80.7668 131.296 83.7918 130.773 86.9574C130.704 87.5202 129.902 87.4499 129.728 86.9574Z" fill="#F27552"/>
<path d="M138.37 85.9374C139.59 85.4449 140.531 83.6862 139.729 82.4551C139.172 81.611 137.673 81.1889 136.941 82.0331C136.349 82.7014 136.453 84.2842 137.499 84.4249C138.405 84.5656 139.416 83.4752 138.684 82.6662C137.673 81.5054 136.21 83.4752 137.255 83.9325C137.673 84.1083 137.743 83.8621 137.813 83.5807C137.917 83.1234 137.638 83.7566 137.638 83.7214C138.022 84.038 138.3 83.3345 137.847 83.0531C137.081 82.5607 136.523 84.4952 137.952 84.6359C137.603 84.7766 137.255 84.9173 136.941 85.058C137.29 84.6359 137.464 84.3545 137.22 83.8973C137.081 83.6862 137.29 83.9325 137.046 83.8269C138.405 84.3194 137.882 86.3595 136.453 86.0429C134.955 85.7263 134.328 83.8973 135.094 82.5958C135.966 81.1537 138.056 81.2592 139.137 82.3496C140.426 83.5807 140.322 86.1484 138.893 87.2388C137.325 88.4347 134.955 86.4298 134.432 84.9525C133.735 83.1235 134.676 81.0482 136.419 80.2392C138.161 79.4302 140.147 80.2743 140.949 81.9979C141.716 83.6511 141.053 85.6208 139.346 86.3243C137.882 86.9223 135.966 86.4298 135.199 84.9877C134.328 83.3697 135.269 81.2944 136.907 80.6964C138.614 80.0281 140.356 81.224 140.67 82.9828C140.984 84.7766 139.659 86.4298 137.882 86.5353C136.07 86.6409 134.502 85.3394 134.363 83.4752C134.049 79.1488 140.287 78.0935 141.541 82.2089C142.587 85.656 137.952 88.3644 135.443 85.867C132.69 83.1234 135.478 78.2694 139.206 79.5005C143.04 80.7316 142.656 86.254 138.719 86.9926C137.917 87.274 137.673 86.254 138.37 85.9374Z" fill="#F27552"/>
<path d="M129.937 110.489C133.596 114.78 136 119.705 137.011 125.297C137.22 126.352 135.687 126.81 135.408 125.755C134.119 120.725 131.854 115.871 128.648 111.79C127.951 110.876 129.17 109.61 129.937 110.489Z" fill="#F27552"/>
<path d="M131.61 106.936C142.308 114.569 149.835 126.212 152.658 139.121C152.971 140.633 150.706 141.266 150.358 139.754C147.361 127.337 140.287 116.398 130.46 108.414C129.623 107.745 130.738 106.303 131.61 106.936Z" fill="#F27552"/>
<path d="M135.791 103.138C150.358 109.117 161.23 122.941 163.321 138.699C163.461 139.648 161.823 139.859 161.648 138.91C159.035 123.855 149.068 110.735 135.164 104.58C134.363 104.263 134.955 102.786 135.791 103.138Z" fill="#F27552"/>
<path d="M135.513 98.6001C135.373 98.6001 135.269 98.5649 135.129 98.5649C134.99 98.5649 134.99 98.3539 135.129 98.3187C135.269 98.3187 135.373 98.2835 135.513 98.2835C135.722 98.2835 135.722 98.6001 135.513 98.6001Z" fill="#F27552"/>
<path d="M135.164 97.1228C150.218 93.2184 167.085 98.0725 177.574 109.75C178.306 110.559 177.156 111.72 176.389 110.946C165.761 100.535 150.253 95.8917 135.757 99.1629C134.397 99.4794 133.84 97.4745 135.164 97.1228Z" fill="#F27552"/>
<path d="M139.241 99.8312C149.138 103.102 157.85 109.75 163.251 118.825C163.844 119.81 162.345 120.654 161.753 119.705C156.317 111.192 148.337 104.615 138.858 101.309C137.952 100.992 138.3 99.5146 139.241 99.8312Z" fill="#F27552"/>
<path d="M146.42 91.4949C153.006 90.0176 160.568 91.2135 166.945 93.0777C173.671 95.0475 179.804 98.2484 185.101 102.927C185.763 103.524 184.892 104.685 184.16 104.158C178.724 100.359 172.695 97.2283 166.353 95.3289C163.217 94.3792 159.976 93.7109 156.735 93.3591C153.355 92.9722 150.009 93.1481 146.629 93.0074C145.793 93.0074 145.549 91.706 146.42 91.4949Z" fill="#F27552"/>
<path d="M166.283 86.1133C160.986 86.9926 155.968 88.8217 151.194 91.2487C150.288 91.706 149.487 90.3693 150.393 89.8417C155.167 86.9926 160.359 85.3043 165.83 84.4601C166.876 84.3194 167.364 85.9374 166.283 86.1133Z" fill="#F27552"/>
<path d="M97.7027 123.89C97.5285 125.79 96.8315 127.619 96.3785 129.448C95.8558 131.523 95.4725 133.634 95.1937 135.779C94.671 139.824 94.427 143.94 94.5664 148.02C94.6013 149.392 92.6149 149.356 92.4756 148.02C92.0225 143.799 92.0225 139.613 92.6498 135.427C92.9634 133.387 93.3816 131.382 93.8695 129.413C94.3922 127.408 94.9149 125.157 96.0997 123.433C96.5528 122.835 97.8073 122.976 97.7027 123.89Z" fill="#F27552"/>
<path d="M95.0195 121.639C90.4893 129.8 87.5969 138.699 85.8197 147.844C85.7151 148.442 84.6697 148.336 84.7394 147.703C85.8545 138.206 89.1999 129.237 94.0437 121.076C94.427 120.443 95.3679 121.006 95.0195 121.639Z" fill="#F27552"/>
<path d="M91.4998 118.649C84.4954 124.875 79.8258 133.423 77.944 142.673C77.7001 143.834 76.0622 143.306 76.2016 142.181C77.5955 132.402 82.7182 123.644 90.1407 117.278C91.0816 116.504 92.4407 117.84 91.4998 118.649Z" fill="#F27552"/>
<path d="M91.4301 112.177C89.5483 113.408 87.4226 114.253 85.506 115.413C83.45 116.68 81.5333 118.192 79.8258 119.916C76.5152 123.222 73.7971 127.197 71.985 131.488C71.4275 132.789 69.1972 131.875 69.6851 130.503C71.4623 125.614 74.2501 121.287 78.0486 117.735C81.4636 114.569 86.2378 111.052 91.0119 110.594C91.8831 110.524 92.0922 111.755 91.4301 112.177Z" fill="#F27552"/>
<path d="M89.9317 108.238C80.9061 105.459 73.8668 112.846 68.2215 118.86C67.3154 119.81 65.9912 118.403 66.8276 117.453C72.5078 110.665 81.0106 102.399 90.5938 106.655C91.4998 107.042 90.8377 108.519 89.9317 108.238Z" fill="#F27552"/>
<path d="M90.7332 106.444C83.6242 99.1981 72.5078 98.8111 64.667 105.107C63.5867 105.987 62.0534 104.545 63.1337 103.56C71.4623 95.8565 84.5651 96.771 92.0574 105.142C92.8241 105.987 91.5695 107.288 90.7332 106.444Z" fill="#F27552"/>
<path d="M118.054 97.6504C119.343 94.8365 120.319 91.7411 120.667 88.6458C120.807 87.3444 122.584 87.3092 122.689 88.6458C123.002 92.4094 121.922 95.8917 119.448 98.7056C118.751 99.5498 117.671 98.5298 118.054 97.6504Z" fill="#F27552"/>
<path d="M114.848 97.8263C115.58 94.9771 115.824 91.9873 116.068 89.0679C116.137 88.1885 117.496 87.8368 117.705 88.8568C118.402 92.1632 117.949 95.2234 116.73 98.3539C116.277 99.5146 114.534 99.0574 114.848 97.8263Z" fill="#F27552"/>
<path d="M109.621 100.711C109.551 97.2986 109.481 93.9571 109.656 90.5452C109.725 89.3493 111.433 89.3493 111.468 90.5452C111.642 93.9219 111.572 97.2986 111.502 100.711C111.502 101.942 109.656 101.942 109.621 100.711Z" fill="#F27552"/>
<path d="M104.847 100.183C103.627 96.9469 102.372 93.7812 101.571 90.4045C101.362 89.5252 102.686 88.8569 103.104 89.7714C104.568 93.0074 105.544 96.3489 106.589 99.7257C106.937 100.851 105.265 101.273 104.847 100.183Z" fill="#F27552"/>
<path d="M101.362 101.308C100.107 99.3036 98.8527 97.3338 97.8421 95.1882C97.4239 94.2737 98.6088 93.0777 99.3406 93.9923C100.874 95.9268 102.128 97.967 103.418 100.077C104.219 101.414 102.163 102.61 101.362 101.308Z" fill="#F27552"/>
<path d="M172.347 39.3316C176.947 40.5275 181.616 40.3868 186.251 39.5778C187.575 39.3316 188.133 41.1958 186.809 41.6531C181.895 43.3415 176.633 43.1304 171.685 41.7235C170.186 41.2662 170.813 38.9095 172.347 39.3316Z" fill="#F27552"/>
<path d="M178.306 48.4065C182.662 49.3914 186.878 48.8286 191.199 48.0548C192.036 47.9141 192.698 49.11 191.827 49.5673C187.471 51.8888 182.383 51.7833 177.678 50.6577C176.215 50.306 176.842 48.09 178.306 48.4065Z" fill="#F27552"/>
<path d="M183.986 58.2201C184.718 57.9739 185.484 57.6925 186.216 57.4463C186.843 57.2353 187.506 57.6925 187.68 58.2905C187.854 58.9236 187.471 59.5568 186.843 59.7678C186.112 60.014 185.345 60.2603 184.613 60.5065C184.021 60.7175 183.359 60.2954 183.184 59.6975C183.01 59.0292 183.394 58.4312 183.986 58.2201Z" fill="#F27552"/>
<path d="M188.76 65.7826C191.618 65.8881 194.371 66.0288 197.158 66.5916C198.099 66.7675 197.786 68.1041 196.949 68.1744C194.196 68.4206 191.513 68.28 188.76 68.1041C187.331 67.9986 187.296 65.7122 188.76 65.7826Z" fill="#F27552"/>
<path d="M62.1928 64.3756C60.9383 63.848 59.6141 63.4259 58.255 63.25C56.9656 63.0742 55.6762 63.1445 54.4217 62.8983C53.2717 62.6873 53.5157 61.1396 54.4217 60.7879C57.1747 59.7678 60.6246 60.9286 63.1685 62.0893C64.3882 62.6521 63.4822 64.9032 62.1928 64.3756Z" fill="#F27552"/>
<path d="M60.311 70.0738C58.0808 69.898 55.5717 70.0387 53.446 69.3C52.7839 69.0538 52.9581 68.2096 53.5854 68.1393C55.8156 67.893 58.255 68.5965 60.4504 68.9131C61.1125 68.9834 60.9731 70.1442 60.311 70.0738Z" fill="#F27552"/>
<path d="M58.0459 76.37C56.8611 76.37 55.4672 76.6162 54.3869 76.0183C54.0036 75.8072 54.0036 75.2093 54.3869 74.9982C55.4323 74.4003 56.8611 74.6465 58.0459 74.6465C59.161 74.6817 59.161 76.37 58.0459 76.37Z" fill="#F27552"/>
<path d="M57.4535 82.3848C56.9656 82.631 56.4778 82.8772 55.955 83.1235C55.502 83.3697 54.8399 83.2642 54.596 82.7717C54.352 82.3144 54.4566 81.6461 54.9445 81.3999C55.4323 81.1537 55.9202 80.9075 56.4429 80.6613C56.8959 80.415 57.558 80.5206 57.802 81.013C58.0459 81.4703 57.9414 82.1386 57.4535 82.3848Z" fill="#F27552"/>
<path d="M147.709 33.5982C136.593 28.8849 124.501 26.8448 112.478 28.2869C101.571 29.5884 91.0468 33.9851 82.2303 40.5627C79.7909 42.3918 77.491 44.3967 75.3653 46.5423C73.2395 48.6528 71.4971 51.5019 68.9881 53.1551C67.8381 53.8937 66.2003 52.6626 66.6533 51.326C67.5245 48.6176 69.8593 46.472 71.8108 44.467C73.7971 42.4269 75.9228 40.5275 78.1531 38.7688C82.6833 35.1811 87.5968 32.1561 92.8589 29.8698C104.01 24.9806 116.346 23.3977 128.369 25.2619C135.408 26.3523 142.169 28.6035 148.371 32.0506C149.138 32.543 148.581 33.9851 147.709 33.5982Z" fill="#F27552"/>
<path d="M84.0075 165.748C84.0424 167.577 83.659 169.335 83.3454 171.129C82.9969 172.923 82.753 174.717 81.9515 176.37C81.5333 177.214 80.2788 176.757 80.244 175.913C80.2091 174.084 80.7667 172.29 81.2197 170.531C81.6727 168.808 82.0909 167.049 82.8575 165.431C83.1363 164.833 84.0075 165.15 84.0075 165.748Z" fill="#F27552"/>
<path d="M87.9453 170.109C86.412 174.365 86.2378 178.586 85.8893 183.018C85.8196 183.722 84.7394 184.003 84.5651 183.194C83.5894 178.692 84.6348 173.838 86.2378 169.617C86.656 168.597 88.3635 169.019 87.9453 170.109Z" fill="#F27552"/>
<path d="M93.2074 177.003C93.3467 181.119 93.7301 185.304 93.3467 189.42C93.277 190.264 91.918 190.616 91.7786 189.631C91.1862 185.48 91.3604 181.224 91.2559 177.003C91.2559 175.772 93.1725 175.772 93.2074 177.003Z" fill="#F27552"/>
<path d="M100.107 184.988C100.595 187.837 101.153 190.651 101.327 193.535C101.362 194.415 100.107 194.52 99.8633 193.746C99.0618 191.073 98.6087 188.329 98.1209 185.551C97.8421 184.214 99.8633 183.651 100.107 184.988Z" fill="#F27552"/>
<path d="M107.007 189.912C107.495 193.078 107.983 196.279 108.471 199.444C108.924 202.469 109.621 205.53 109.481 208.59C109.446 209.469 108.296 209.61 108.018 208.801C107.007 205.881 106.798 202.751 106.345 199.691C105.927 196.631 105.474 193.535 105.056 190.475C104.881 189.174 106.798 188.611 107.007 189.912Z" fill="#F27552"/>
<path d="M112.827 203.876C113.802 209.997 113.593 216.152 111.433 221.991C111.049 223.082 109.412 222.659 109.69 221.499C111.049 215.8 111.816 209.962 111.259 204.087C111.189 203.173 112.687 202.962 112.827 203.876Z" fill="#F27552"/>
<path d="M115.963 218.227C115.371 222.484 114.848 226.775 113.942 230.96C113.768 231.805 112.374 231.629 112.443 230.749C112.827 226.388 113.593 222.097 114.325 217.77C114.499 216.68 116.102 217.172 115.963 218.227Z" fill="#F27552"/>
<path d="M193.186 75.9128C195.974 76.5811 198.727 77.3197 201.48 78.1639C204.093 78.9729 206.811 79.7819 209.076 81.3296C209.913 81.8923 209.669 83.44 208.519 83.4048C205.661 83.2641 202.943 82.2441 200.26 81.2944C197.577 80.3095 194.893 79.2543 192.28 78.0935C190.99 77.5308 191.931 75.6314 193.186 75.9128Z" fill="#F27552"/>
<path d="M197.158 86.2188C200.573 88.8568 204.267 91.319 207.369 94.344C208.205 95.153 207.125 96.5952 206.114 95.962C202.455 93.6757 199.18 90.6859 195.799 87.9775C194.824 87.2037 196.148 85.4449 197.158 86.2188Z" fill="#F27552"/>
<path d="M197.507 95.2585C203.013 99.1629 207.682 103.982 210.888 109.961C211.516 111.157 209.878 112.072 209.111 111.017C205.382 105.846 201.201 100.957 196.322 96.8414C195.451 96.1379 196.601 94.5902 197.507 95.2585Z" fill="#F27552"/>
<path d="M199.145 107.534C201.619 110.559 204.198 113.479 206.393 116.75C206.985 117.629 205.626 118.72 204.895 117.911C202.281 114.991 200.016 111.826 197.716 108.66C197.089 107.816 198.483 106.725 199.145 107.534Z" fill="#F27552"/>
<path d="M200.086 115.589C201.933 118.79 203.745 121.991 205.243 125.403C205.696 126.423 204.372 127.267 203.745 126.282C201.758 123.152 200.12 119.88 198.517 116.504C197.995 115.484 199.493 114.569 200.086 115.589Z" fill="#F27552"/>
<path d="M174.298 158.572C178.341 161.843 181.686 165.748 183.289 170.777C183.603 171.798 182.174 172.325 181.651 171.481C179.072 167.401 176.389 163.321 172.8 160.085C171.754 159.135 173.253 157.728 174.298 158.572Z" fill="#F27552"/>
<path d="M173.985 168.491C174.96 171.516 175.936 174.506 176.807 177.566C177.051 178.481 175.727 178.797 175.413 177.953C174.298 174.998 173.288 171.973 172.277 168.984C171.929 167.893 173.636 167.436 173.985 168.491Z" fill="#F27552"/>
<path d="M167.921 173.697C169.768 179.325 171.162 185.023 171.859 190.932C171.998 192.023 170.186 192.269 169.977 191.179C168.827 185.48 167.503 179.852 165.691 174.33C165.238 172.888 167.468 172.255 167.921 173.697Z" fill="#F27552"/>
<path d="M162.903 187.169C163.008 189.807 163.147 192.41 163.112 195.048C163.112 196.068 161.683 196.033 161.579 195.048C161.3 192.41 161.161 189.807 161.021 187.169C160.952 185.938 162.868 185.938 162.903 187.169Z" fill="#F27552"/>
<path d="M151.856 194.309C151.717 195.962 151.612 197.58 151.403 199.198C151.264 200.394 149.452 200.5 149.487 199.198C149.521 197.58 149.626 195.927 149.765 194.309C149.835 192.937 151.961 192.937 151.856 194.309Z" fill="#F27552"/>
<path d="M122.514 194.239C123.142 195.364 123.769 196.49 124.361 197.615C124.919 198.635 123.386 199.55 122.793 198.53C122.166 197.404 121.539 196.279 120.946 195.153C120.389 194.133 121.957 193.219 122.514 194.239Z" fill="#F27552"/>
<path d="M86.9348 94.3088C86.6908 93.7812 86.4469 93.2888 86.203 92.7612C86.7605 92.9019 87.2832 93.0426 87.8408 93.1833C87.2136 93.535 87.0393 94.2737 87.4226 94.8716C86.7257 94.8716 86.0287 94.8716 85.2969 94.8716C85.5757 94.2033 85.6454 93.4295 85.5408 92.726C86.2378 92.9019 86.9348 93.1129 87.6317 93.2888C87.4923 93.4647 87.4575 93.7109 87.562 93.9219C86.9696 93.7461 86.3424 93.6054 85.7499 93.4295C86.3424 93.0426 86.4469 91.917 86.412 91.319C86.3772 90.3342 87.5969 89.9472 88.259 90.5452C89.9665 92.128 89.0256 94.8716 87.0742 95.751C86.2378 96.1379 85.4712 95.8213 85.1227 94.942C84.6697 93.7109 85.0181 92.4446 85.8545 91.4949C86.412 90.8266 87.806 91.1432 87.9454 92.0577C88.1544 93.4998 87.9802 94.7661 87.4226 96.1027C87.0393 96.9821 85.7499 96.8062 85.2969 96.1027C84.2515 94.4144 84.8439 92.0225 86.6211 91.108C87.3878 90.7211 88.4681 91.1783 88.3984 92.1632C88.3635 92.7612 88.3287 93.3591 88.2938 93.9571C88.259 94.5902 87.2832 95.0123 86.9348 94.3088Z" fill="#F27552"/>
<path d="M135.199 104.861C149.452 114.428 158.965 131.347 158.373 148.794C158.338 149.884 156.77 149.884 156.7 148.794C155.55 132.227 147.709 116.293 134.363 106.303C133.491 105.705 134.293 104.263 135.199 104.861Z" fill="#F27552"/>
<path d="M90.2802 105.037C81.9864 102.997 73.6229 105.107 66.8624 110.208C66.2352 110.7 65.4337 109.645 66.0261 109.082C72.5078 103.102 82.2652 101.273 90.5589 104.017C91.1862 104.263 90.9423 105.213 90.2802 105.037Z" fill="#F27552"/>
</g>
<defs>
<clipPath id="clip0">
<rect width="158" height="207" transform="matrix(-1 0 0 1 211.028 24.5233)" fill="white"/>
</clipPath>
</defs>
</svg>
