<svg width="139" height="139" viewBox="0 0 139 139" fill="none" xmlns="http://www.w3.org/2000/svg">
<path d="M136.301 37.6071C132.545 27.7871 126.059 19.2479 117.865 12.6727C115.561 10.7941 113.257 9.08628 110.781 7.46383C108.136 5.84139 105.319 4.47512 102.417 3.27964C97.8084 1.40102 92.8582 0.632497 87.9079 0.547105C77.7514 0.376322 67.2535 3.36503 58.5479 8.48853C56.1582 9.94019 53.9391 11.5626 51.8054 13.2705C44.2093 19.5041 39.0884 28.8971 37.2107 38.5464C37.2107 38.6318 37.2107 38.7172 37.1254 38.8026C36.2719 43.4137 36.0158 47.8541 36.4426 52.3799C36.5279 53.4046 36.6133 54.3439 36.784 55.3686C37.4668 60.4921 39.1738 65.3594 41.3928 70.0559C45.831 79.3636 53.0856 87.2197 61.6205 92.9409C69.1312 97.979 78.1782 101.224 87.3105 102.078C88.3347 99.2599 89.1028 96.2712 89.6149 93.2825C89.7002 92.5993 89.7002 92.0016 89.7856 91.3185C89.7856 91.2331 89.7856 91.1477 89.7856 91.0623C89.7856 90.4646 89.8709 89.7814 89.8709 89.1837C88.8468 89.0983 87.7372 89.0983 86.713 88.9275C83.043 88.3298 79.5437 87.3905 76.1298 86.0242C72.6305 84.4871 69.3019 82.5231 66.144 80.2176C62.9861 77.7412 60.1696 74.9233 57.6944 71.7638C55.4754 68.7751 53.5977 65.5302 52.0614 62.1145C50.9519 59.2112 50.0984 56.1371 49.5863 53.063C49.501 51.9529 49.4156 50.8428 49.3303 49.8181C49.2449 47.7687 49.3303 45.7193 49.501 43.6699C49.8424 41.2789 50.4398 38.9734 51.2079 36.7532C51.464 36.0701 51.72 35.3015 51.9761 34.6184C53.0856 32.0566 54.5365 29.6657 56.1582 27.4455C57.4384 25.823 58.8893 24.3714 60.4256 23.0905C60.5963 22.9197 60.767 22.8343 60.9377 22.6636C64.0103 20.358 67.3389 18.4794 70.8382 16.9423C74.5082 15.4907 78.2635 14.466 82.1042 13.8682C85.2621 13.5266 88.42 13.4413 91.4926 13.7828C94.053 14.2098 96.5282 14.8929 99.0033 15.8322C102.332 17.3693 105.404 19.2479 108.221 21.4681C111.891 24.3714 115.22 27.7017 118.121 31.2881C120.255 34.106 122.047 37.0947 123.498 40.3396C124.608 43.0722 125.376 45.8901 125.803 48.708C126.059 51.5259 126.059 54.2585 125.717 57.0764C125.205 60.4921 124.352 63.8224 123.072 66.9818C121.706 69.9706 120.084 72.7885 118.121 75.4356C116.073 77.9974 113.683 80.3883 111.123 82.4377C108.818 84.1456 106.258 85.6826 103.612 86.8781C103.356 86.9635 103.1 87.0489 102.759 87.1343C102.929 91.8308 102.417 96.6128 101.222 101.139C103.271 100.712 105.319 100.114 107.282 99.3453C112.232 97.3813 116.585 94.7341 120.682 91.3185C128.107 85.2557 133.655 76.8873 136.642 67.7504C139.715 58.1865 139.971 47.171 136.301 37.6071ZM44.8921 50.2451C45.4896 50.1597 46.087 50.0743 46.5991 49.9889C46.343 49.9889 46.0017 50.0743 45.7456 50.1597C45.4896 50.1597 45.2335 50.1597 44.8921 50.2451Z" fill="#F1E8D9"/>
<path d="M102.673 87.2197C102.588 84.9995 102.417 82.8648 101.991 80.6446C101.991 80.4738 101.905 80.303 101.905 80.1322C101.82 79.6199 101.735 79.1929 101.564 78.6806C101.479 78.339 101.393 77.9974 101.308 77.5705C101.223 77.3997 101.223 77.2289 101.137 77.0581C100.796 75.948 100.454 74.7525 100.028 73.7278C98.2354 68.9459 95.7602 64.5055 92.773 60.4067C92.6023 60.1506 92.4316 59.9798 92.2609 59.7236C92.1756 59.6382 92.0902 59.4674 92.0049 59.382C90.3833 57.2472 88.5909 55.1978 86.6279 53.3192L86.5426 53.2338C86.1158 52.8069 85.7744 52.4653 85.3477 52.0383C85.177 51.953 85.0916 51.7822 84.9209 51.6968C84.5795 51.3552 84.2382 51.099 83.8968 50.7575C83.7261 50.5867 83.47 50.4159 83.2993 50.2451C83.1286 50.1597 83.0433 49.9889 82.8726 49.9036C82.4458 49.562 82.1044 49.2204 81.6777 48.8789C79.3733 47.0002 77.0688 45.2924 74.5937 43.67C72.1186 42.1329 69.5582 40.852 66.827 39.7419C65.9735 39.4004 65.2054 39.0588 64.3519 38.8026C63.9251 38.6319 63.4984 38.5465 62.9863 38.3757C59.3163 37.351 55.5609 36.8386 51.7202 36.7532C51.5496 36.7532 51.2935 36.7532 51.1228 36.7532C50.3547 38.9734 49.8426 41.3644 49.4158 43.67C49.1598 45.7194 49.1598 47.7688 49.2451 49.8182C51.2082 49.7328 53.2565 49.8182 55.2196 49.9889C54.9635 49.9889 54.7075 49.9036 54.5368 49.9036C55.1342 49.9889 55.7316 50.0743 56.2437 50.1597C55.9023 50.0743 55.5609 50.0743 55.2196 50.0743C57.78 50.5013 60.2551 51.1844 62.6449 52.1237C62.6449 52.1237 62.6449 52.1237 62.5596 52.1237C62.3035 52.0383 62.0475 51.8676 61.7914 51.7822C62.3035 52.0383 62.8156 52.2091 63.3277 52.4653C63.0716 52.3799 62.9009 52.2945 62.6449 52.2091C65.9735 53.7462 69.0461 55.6248 71.8626 57.845C71.6919 57.6742 71.4358 57.5034 71.2651 57.3326C71.6919 57.6742 72.1186 58.0158 72.5454 58.3573C72.2893 58.1865 72.0333 58.0158 71.8626 57.845C75.5326 60.7483 78.8612 64.0786 81.763 67.665C81.5923 67.4942 81.4216 67.2381 81.2509 67.0673C81.5923 67.4942 81.9337 67.9212 82.2751 68.3482C82.1044 68.092 81.9337 67.9212 81.763 67.665C83.2993 69.7998 84.7502 72.02 85.9451 74.3256C86.3719 75.0941 86.7133 75.8626 87.0547 76.7165C86.9693 76.5458 86.884 76.2896 86.7986 76.1188C87.0547 76.6312 87.2254 77.1435 87.4814 77.6559C87.3107 77.3143 87.2254 76.9727 87.0547 76.7165C87.5667 78.0828 88.0788 79.4491 88.4202 80.8153C88.7616 82.1816 89.103 83.6333 89.3591 85.0849C89.3591 84.7434 89.2737 84.3164 89.1884 83.9748C89.2737 84.5726 89.3591 85.1703 89.4444 85.6827C89.4444 85.5119 89.3591 85.2557 89.3591 85.0849C89.4444 85.7681 89.4444 86.4512 89.5298 87.0489C89.5298 87.1343 89.5298 87.2197 89.5298 87.2197C89.5298 87.9029 89.5298 88.586 89.5298 89.2691C89.5298 89.8669 89.5298 90.55 89.4444 91.1477C89.4444 91.2331 89.4444 91.3185 89.4444 91.4039C89.4444 92.0871 89.3591 92.6848 89.2737 93.3679C89.2737 93.1971 89.3591 93.0264 89.3591 92.8556C89.2737 93.4533 89.1884 94.0511 89.103 94.5634C89.1884 94.1365 89.1884 93.7949 89.2737 93.3679C88.847 96.3566 88.0788 99.26 87.0547 102.163C86.884 102.505 86.7986 102.932 86.6279 103.273C86.7133 103.017 86.884 102.761 86.9693 102.505C86.7133 103.017 86.5426 103.53 86.2865 104.042C86.3719 103.786 86.4572 103.53 86.6279 103.273C85.9451 104.725 85.177 106.177 84.4088 107.628C83.5554 108.995 82.7019 110.361 81.763 111.727C81.9337 111.471 82.1044 111.3 82.3605 111.044C82.0191 111.471 81.6777 111.898 81.3363 112.325C81.507 112.154 81.6777 111.898 81.763 111.642C79.7147 114.204 77.3249 116.594 74.7644 118.644C75.0205 118.473 75.2765 118.302 75.5326 118.046C75.1058 118.388 74.6791 118.729 74.2523 119.071C74.423 118.9 74.5937 118.729 74.7644 118.644C72.46 120.352 69.8996 121.889 67.2537 123.084C67.5098 122.999 67.8512 122.913 68.1072 122.743C67.5951 122.999 67.083 123.17 66.5709 123.426C66.827 123.34 67.083 123.17 67.2537 123.084C64.7786 124.024 62.1328 124.707 59.487 125.134C59.8284 125.134 60.1698 125.048 60.5112 125.048C59.9137 125.134 59.3163 125.219 58.8042 125.304C59.0602 125.304 59.2309 125.219 59.487 125.219C58.7189 125.304 57.9507 125.39 57.1826 125.39H57.0972C54.7928 125.475 52.4884 125.39 50.2693 125.134C50.5254 125.219 50.8668 125.219 51.1228 125.304C50.5254 125.219 49.9279 125.134 49.4158 125.048C49.6719 125.048 50.0133 125.134 50.2693 125.134C46.5993 124.536 43.1 123.597 39.6861 122.23C39.8568 122.316 40.0275 122.401 40.1128 122.487C39.6007 122.23 39.0886 122.06 38.5765 121.803C38.9179 121.974 39.2593 122.06 39.5154 122.23C38.8326 121.889 38.1498 121.633 37.467 121.291C37.211 121.206 36.9549 121.035 36.7842 120.949C34.3091 119.669 31.9193 118.132 29.7003 116.509C29.9563 116.68 30.127 116.851 30.383 117.021C29.9563 116.68 29.5296 116.338 29.1028 115.997C29.2735 116.168 29.5296 116.338 29.7856 116.424C26.6277 113.947 23.8112 111.129 21.3361 107.97C21.5068 108.226 21.6775 108.397 21.8482 108.653C21.5068 108.226 21.1654 107.799 20.824 107.372C20.9947 107.628 21.1654 107.799 21.3361 108.055C19.117 105.067 17.2393 101.822 15.7031 98.406C15.8738 98.7476 15.9591 99.0892 16.1298 99.4307C15.8738 98.9184 15.7031 98.406 15.447 97.8937C15.5324 98.0645 15.6177 98.2353 15.7031 98.406C14.5935 95.5027 13.74 92.4286 13.2279 89.3545C13.2279 89.5253 13.2279 89.7815 13.3133 89.9523C13.2279 89.3545 13.1426 88.7568 13.0572 88.2444C13.1426 88.586 13.1426 89.013 13.2279 89.3545C12.8865 86.195 12.8865 83.0355 13.2279 79.9614C13.1426 80.303 13.1426 80.5592 13.0572 80.9007C13.1426 80.303 13.2279 79.7053 13.3133 79.1929C13.3133 79.4491 13.2279 79.7053 13.2279 80.0468C13.74 76.9727 14.5082 73.8986 15.7031 70.9953C15.6177 71.2515 15.447 71.5077 15.3617 71.7638C15.6177 71.2515 15.7884 70.7391 16.0445 70.2268C15.9591 70.483 15.8738 70.7391 15.7884 70.9953C16.8979 68.4336 18.3489 66.0426 19.9705 63.8224C19.7998 64.0786 19.6291 64.2494 19.4584 64.5055C19.7998 64.0786 20.1412 63.6516 20.4826 63.2247C20.3119 63.4808 20.1412 63.6516 19.9705 63.9078C21.2507 62.2853 22.7017 60.8337 24.2379 59.5528C24.4086 59.382 24.5793 59.2966 24.75 59.1259C24.5793 59.2113 24.4086 59.382 24.2379 59.4674C24.494 59.2966 24.6647 59.1259 24.9207 58.9551C25.0914 58.7843 25.3475 58.6135 25.5182 58.4427C25.2621 58.6135 25.0914 58.7843 24.8354 58.9551C24.75 59.0405 24.75 59.0405 24.6647 59.1259C27.7372 56.8203 31.0658 54.9417 34.5651 53.4046C34.2237 53.49 33.9677 53.6608 33.6263 53.7462C34.1384 53.49 34.6505 53.3192 35.1626 53.063C34.9919 53.1484 34.7358 53.2338 34.5651 53.3192C35.1626 53.063 35.8454 52.8069 36.4428 52.6361C36.1014 48.1103 36.2721 43.5846 37.1256 39.0588C37.1256 38.9734 37.1256 38.888 37.211 38.8026C32.0047 40.1689 26.9691 42.2183 22.4456 44.9508C20.0558 46.4025 17.8368 48.0249 15.7031 49.7328C7.93631 55.881 2.73004 65.3595 0.852363 75.0941C-0.171823 80.6446 -0.257171 86.1096 0.510968 91.7455C1.19376 96.869 2.90073 101.736 5.1198 106.433C9.55794 115.741 16.8126 123.597 25.3475 129.318C25.5182 129.403 25.6889 129.574 25.8596 129.659C26.0303 129.745 26.201 129.916 26.457 130.001C26.8837 130.257 27.3105 130.513 27.7372 130.769C27.8226 130.855 27.9079 130.855 27.9933 130.94C28.5907 131.282 29.2735 131.623 29.871 131.965C30.2124 132.136 30.5537 132.307 30.8951 132.477C31.1512 132.648 31.4926 132.734 31.7486 132.904C33.1996 133.587 34.5651 134.185 36.0161 134.783C36.1868 134.868 36.4428 134.954 36.6135 135.039C37.0403 135.21 37.5523 135.381 37.9791 135.551C38.1498 135.637 38.4058 135.722 38.5765 135.722C39.3447 135.978 40.1982 136.235 40.9663 136.491C41.2223 136.576 41.4784 136.662 41.8198 136.747C42.6733 137.003 43.5268 137.174 44.3803 137.345C44.4656 137.345 44.551 137.43 44.7216 137.43C45.7458 137.601 46.6847 137.857 47.7089 137.942C47.9649 137.942 48.221 138.028 48.477 138.028C48.8184 138.113 49.2451 138.113 49.5865 138.199C50.0133 138.284 50.5254 138.284 50.9521 138.369C51.1228 138.369 51.2935 138.369 51.4642 138.455C51.9763 138.455 52.4884 138.54 53.0858 138.54C53.2565 138.54 53.3419 138.54 53.5126 138.54C54.0247 138.54 54.5368 138.54 54.9635 138.54C55.2196 138.54 55.5609 138.54 55.817 138.54C56.073 138.54 56.4144 138.54 56.6705 138.54C57.2679 138.54 57.9507 138.455 58.5482 138.455C62.9009 138.113 67.083 137.174 71.0944 135.637C75.874 133.673 80.0561 131.026 84.0675 127.781C84.9209 127.012 85.7744 126.329 86.6279 125.475C87.14 124.963 87.6521 124.451 88.1642 123.938C88.5056 123.511 88.9323 123.17 89.2737 122.743C89.4444 122.572 89.6151 122.401 89.7858 122.23C90.2126 121.718 90.6393 121.291 90.9807 120.779C91.066 120.608 91.2367 120.522 91.3221 120.352C91.7488 119.839 92.0902 119.327 92.517 118.815C93.0291 118.132 93.4558 117.448 93.9679 116.765C94.1386 116.509 94.3093 116.168 94.5654 115.911C94.6507 115.741 94.736 115.57 94.9067 115.399C97.0405 111.898 98.8328 108.141 100.113 104.298C100.284 103.871 100.369 103.444 100.54 103.017C100.71 102.419 100.881 101.907 101.052 101.309C101.479 99.6869 101.82 98.0645 101.991 96.442C102.588 93.2825 102.759 90.2938 102.673 87.2197Z" fill="#EC7A75"/>
</svg>
