<svg width="66" height="66" viewBox="0 0 66 66" fill="none" xmlns="http://www.w3.org/2000/svg">
<path d="M3.3605 43.4438C4.51569 47.7725 6.89142 51.6829 10.0826 54.8392C10.9787 55.7393 11.8826 56.5671 12.863 57.3665C13.9161 58.1737 15.0535 58.8801 16.2348 59.5181C18.1121 60.5228 20.1847 61.073 22.2883 61.334C26.6044 61.8675 31.2085 61.0786 35.146 59.3045C36.2289 58.7983 37.2469 58.212 38.2324 57.5857C41.7477 55.2911 44.352 51.5462 45.5872 47.5456C45.5911 47.5094 45.5949 47.4733 45.6351 47.441C46.2067 45.5272 46.5163 43.6586 46.539 41.7228C46.549 41.285 46.5551 40.8834 46.5287 40.4417C46.4694 38.2412 45.9626 36.1027 45.23 34.0132C43.761 29.8704 41.0274 26.2144 37.6524 23.4042C34.6825 20.9298 30.9776 19.145 27.1284 18.3687C26.5651 19.5155 26.1031 20.7461 25.7501 21.9884C25.6829 22.2738 25.6559 22.5269 25.5887 22.8123C25.5848 22.8485 25.581 22.8846 25.5771 22.9208C25.5501 23.1739 25.4829 23.4593 25.4559 23.7124C25.8881 23.7951 26.3605 23.8454 26.7888 23.9643C28.3241 24.384 29.7714 24.9407 31.1631 25.6742C32.5834 26.484 33.9117 27.4668 35.152 28.5864C36.3845 29.7784 37.4563 31.0996 38.3672 32.5498C39.177 33.9161 39.8298 35.3754 40.3295 36.8915C40.6707 38.1713 40.8952 39.5117 40.9744 40.8367C40.9606 41.3106 40.9468 41.7846 40.9368 42.2223C40.8806 43.094 40.7517 43.9579 40.5865 44.818C40.3331 45.8149 39.9747 46.7641 39.5474 47.6693C39.4075 47.947 39.2638 48.2607 39.1239 48.5384C38.5359 49.5728 37.8102 50.5193 37.0196 51.3858C36.4013 52.0147 35.718 52.5635 35.0062 53.0361C34.9258 53.1007 34.8493 53.1291 34.7689 53.1936C33.3567 54.0304 31.8548 54.6747 30.2957 55.1667C28.6677 55.6147 27.0227 55.8781 25.3607 55.9568C24.0009 55.958 22.6527 55.8508 21.36 55.5667C20.2893 55.2696 19.2664 54.8679 18.2552 54.3578C16.9075 53.5558 15.6844 52.6208 14.5856 51.5528C13.1543 50.1567 11.8877 48.5954 10.8143 46.945C10.0333 45.6549 9.40522 44.3079 8.93409 42.868C8.58516 41.6606 8.38543 40.4325 8.33103 39.2199C8.3493 38.015 8.47271 36.858 8.74532 35.6802C9.1176 34.2571 9.63137 32.8857 10.3191 31.606C11.0354 30.4025 11.8531 29.2829 12.8083 28.2511C13.796 27.2593 14.9214 26.3554 16.104 25.6039C17.1622 24.9854 18.3216 24.4508 19.502 24.0647C19.6148 24.0402 19.7277 24.0156 19.8769 23.995C20.0163 21.9985 20.4503 19.9969 21.1634 18.1348C20.2721 18.2225 19.3731 18.3826 18.5027 18.6189C16.3066 19.2258 14.334 20.149 12.4356 21.4093C9.00071 23.6394 6.261 26.931 4.57661 30.6643C2.83661 34.5746 2.23009 39.2274 3.3605 43.4438ZM42.8455 42.2431C42.5873 42.2521 42.3291 42.2611 42.1072 42.274C42.2162 42.2857 42.3654 42.265 42.4783 42.2405C42.5873 42.2521 42.6963 42.2637 42.8455 42.2431Z" fill="#EBC46D"/>
<path d="M19.9169 23.9627C19.853 24.9067 19.8292 25.8184 19.9106 26.7779C19.9029 26.8502 19.9315 26.9264 19.9238 26.9987C19.937 27.2195 19.9541 27.4042 20.0036 27.6289C20.0245 27.7774 20.0454 27.9259 20.0625 28.1106C20.0911 28.1868 20.0834 28.2591 20.112 28.3353C20.2072 28.8208 20.2985 29.3426 20.4339 29.7958C20.981 31.9021 21.8341 33.8947 22.9207 35.766C22.9818 35.8822 23.0467 35.9623 23.1078 36.0785C23.1403 36.1185 23.1689 36.1947 23.2014 36.2348C23.7953 37.2124 24.4658 38.1615 25.2167 39.0462L25.2491 39.0862C25.4115 39.2864 25.5414 39.4465 25.7038 39.6467C25.7726 39.6906 25.8012 39.7668 25.8701 39.8107C26 39.9708 26.1337 40.0948 26.2636 40.2549C26.3286 40.335 26.4299 40.419 26.4949 40.499C26.5637 40.5429 26.5923 40.6191 26.6611 40.663C26.8273 40.827 26.9573 40.9872 27.1235 41.1512C28.0197 42.0513 28.9236 42.8791 29.904 43.6785C30.8883 44.4418 31.9204 45.1004 33.033 45.6945C33.3809 45.8779 33.6925 46.0574 34.0443 46.2046C34.2182 46.2963 34.3961 46.3519 34.6064 46.4474C36.1225 47.048 37.698 47.4355 39.3292 47.646C39.4019 47.6538 39.5109 47.6654 39.5836 47.6731C40.0108 46.7679 40.3368 45.7787 40.6227 44.8218C40.8242 43.9657 40.9168 43.0978 40.973 42.2262C40.1335 42.1732 39.2653 42.044 38.4373 41.8826C38.5463 41.8942 38.6515 41.942 38.7241 41.9497C38.4736 41.8864 38.2232 41.8232 38.009 41.7637C38.1505 41.8154 38.2958 41.8309 38.4412 41.8464C37.3704 41.5493 36.3476 41.1477 35.3726 40.6414C35.3726 40.6414 35.3726 40.6414 35.409 40.6453C35.5141 40.6931 35.6154 40.777 35.7206 40.8248C35.5141 40.6931 35.3038 40.5975 35.0974 40.4658C35.2025 40.5136 35.2713 40.5575 35.3765 40.6053C34.0289 39.8033 32.8057 38.8683 31.7069 37.8003C31.7719 37.8803 31.8732 37.9643 31.9381 38.0443C31.7719 37.8803 31.6056 37.7163 31.4394 37.5523C31.5407 37.6362 31.642 37.7202 31.7069 37.8003C30.2757 36.4042 29.009 34.8429 27.9357 33.1925C28.0006 33.2725 28.0617 33.3888 28.1267 33.4688C28.0006 33.2725 27.8746 33.0762 27.7485 32.8799C27.8096 32.9962 27.8746 33.0762 27.9357 33.1925C27.3781 32.2187 26.8607 31.2127 26.4561 30.1822C26.3091 29.8374 26.1985 29.4965 26.0917 29.1194C26.1204 29.1956 26.1451 29.3079 26.1738 29.3841C26.0879 29.1555 26.0384 28.9308 25.9525 28.7023C26.0097 28.8546 26.0306 29.0032 26.0917 29.1194C25.9354 28.5176 25.7791 27.9158 25.6955 27.3218C25.6119 26.7277 25.5321 26.0975 25.4887 25.4712C25.4733 25.6159 25.4903 25.8005 25.5112 25.949C25.5019 25.692 25.4925 25.4351 25.4793 25.2142C25.4716 25.2866 25.4964 25.3989 25.4887 25.4712C25.4832 25.1781 25.5141 24.8888 25.5047 24.6318C25.5086 24.5957 25.5124 24.5595 25.5124 24.5595C25.5433 24.2702 25.5741 23.981 25.605 23.6917C25.632 23.4386 25.6628 23.1493 25.7262 22.9001C25.73 22.8639 25.7339 22.8278 25.7378 22.7916C25.7686 22.5024 25.8319 22.2531 25.8991 21.9677C25.8914 22.04 25.8474 22.1085 25.8397 22.1808C25.903 21.9316 25.9663 21.6823 26.0258 21.4693C25.9702 21.6462 25.9547 21.7908 25.8991 21.9677C26.2158 20.7216 26.6739 19.5271 27.2411 18.3442C27.3292 18.2073 27.3848 18.0304 27.4729 17.8935C27.425 17.9981 27.3407 18.0988 27.2928 18.2034C27.425 17.9981 27.5208 17.7889 27.6529 17.5836C27.605 17.6882 27.5571 17.7928 27.4729 17.8935C27.8291 17.3098 28.2217 16.73 28.6143 16.1502C29.0393 15.6104 29.4644 15.0706 29.9258 14.5347C29.8415 14.6354 29.7611 14.7 29.6406 14.7969C29.8052 14.6316 29.9698 14.4663 30.1344 14.301C30.0541 14.3656 29.9698 14.4663 29.9219 14.5709C30.9096 13.5791 32.035 12.6752 33.2176 11.9237C33.1009 11.9844 32.9842 12.0451 32.8636 12.1419C33.0607 12.0167 33.2578 11.8914 33.4549 11.7661C33.3745 11.8307 33.2941 11.8953 33.2176 11.9237C34.2758 11.3052 35.4352 10.7706 36.6156 10.3845C36.5027 10.409 36.3535 10.4297 36.2368 10.4904C36.4664 10.4051 36.6921 10.3561 36.9217 10.2709C36.8088 10.2954 36.6921 10.3561 36.6156 10.3845C37.7117 10.0991 38.8689 9.93002 40.0146 9.86937C39.8692 9.85387 39.72 9.87452 39.5747 9.85902C39.8329 9.84999 40.0911 9.84096 40.313 9.82805C40.204 9.81643 40.1274 9.84484 40.0184 9.83321C40.3493 9.83193 40.6802 9.83065 41.0072 9.86553L41.0435 9.86941C42.0284 9.93789 43.0056 10.0787 43.9387 10.2879C43.8336 10.2401 43.6882 10.2246 43.5831 10.1769C43.8336 10.2401 44.084 10.3034 44.2982 10.3628C44.1892 10.3512 44.0477 10.2996 43.9387 10.2879C45.4741 10.7077 46.9214 11.2643 48.313 11.9979C48.2442 11.954 48.1754 11.9101 48.1429 11.87C48.3494 12.0018 48.5597 12.0973 48.7661 12.2291C48.6285 12.1412 48.487 12.0896 48.3857 12.0056C48.661 12.1813 48.9401 12.3208 49.2153 12.4964C49.3205 12.5442 49.4217 12.6281 49.4906 12.672C50.4864 13.3268 51.4343 14.0862 52.3058 14.8739C52.2045 14.79 52.1395 14.7099 52.0382 14.626C52.2045 14.79 52.3707 14.954 52.537 15.118C52.472 15.038 52.3707 14.954 52.2656 14.9062C53.4981 16.0982 54.5699 17.4193 55.4809 18.8696C55.4198 18.7534 55.3548 18.6733 55.2937 18.5571C55.4198 18.7534 55.5458 18.9497 55.6719 19.146C55.6108 19.0297 55.5458 18.9497 55.4847 18.8334C56.2944 20.1997 56.9472 21.659 57.447 23.1751C57.3897 23.0227 57.3688 22.8742 57.3116 22.7218C57.3974 22.9504 57.447 23.1751 57.5328 23.4037C57.5042 23.3275 57.4756 23.2513 57.447 23.1751C57.7882 24.4549 58.0127 25.7954 58.0918 27.1203C58.0996 27.048 58.1111 26.9395 58.0825 26.8633C58.0918 27.1203 58.1012 27.3773 58.1144 27.5981C58.0935 27.4496 58.1128 27.2688 58.0918 27.1203C58.0945 28.4737 57.9518 29.8115 57.6676 31.0977C57.7194 30.957 57.7309 30.8485 57.7827 30.7077C57.7194 30.957 57.656 31.2062 57.5965 31.4193C57.6081 31.3108 57.656 31.2062 57.6715 31.0616C57.3146 32.34 56.8487 33.6069 56.2089 34.782C56.2568 34.6774 56.3411 34.5767 56.389 34.4721C56.2568 34.6774 56.161 34.8866 56.0289 35.0919C56.0768 34.9873 56.1247 34.8827 56.1726 34.7781C55.5845 35.8125 54.8589 36.759 54.0682 37.6255C54.1525 37.5248 54.2329 37.4602 54.3171 37.3595C54.1525 37.5248 53.9879 37.6901 53.8232 37.8554C53.9075 37.7546 53.9879 37.6901 54.0721 37.5894C53.4538 38.2182 52.7705 38.767 52.0587 39.2397C51.9783 39.3042 51.9018 39.3326 51.8214 39.3972C51.8979 39.3688 51.9783 39.3042 52.0548 39.2758C51.9381 39.3365 51.8577 39.4011 51.741 39.4618C51.6606 39.5263 51.5439 39.587 51.4635 39.6516C51.5802 39.5909 51.6606 39.5263 51.7773 39.4656C51.8175 39.4334 51.8175 39.4334 51.8577 39.4011C50.4455 40.2378 48.9437 40.8822 47.3845 41.3741C47.5337 41.3535 47.6504 41.2928 47.7996 41.2721C47.57 41.3573 47.3443 41.4064 47.1148 41.4916C47.1913 41.4632 47.3041 41.4387 47.3807 41.4103C47.1148 41.4916 46.8125 41.5691 46.5504 41.6143C46.4914 43.5462 46.2143 45.4548 45.6465 47.3325C45.6427 47.3686 45.6388 47.4048 45.5986 47.4371C47.8767 47.0949 50.113 46.4558 52.1622 45.5041C53.2451 44.998 54.2631 44.4117 55.2486 43.7854C58.8327 41.5347 61.4772 37.7575 62.7163 33.7207C63.403 31.4169 63.6861 29.1067 63.6137 26.6853C63.5544 24.4848 63.0475 22.3463 62.315 20.2568C60.846 16.114 58.1124 12.458 54.7373 9.64783C54.6685 9.60393 54.6036 9.52386 54.5348 9.47995C54.4659 9.43604 54.401 9.35597 54.2958 9.30818C54.1257 9.18033 53.9556 9.05248 53.7855 8.92463C53.7531 8.88459 53.7167 8.88072 53.6843 8.84069C53.4453 8.66892 53.1701 8.49328 52.9312 8.32152C52.7935 8.2337 52.6559 8.14588 52.5183 8.05806C52.417 7.97412 52.2755 7.92246 52.1742 7.83851C51.5874 7.48336 51.0331 7.16825 50.4424 6.84925C50.3736 6.80534 50.2684 6.75756 50.1996 6.71364C50.0256 6.62195 49.8153 6.52638 49.6414 6.43468C49.5726 6.39077 49.4674 6.34299 49.3948 6.33524C49.0793 6.19188 48.7275 6.04466 48.4121 5.9013C48.307 5.85351 48.2018 5.80573 48.0603 5.75407C47.7086 5.60684 47.3529 5.49577 46.9973 5.38469C46.961 5.38082 46.9285 5.34078 46.8558 5.33303C46.4275 5.21421 46.0394 5.0631 45.6073 4.98044C45.4982 4.96881 45.3931 4.92102 45.2841 4.9094C45.1426 4.85773 44.9609 4.83836 44.8195 4.7867C44.6416 4.73116 44.4236 4.70791 44.2458 4.65237C44.1732 4.64462 44.1005 4.63687 44.0317 4.59296C43.8137 4.5697 43.5995 4.51029 43.3452 4.48316C43.2725 4.47541 43.2362 4.47153 43.1635 4.46378C42.9455 4.44053 42.7275 4.41728 42.5458 4.3979C42.4368 4.38627 42.2915 4.37077 42.1825 4.35914C42.0735 4.34752 41.9281 4.33201 41.8191 4.32039C41.5648 4.29326 41.2703 4.29841 41.0159 4.27128C39.1474 4.21826 37.3246 4.42611 35.5475 4.8948C33.424 5.50941 31.5241 6.44042 29.6698 7.63229C29.2718 7.91896 28.8776 8.16947 28.4757 8.4923C28.2345 8.686 27.9934 8.87969 27.7522 9.07339C27.5876 9.23868 27.3905 9.36394 27.2259 9.52922C27.1455 9.59379 27.0651 9.65836 26.9847 9.72293C26.7799 9.9205 26.579 10.0819 26.4105 10.2834C26.3664 10.3518 26.2899 10.3802 26.2458 10.4486C26.041 10.6462 25.8726 10.8477 25.6677 11.0452C25.4189 11.3113 25.2064 11.5811 24.9575 11.8472C24.8733 11.9479 24.7852 12.0848 24.6646 12.1816C24.6205 12.2501 24.5765 12.3185 24.4961 12.3831C23.4296 13.7687 22.4969 15.2783 21.7783 16.8472C21.6864 17.0203 21.6307 17.1972 21.5388 17.3702C21.4391 17.6156 21.3433 17.8248 21.2437 18.0702C20.9887 18.7378 20.7701 19.4093 20.6241 20.0886C20.2271 21.3993 20.0194 22.6571 19.9169 23.9627Z" fill="#EBC46D"/>
</svg>
