<svg width="38" height="54" viewBox="0 0 38 54" fill="none" xmlns="http://www.w3.org/2000/svg">
<path d="M4.45822 1.1853C4.45822 1.1853 26.0487 0.103456 33.1412 1.54592C26.8831 10.9734 41.6939 17.6191 36.6875 28.6951C33.9756 34.7225 28.239 34.4134 23.9105 38.1226C22.4503 39.359 20.99 42.45 21.9288 44.3561C23.1804 46.8804 32.0982 47.9622 32.0982 50.6411C32.0982 53.6291 20.3121 53.7836 17.9653 53.7836C14.9405 53.7836 4.19746 54.1442 2.21573 50.9502C-0.287514 46.8804 11.655 46.5713 12.6981 43.2742C14.8362 36.5256 7.17006 35.0316 3.93671 32.6619C-2.53 27.9739 2.11143 15.5584 6.4921 9.37642C7.74372 7.62486 6.33565 3.86416 4.45822 1.1853Z" fill="#EBC46D"/>
</svg>
