<svg width="65" height="98" viewBox="0 0 65 98" fill="none" xmlns="http://www.w3.org/2000/svg">
<path d="M62.5147 70.4333C61.8727 68.4639 59.9364 67.2559 57.9314 67.4792L9.48062 72.9462C7.39178 73.1754 5.74261 74.8845 5.64223 77.0733L5.55596 78.2541C5.40665 80.9499 7.82566 83.0474 10.4952 82.6939L58.9485 76.0519C61.6238 75.782 63.3709 73.0591 62.5147 70.4333Z" fill="#EBC46D"/>
<path d="M10.2786 91.6881C12.5334 95.0558 16.5327 96.8756 20.5429 96.4289L49.7635 92.8866C53.1871 92.4807 56.2432 90.422 57.8891 87.4544L61.1866 81.6026L7.27229 87.1978L10.2786 91.6881Z" fill="#EBC46D"/>
<path d="M7.02271 66.6555C7.10727 66.6496 7.11313 66.7339 7.11313 66.7339C7.11313 66.7339 7.10727 66.6496 7.02271 66.6555Z" fill="#EBC46D"/>
<path d="M7.11214 66.7332C7.11795 66.8167 6.76538 66.5895 7.10053 66.5662C7.43567 66.5429 7.69284 66.6089 8.03959 66.7526C8.82851 67.2013 9.46728 67.9121 10.1724 68.3666C11.4093 69.2037 13.0361 69.5941 14.4024 68.6599C16.4157 67.345 16.2357 64.7561 17.3763 62.9985C18.595 61.1515 20.5287 63.5345 21.6038 64.4668C23.4853 66.0982 26.0802 67.0926 27.9458 64.865C28.9538 63.62 29.0948 62.0158 29.9293 60.699C30.7697 59.4658 31.391 59.926 31.8913 61.0661C32.3857 62.1226 32.7183 63.2743 33.5363 64.1405C34.3484 64.9232 35.6285 65.1699 36.6944 64.7601C37.7604 64.3503 38.3668 63.3851 38.8895 62.4256C39.1898 61.9013 39.6834 60.5243 40.342 60.3106C40.9227 60.1863 41.345 61.4157 41.5416 61.8216C42.036 62.8782 42.5304 63.9347 43.4985 64.5387C44.7238 65.2088 46.2087 64.7699 47.1503 63.7813C47.9301 62.8879 48.4668 60.9205 49.9202 61.239C51.7983 61.6119 53.1945 63.5289 55.4219 62.8705C57.2361 62.3247 58.1138 60.4175 57.2436 58.7997C56.4688 57.3431 54.3833 58.8308 55.1523 60.2039C55.0627 60.1262 54.8287 60.3942 54.667 60.4894C54.3376 60.5962 53.8117 60.2971 53.4649 60.1534C52.6818 59.7882 51.9709 59.2503 51.1098 58.9745C49.5552 58.4112 47.9749 58.689 46.8832 59.9397C46.4095 60.3922 46.115 61.0001 45.8147 61.5245C45.6645 61.7867 45.3642 62.3111 45.0349 62.4179C44.4484 62.4587 44.0087 60.9788 43.8121 60.5728C43.3177 59.5163 42.7453 58.5491 41.6992 58.0344C40.5693 57.5256 39.33 57.8635 38.4606 58.6792C37.6692 59.4056 37.2361 60.4427 36.7135 61.4021C36.4074 61.843 36.0465 62.7072 35.431 62.3305C35.0784 62.1032 34.954 61.5245 34.7632 61.2021C34.555 60.6291 34.3468 60.0562 34.0606 59.5726C33.4824 58.5219 32.6586 57.5721 31.3844 57.409C29.6854 57.1915 28.3424 58.4597 27.5974 59.8542C27.0806 60.8971 26.8127 63.0976 25.5849 63.6025C24.7645 63.9113 23.9465 63.0451 23.4089 62.579C22.513 61.8021 21.6951 60.9359 20.6432 60.3377C18.4498 59.0637 16.0723 59.9842 14.9607 62.1595C14.4496 63.2859 14.2016 64.5619 13.6906 65.6884C12.9515 67.1664 11.9833 66.5623 10.8244 65.6359C9.48635 64.5541 7.54434 63.2626 5.85451 64.3871C4.48241 65.2377 3.9573 67.3722 5.38499 68.5317C6.62768 69.4523 8.19307 67.749 7.11214 66.7332Z" fill="#EBC46D"/>
<path d="M34.6321 41.1551C31.6158 41.3648 28.9347 41.5512 26.4327 41.893C25.8337 39.3333 25.2406 36.857 24.6416 34.2972C24.7196 34.2079 24.7918 34.035 24.8698 33.9457C25.8395 30.9412 29.5634 30.0109 32.3342 29.9021C36.1162 29.807 39.8666 30.4693 43.6022 29.706C46.8408 29.0613 50.6079 27.5406 52.8751 25.0332C55.6939 21.9841 53.9419 18.5814 52.3748 15.4176C50.2295 11.2031 48.0843 6.98858 45.9332 2.69057C45.4504 1.80105 44.1646 1.47088 43.6477 2.51382C41.13 7.47215 34.5366 7.09146 29.911 7.16136C25.1236 7.32642 19.8019 8.28388 17.0818 12.7528C16.7815 13.2772 16.8943 13.6889 17.1689 14.0055L17.1747 14.089C19.4286 23.4988 21.6826 32.9086 23.9365 42.3184C9.94757 44.5498 4.82086 49.5218 4.03197 57.5487L57.1573 51.5049C57.2469 51.5826 56.7691 39.8675 34.6321 41.1551ZM48.8292 14.0697C45.9531 18.7173 39.2585 18.0919 34.3641 17.9287C34.3583 17.8452 34.3525 17.7617 34.2571 17.6005C34.1617 17.4393 34.1501 17.2723 34.0547 17.1111C39.1167 17.2626 44.5686 16.9674 48.4476 13.4249C48.6326 13.6638 48.7338 13.9085 48.8292 14.0697ZM47.3634 11.1506C43.8427 15.0039 38.1942 14.8931 33.3777 14.6406C33.2649 14.2289 33.1521 13.8172 33.0393 13.4054C37.879 13.992 42.8306 12.5567 46.4816 9.36578C46.7736 9.93289 47.0656 10.5 47.3634 11.1506ZM37.0751 20.5934C41.7182 20.774 46.9793 20.1564 50.0985 16.5829C50.1997 16.8276 50.3905 17.15 50.4917 17.3947L50.4137 17.484C47.7691 23.0386 40.3088 22.2986 35.2584 22.3141C30.7945 22.2889 25.6288 23.0677 22.6714 26.5461C22.5586 26.1343 22.44 25.6391 22.3271 25.2273C24.9776 19.7563 32.1807 20.4302 37.0751 20.5934ZM50.3581 23.9495C47.7326 26.1461 44.0261 27.3269 40.6746 27.5599C36.9939 27.8998 33.3039 26.8976 29.6522 27.6551C27.3236 28.0687 25.209 29.1388 23.8112 30.8305C23.7042 30.5022 23.6752 30.0847 23.5682 29.7565C23.6461 29.6671 23.6403 29.5836 23.7241 29.5778C26.3688 24.0232 33.8291 24.7632 38.8853 24.8312C43.5167 24.8448 48.9338 24.0485 51.7842 20.2419C52.14 21.7277 51.6348 22.9376 50.3581 23.9495ZM44.5387 5.6407C44.7411 6.13013 45.0273 6.61373 45.2239 7.01964C41.8302 10.2766 36.8727 11.6284 32.267 10.7738C32.1599 10.4456 32.1309 10.028 32.0239 9.69977C32.4428 9.67064 32.7838 9.73085 33.2027 9.70172C37.314 9.49975 41.8036 8.68406 44.5387 5.6407ZM29.5825 9.7017C30.0313 12.5237 30.8152 15.3223 31.7551 17.9423C28.0627 18.1151 24.0875 19.0629 21.5805 21.7547C20.8804 18.9502 20.264 16.1399 19.5638 13.3354C21.7962 10.327 25.8005 9.79685 29.5825 9.7017Z" fill="#EBC46D"/>
</svg>
