<svg width="122" height="76" viewBox="0 0 122 76" fill="none" xmlns="http://www.w3.org/2000/svg">
<path d="M104.955 8.47587L101.205 1.22411L97.9673 15.9836C97.9673 15.9836 30.8214 31.5109 24.6863 25.8801C21.1289 22.6152 23.6637 20.5053 26.8165 19.3962C30.0545 18.2871 52.8304 15.0116 61.8381 14.1067C66.8756 12.9474 66.0986 10.0115 61.8381 10.2675C57.5776 10.5234 48.9713 11.0353 38.8312 11.0353C28.6912 11.0353 16.1068 11.0353 13.9498 20.6759C13.4385 26.0507 -1.04732 68.8788 0.0604155 72.1208C1.16815 75.3627 2.44633 76.9837 5.4287 72.1208C8.41107 67.2578 15.8244 44.5641 17.4434 46.0997C19.0624 47.7207 6.45122 72.8033 9.17796 75.1068C11.9047 77.4103 18.0398 71.7795 23.0673 62.9921C28.0947 54.2046 28.1799 47.9767 36.1897 48.2326C44.1995 48.4886 78.0281 43.7109 83.7372 48.4885C89.4463 53.3515 100.95 68.0256 103.591 72.3767C106.233 76.6424 111.601 74.7655 108.96 70.4998C106.318 66.234 96.6892 51.4746 99.0751 49.3417C101.461 47.2088 103.336 46.9529 106.574 52.5837C109.812 58.2145 113.561 67.3431 117.821 68.9641C122.082 70.5851 122.934 66.8312 121.059 64.6984C119.185 62.5655 108.448 42.6871 107.681 35.5207C106.914 28.3542 117.821 30.4018 117.821 24.2591C117.821 18.1165 117.821 18.1165 117.821 18.1165C117.821 18.1165 115.436 4.21013 114.328 1.22411C113.22 -1.76191 111.942 7.36679 111.942 7.36679L104.955 8.47587Z" fill="#EBC46D"/>
</svg>
