<svg width="246" height="232" viewBox="0 0 246 232" fill="none" xmlns="http://www.w3.org/2000/svg">
<path d="M226.072 117.62C226.324 114.934 226.525 111.94 225.759 109.227C225.178 106.863 223.364 104.696 220.641 105.448C216.992 106.349 214.421 108.022 213.517 113.271C210.548 129.375 201.846 135.686 198.216 137.466C191.399 141.018 183.493 139.136 176.203 137.155C169.448 135.341 164.148 129.323 157.723 126.447C154.511 125.009 150.815 123.712 147.139 123.294C150.439 116.463 155.884 110.737 161.948 109.134C171.701 106.497 189.978 115.978 196.333 107.333C201.225 100.562 194.426 67.8782 194.426 67.8782C195.3 67.4229 202.234 67.2552 202.85 56.8223C203.205 48.6367 196.488 42.4682 192.496 45.8815C188.863 49.5522 194.636 54.99 191.692 57.8568C186.196 63.2758 182.226 55.3433 178.705 53.9549C173.983 52.1922 174.484 59.0433 177.099 61.4592C178.001 62.3226 178.811 63.0118 179.663 63.5682C181.95 65.1545 183.373 67.6356 183.564 70.3147L184.928 92.7173C177.732 95.1324 147.138 86.1796 145.147 79.8828C143.728 75.5107 145.712 69.143 146.009 64.4324C146.213 59.5476 147.692 54.3323 147.63 49.3643C147.571 42.5053 145.646 39.2855 145.646 39.2855L130.747 47.1589C128.637 43.5906 125.503 33.4445 125.503 33.4445L112.884 46.686C110.106 49.0222 97.9029 48.7122 96.6662 50.8011C93.2549 56.5786 102.607 59.9298 104.592 63.896C106.72 68.3435 104.827 74.8854 103.514 79.5702C101.704 85.8468 100.706 86.7001 93.975 88.0955C88.5184 89.1602 72.353 87.4698 66.7346 87.1742C66.7346 87.1742 67.4781 74.4523 67.1619 67.9498C66.8514 63.7777 66.1087 60.0532 65.1818 55.9801C64.9373 54.8851 65.4842 53.6 66.3996 53.012C68.0142 52.0598 70.1757 49.8225 71.0795 44.5734C71.7127 41.1321 71.4342 36.3878 66.9248 36.2924C63.8741 36.2149 63.3895 42.4679 60.2808 45.8654C58.5516 47.6552 51.9293 45.8825 52.2616 38.7087C52.4342 34.3961 53.7195 28.3927 50.0842 27.8419C43.6556 26.8572 43.6033 32.6628 43.1732 37.3317C42.112 49.6635 53.8848 54.6425 54.9525 54.9752C58.1033 61.779 48.5092 88.3349 48.7521 95.5423C49.3606 115.672 79.5416 99.1707 92.8783 102.89C92.4691 112.66 92.7744 124.836 88.9367 133.391C68.3671 130.328 52.1711 149.878 67.5139 162.664C70.3035 164.989 75.2002 166.661 75.1103 170.708C74.7874 178.322 64.7047 175.907 60.0582 177.661C55.2369 179.506 49.2391 184.186 55.2506 188.388C58.841 190.963 67.6697 188.475 71.9949 188.222C84.179 187.652 94.2785 186.725 93.6272 172.84C92.9251 158.649 89.5379 157.302 102.235 151.799C107.314 149.598 117.588 148.579 123.562 151.023C129.669 153.508 135.476 162.595 135.202 166.294C134.621 174.264 115.28 179.006 117.028 188.43C118.177 194.61 139.358 205.577 145.574 204.895C151.616 204.303 151.785 201.881 149.555 196.82C146.487 189.751 140.897 190.774 148.614 183.865C157.238 175.927 172.611 167.474 163.31 154.096C160.073 149.448 151.659 144.497 147.561 138.853C152.645 138.983 158.269 141.609 162.251 143.868C171.682 148.845 181.531 154.826 192.699 154.231C209.116 153.234 221.233 139.254 225.555 124.446C225.467 122.38 225.903 120.042 226.072 117.62Z" fill="#EC7A75"/>
</svg>
