<svg width="63" height="64" viewBox="0 0 63 64" fill="none" xmlns="http://www.w3.org/2000/svg">
<path d="M61.8633 11.3658C60.75 10.112 55.4127 11.1018 53.71 11.4318C53.9065 14.0054 53.5136 16.876 53.5136 19.5156C53.5136 21.3963 53.8737 21.6932 52.1056 22.0562C50.894 22.2871 49.3551 22.0562 48.1108 22.0562C46.5391 22.0562 45.7532 22.2541 45.0001 21.0663C44.4434 20.1755 42.9372 17.2059 42.0204 13.3785C41.6929 12.0257 45.7532 11.1018 43.7885 8.52824C43.7885 8.52824 41.169 6.35058 40.9398 5.39373C40.4486 3.38104 39.7938 1.07139 38.8114 0.081543C37.7309 1.13738 35.9954 3.44703 34.6857 3.24906C33.6051 3.08408 32.2626 1.36835 31.313 0.774436C29.6103 3.48002 29.8395 13.7744 29.8395 13.5765C28.2351 12.3557 12.2887 12.8836 12.2887 12.8836C12.2887 12.8836 11.0444 17.1729 10.7497 18.3607C10.2258 20.5714 9.80011 22.914 9.21071 25.0587C8.22839 24.3328 5.90355 24.3988 5.77258 25.8506C5.60886 27.7313 10.4877 28.9521 11.601 28.0282C12.6816 27.1374 14.679 19.4166 15.0392 17.7998C16.8074 17.9648 17.626 18.1298 19.3941 18.3607C20.5402 18.5257 24.2403 19.2846 24.2403 19.2846C24.3713 19.5156 24.1748 25.5206 23.9456 31.2618C20.7694 31.5257 17.5277 31.6907 14.3188 31.8557C10.4877 32.0536 6.32923 31.5917 2.59639 32.3836C1.05742 32.7135 -0.481559 34.0333 1.4176 35.4521C2.49816 36.244 4.43007 35.6171 5.67434 35.4521C8.78504 34.9572 11.8957 34.7262 15.1047 34.5612C16.7419 34.4623 21.588 34.5282 23.8146 34.5612C23.6509 38.6196 23.4872 41.8861 23.4872 41.8861C19.1977 40.5003 14.0568 37.2008 14.0568 37.2008C13.0418 38.0257 9.24346 42.513 9.37443 43.8988C9.50541 45.5156 10.6515 45.4496 11.6665 45.1196C12.6489 44.7897 13.3037 43.5029 14.3843 43.5029C15.4321 43.5029 17.0038 44.9546 17.9207 45.5156C20.1473 46.8024 24.6987 50.1678 26.5324 47.8252C27.7112 46.3404 29.905 39.2135 30.8546 37.5308C35.5043 39.6755 38.222 44.6577 37.4689 49.7719C37.0105 53.0054 34.9804 63.0359 34.9804 63.0359C36.4211 63.4318 46.5718 61.1552 47.1612 60.0003C48.7984 56.7998 41.2673 57.2947 41.2673 57.2947C41.8566 53.4343 43.6248 42.348 44.2797 38.4876C44.7381 35.6831 45.2293 32.9115 45.7205 30.1069C45.8514 29.414 45.7859 27.6983 46.1134 27.1044C46.6373 26.1475 46.4736 26.6425 47.5541 26.3455C49.0604 25.9496 50.7303 26.1145 52.2693 25.8506C53.2844 25.6526 56.3951 25.6196 56.919 24.9597C57.4101 24.3328 57.0499 21.4293 57.0827 20.5714C57.1482 18.4267 57.3446 16.2491 57.4756 14.0714C58.8509 14.0714 64.4501 14.2364 61.8633 11.3658Z" fill="#EBC46D"/>
</svg>
