<svg width="147" height="138" viewBox="0 0 147 138" fill="none" xmlns="http://www.w3.org/2000/svg">
<g clip-path="url(#clip0)">
<path d="M78.0112 53.5419C84.3965 52.8392 99.5268 53.5419 104.246 48.7639C108.549 44.2669 107.161 26.4197 107.578 20.0959C108.966 -11.1017 70.7931 31.6193 68.2945 13.772C67.6004 9.13455 77.3172 7.86979 72.1812 1.96755C68.5721 -2.10781 60.5211 1.2649 56.9121 3.23231C47.1954 8.71296 43.031 20.5174 33.3143 25.717C23.8752 30.7761 5.41349 32.1814 0.83275 43.4238C-1.11059 48.4828 -0.138921 55.7904 4.16419 59.3036C8.46731 62.5358 58.8554 55.3688 78.0112 53.5419Z" fill="#7FB587"/>
<path d="M123.402 107.646C129.232 104.835 143.669 100.338 146.445 94.2952C149.082 88.674 141.864 72.2321 140.06 66.1893C131.176 36.3971 109.244 89.5172 101.054 73.4969C98.9718 69.281 107.717 64.784 100.776 60.9897C96.0568 58.4602 89.5327 64.2219 86.8953 67.3136C79.5383 75.7453 79.3995 88.2525 72.0426 96.4032C64.8245 104.413 47.7508 111.861 47.3344 124.087C47.0568 129.568 50.527 136.033 55.663 137.859C60.799 139.686 106.051 115.937 123.402 107.646Z" fill="#7FB587"/>
</g>
<defs>
<clipPath id="clip0">
<rect width="147" height="138" fill="white"/>
</clipPath>
</defs>
</svg>
