<svg width="195" height="141" viewBox="0 0 195 141" fill="none" xmlns="http://www.w3.org/2000/svg">
<g clip-path="url(#clip0)">
<path d="M192.899 0C130.35 5.67708 60.9156 -2.78061 0 3.82334V61.4051C0 61.4051 75.386 62.2161 135.601 60.71L137.469 22.0132L174.811 22.8242L175.978 58.8562C183.097 58.3928 189.515 57.9293 195 57.35L192.899 0ZM13.1867 50.6302V19.0008H123.232L124.632 50.6302H13.1867Z" fill="#F27552"/>
<path d="M0 74.3814V137.64H16.6876V101.029L77.9533 99.291V141H114.946V71.0215L0 74.3814Z" fill="#F27552"/>
<path d="M122.999 74.2655C122.532 95.1201 123.349 115.975 125.333 136.829C142.254 138.335 169.561 139.031 186.598 138.915C189.632 118.408 191.966 93.0346 195 72.5276L122.999 74.2655Z" fill="#F27552"/>
</g>
<defs>
<clipPath id="clip0">
<path d="M0 0H195V141H0V0Z" fill="white"/>
</clipPath>
</defs>
</svg>
