<svg width="178" height="163" viewBox="0 0 178 163" fill="none" xmlns="http://www.w3.org/2000/svg">
<path d="M26.4621 88.7394C26.84 89.2133 27.5013 89.4028 28.1625 88.9289L28.257 88.8341C28.257 88.8341 28.3514 88.8341 28.3514 88.7394C33.547 84.8533 40.1595 83.2421 46.2997 81.7256C53.6679 79.83 60.8472 77.4604 67.9321 74.9961C75.2058 72.4371 82.5741 69.7832 89.3755 66.2763C95.2323 63.2433 100.333 59.073 104.584 54.0496C110.63 46.8462 116.203 39.3586 121.871 31.9657C122.627 31.0179 121.966 28.9327 120.454 29.5961C112.897 32.8187 105.623 36.7047 98.822 41.349C92.0205 45.8984 85.2191 50.0688 77.8509 53.4809C70.6716 56.7982 63.3033 59.1677 55.7462 61.5373C49.7004 63.5277 43.9381 66.5607 38.9315 70.4467C33.2636 74.8066 27.9736 80.3986 25.9898 87.4124C25.8009 87.8863 26.0843 88.3602 26.4621 88.7394Z" fill="#7FB587"/>
<path d="M78.5127 87.2229C79.2684 86.0855 78.0403 84.8534 76.9068 85.1377C66.0433 87.4125 55.1799 90.4455 44.7888 94.4262C34.5866 98.407 24.6679 103.43 15.4103 109.307C10.3093 112.529 5.49156 115.941 0.768335 119.638C0.673871 119.638 0.673871 119.733 0.579406 119.827C0.579406 119.827 0.484942 119.827 0.484942 119.922C-0.17631 120.396 -0.0818458 121.06 0.296012 121.628C0.484942 122.102 0.8628 122.387 1.52405 122.387C7.09746 122.292 12.293 120.491 17.6775 119.448C20.5114 118.88 23.2509 118.216 25.8959 117.079C28.7298 115.941 31.3748 114.52 34.1143 113.288C39.4043 110.918 45.0722 109.591 50.5512 107.601C55.5578 105.705 60.4699 103.525 65.0042 100.587C70.3887 97.0801 74.923 92.6254 78.5127 87.2229Z" fill="#7FB587"/>
<path d="M55.0855 129.685C55.4634 129.779 55.8412 129.779 56.2191 129.495C61.2257 126.652 66.988 125.42 72.1836 123.05C78.0404 120.396 83.7082 117.268 88.9983 113.762C93.1547 110.918 96.461 107.506 99.0115 103.146C101.373 99.0705 102.885 94.521 104.49 90.0663C106.285 85.0429 107.986 79.9248 110.914 75.3753C111.575 74.3327 110.442 72.911 109.308 73.2901C100.145 76.1335 93.2492 83.6212 87.6758 91.0141C81.4411 99.1653 76.6234 108.643 68.8773 115.468C64.2486 119.543 58.8641 122.766 54.5187 127.315C54.1409 127.599 54.0464 127.979 54.0464 128.358V128.453V128.547C54.0464 128.642 54.0464 128.642 54.1408 128.737C54.1408 128.832 54.2353 128.832 54.2353 128.926C54.2353 128.926 54.2353 129.021 54.3298 129.021L54.4242 129.116C54.4242 129.211 54.5187 129.211 54.5187 129.306C54.6132 129.4 54.8021 129.495 54.8966 129.59C54.8966 129.59 54.8966 129.59 54.991 129.59C54.991 129.685 55.0855 129.685 55.0855 129.685Z" fill="#7FB587"/>
<path d="M171.938 37.5576C168.16 43.3392 165.515 49.9739 160.886 55.1868C156.068 60.4945 150.117 64.5701 144.638 69.1196C140.481 72.6265 136.231 75.849 131.98 79.0716C127.54 82.4837 123.1 86.0853 119.227 90.2557C115.259 94.7104 111.859 99.9233 111.008 105.895C110.914 106.463 111.103 107.032 111.575 107.411C111.953 107.79 112.52 107.885 113.181 107.506C113.181 107.506 113.181 107.506 113.276 107.506C113.37 107.411 113.465 107.411 113.465 107.316C118.66 103.62 123.1 98.9755 128.295 95.2791C133.774 91.3931 140.104 89.2131 145.96 86.0853C151.534 83.0524 156.54 78.7872 160.791 74.143C164.948 69.4987 168.443 64.2858 170.899 58.5989C173.733 52.1538 175.15 45.2348 174.583 38.221C174.394 36.8941 172.694 36.3254 171.938 37.5576Z" fill="#7FB587"/>
<path d="M176.283 0.0244614C173.544 0.782708 171.465 2.7731 169.482 4.7635C167.687 6.65912 165.514 8.17561 163.719 10.0712C161.736 12.0616 159.846 14.2416 157.863 16.1372C155.879 18.0328 153.423 19.265 150.967 20.5919C148.699 21.824 146.432 23.0562 144.449 24.6675C141.804 26.7526 139.631 29.2169 137.553 31.8708C133.302 37.2733 130.09 43.2445 127.067 49.4053C123.95 55.9451 121.966 62.8641 118.187 69.1197C117.81 69.7831 117.998 70.3518 118.376 70.7309C118.754 71.2048 119.415 71.4892 120.077 71.0153C120.077 71.0153 120.171 71.0153 120.171 70.9205C129.523 64.665 138.214 57.4616 146.243 49.5948C155.029 40.875 163.058 31.2073 169.293 20.4971C172.788 14.5259 175.716 8.27039 177.889 1.63574C178.361 0.782708 177.228 -0.1651 176.283 0.0244614Z" fill="#7FB587"/>
<path d="M164.664 90.1609C152.951 101.345 136.703 105.421 122.439 112.245C114.598 116.036 107.513 120.965 100.901 126.652C93.7213 132.812 86.9199 139.352 79.7406 145.418C76.0565 148.451 72.4668 151.389 68.3104 153.664C64.8152 155.56 60.9421 157.361 58.2971 160.394C57.447 161.057 57.7304 162.479 58.675 162.858C59.0529 163.047 59.4307 163.047 59.8086 162.858C78.4181 158.119 97.5944 154.233 115.07 146.082C129.901 139.163 143.599 129.116 153.895 116.226C159.752 108.833 164.381 100.587 167.215 91.5827C167.498 90.1609 165.609 89.2131 164.664 90.1609Z" fill="#7FB587"/>
</svg>
