<svg width="342" height="176" viewBox="0 0 342 176" fill="none" xmlns="http://www.w3.org/2000/svg">
<path d="M150.431 158.335C131.342 160.856 108.584 156.026 86.934 139.16C86.6338 138.929 86.6338 138.929 86.3336 138.699C60.7478 151.265 31.4739 158.373 15.6207 158.846L14.5852 134.664C29.0777 134.101 49.9024 128.379 68.5205 120.246C55.2848 101.728 51.6486 80.322 59.6038 60.8975C69.9339 34.9447 89.3432 30.7603 104.237 35.2782C123.918 41.3256 141.337 64.9647 135.815 90.5528C132.991 103.896 122.923 115.493 109.358 125.12C126.614 135.271 149.567 139.535 166.528 127.027C169.234 125.049 171.905 122.805 174.506 120.029C156.353 105.133 141.301 83.0732 144.332 57.0035C147.009 32.3317 164.34 20.5857 180.389 19.5471C199.919 18.3189 216.605 32.3275 221.532 53.2931C225.913 72.1692 219.934 94.3049 209.223 113.283C230.951 122.572 252.146 117.612 266.62 100.569C251.139 83.4289 234.73 57.2245 243.235 35.836C248.48 22.4437 259.834 14.4594 273.601 14.5326C288.729 14.6964 304.129 25.092 308.499 37.7549C315.001 56.3508 302.246 86.4068 297.641 96.4721L297.941 96.7027C307.477 103.549 317.302 104.413 329.654 106.025C332.376 106.206 335.132 106.652 338.154 107.064L335.107 130.974C332.351 130.527 329.629 130.346 327.173 130.13C313.23 128.729 298.987 127.097 284.718 117.093C262.211 142.762 228.06 149.704 195.435 133.478C190.958 138.392 186.182 143.076 181.495 146.397C172.316 152.473 162.097 156.794 150.431 158.335ZM180.364 43.8688C174.796 44.6041 168.924 49.1624 167.64 59.8699C165.732 76.0638 175.721 90.4166 188.169 100.932C195.765 86.9588 200.164 71.2464 197.491 59.1702C194.852 47.3595 187.062 43.5246 181.159 43.7637C180.894 43.7987 180.629 43.8338 180.364 43.8688ZM92.6905 58.1492C88.1833 58.7444 84.6623 62.7221 81.5972 70.1522C75.9271 84.4112 81.0026 98.3319 89.9695 109.037C101.659 101.548 110.292 93.383 111.961 85.5969C114.43 73.6521 106.048 61.2488 96.7727 58.4207C95.3769 58.0646 94.0162 57.9741 92.6905 58.1492ZM270.89 38.9389C268.769 39.219 266.488 40.3308 264.893 44.5945C261.863 52.2902 269.094 66.1963 278.537 78.4595C283.622 65.899 286.871 51.6896 285.039 45.987C284.123 43.1358 278.154 38.7902 272.481 38.7288C271.95 38.7988 271.42 38.8688 270.89 38.9389Z" fill="#EC7A75"/>
</svg>
