<svg width="99" height="52" viewBox="0 0 99 52" fill="none" xmlns="http://www.w3.org/2000/svg">
<path d="M43.7243 46.1337C38.2482 46.8568 31.7199 45.4712 25.5094 40.6331C25.4233 40.5669 25.4233 40.5669 25.3372 40.5008C17.9976 44.1054 9.60007 46.1446 5.05241 46.2801L4.75538 39.3433C8.9127 39.1819 14.8865 37.5403 20.2273 35.2073C16.4305 29.8954 15.3874 23.7548 17.6694 18.1826C20.6328 10.7378 26.2005 9.53743 30.4729 10.8335C36.1188 12.5682 41.1156 19.3494 39.5314 26.6896C38.7213 30.5171 35.8333 33.8439 31.9419 36.6056C36.892 39.5174 43.4763 40.7406 48.3419 37.1527C49.1181 36.5851 49.8843 35.9413 50.6304 35.1452C45.4231 30.8722 41.1052 24.544 41.9747 17.0656C42.7425 9.98822 47.7143 6.61874 52.3179 6.32082C57.9203 5.96851 62.707 9.98701 64.1203 16.0012C65.3771 21.416 63.662 27.7659 60.5893 33.2099C66.8222 35.8747 72.9023 34.4517 77.0543 29.5628C72.6133 24.646 67.9062 17.129 70.346 10.9935C71.8506 7.15174 75.1077 4.86134 79.057 4.88236C83.3966 4.92934 87.8143 7.91143 89.0678 11.5439C90.9331 16.8784 87.274 25.5002 85.9529 28.3876L86.039 28.4537C88.7746 30.4178 91.5931 30.6657 95.1364 31.1278C95.917 31.1798 96.7078 31.3079 97.5746 31.4259L96.7006 38.2848C95.9099 38.1567 95.1292 38.1048 94.4245 38.0428C90.425 37.6409 86.3393 37.1728 82.2459 34.3029C75.7897 41.6665 65.9929 43.6578 56.634 39.003C55.3499 40.4128 53.9797 41.7564 52.6352 42.709C50.0023 44.4519 47.0707 45.6917 43.7243 46.1337ZM52.3107 13.2978C50.7135 13.5087 49.029 14.8163 48.6608 17.8878C48.1136 22.5333 50.9788 26.6505 54.5498 29.6669C56.7289 25.6586 57.9908 21.1513 57.2238 17.6871C56.4668 14.2991 54.2322 13.199 52.5388 13.2676C52.4628 13.2777 52.3867 13.2877 52.3107 13.2978ZM27.1607 17.3942C25.8678 17.565 24.8577 18.706 23.9785 20.8374C22.352 24.9278 23.8079 28.9211 26.3802 31.9919C29.7335 29.8438 32.2099 27.5015 32.6887 25.2679C33.397 21.8414 30.9925 18.2834 28.3318 17.4721C27.9314 17.37 27.541 17.344 27.1607 17.3942ZM78.2792 11.8836C77.6707 11.9639 77.0164 12.2828 76.5589 13.5059C75.6897 15.7135 77.7641 19.7027 80.4728 23.2205C81.9315 19.6174 82.8635 15.5412 82.3379 13.9054C82.0751 13.0875 80.3628 11.8409 78.7355 11.8233C78.5834 11.8434 78.4313 11.8635 78.2792 11.8836Z" fill="#EBC46D"/>
</svg>
