<svg width="290" height="265" viewBox="0 0 290 265" fill="none" xmlns="http://www.w3.org/2000/svg">
<path d="M211.684 250.013L197.476 241.995L198.865 191.576L230.423 190.016C230.423 190.016 212.872 157.307 190.555 132.917C195.161 122.759 201.274 101.808 184.895 86.783L189.585 79.2846C191.742 79.3293 193.856 78.044 195.224 75.8569C197.178 72.7326 196.424 68.3495 192.97 66.189C189.516 64.0285 185.44 64.9567 183.291 68.3935C181.727 70.893 181.93 74.062 183.856 76.5706L179.32 82.4264L179.006 82.23C161.106 71.0348 140.707 84.7902 130.923 93.4488C79.4072 73.834 47.3264 88.1066 47.3264 88.1066L61.8416 112.397L29.1746 127.607L15.3571 118.965L9.3694 124.348L40.0819 151.38L45.6718 143.141L34.2829 133.41L68.7224 122.351C68.7224 122.351 86.8036 145.83 114.208 165.577L119.037 169.032C138.431 182.031 161.739 192.262 186.632 190.88L187.748 239.388L171.509 235.317L169.289 243.056L207.427 258.216L211.684 250.013Z" fill="#C7A5A3"/>
</svg>
