<svg width="229" height="136" viewBox="0 0 229 136" fill="none" xmlns="http://www.w3.org/2000/svg">
<path d="M195.324 115.378C195.753 117.434 195.803 119.651 195.296 121.927C193.682 128.749 187.302 133.528 180.316 133.103C172.227 132.612 166.097 125.689 166.583 117.691C166.666 116.313 166.934 114.945 167.38 113.68L67.5521 107.615C67.9807 109.671 68.0305 111.888 67.5232 114.164C65.9093 120.985 59.5296 125.764 52.5435 125.34C44.4543 124.848 38.3244 117.925 38.8103 109.928C38.8941 108.549 39.1617 107.181 39.6076 105.917L12.3985 104.264L12.6722 99.7595L13.0576 93.4168L5.61182 92.9644C3.95721 92.8639 2.66214 91.4013 2.76268 89.7467L3.29327 81.014L3.40497 79.1756L9.10418 79.5218L9.57334 71.8003L14.3533 72.0908L13.8474 65.2326L36.5132 30.8122L37.4298 29.3917L42.9466 20.5929C67.3782 23.9226 74.8826 5.18811 74.8826 5.18811L197.471 11.7139L208.044 39.6658L208.759 41.5546L224.372 80.6996L222.741 107.541L217.827 112.501L195.324 115.378Z" fill="#C7A5A3"/>
</svg>
